<?xml version="1.0" encoding="utf-8" standalone="no"?>
<!DOCTYPE svg PUBLIC "-//W3C//DTD SVG 1.1//EN"
  "http://www.w3.org/Graphics/SVG/1.1/DTD/svg11.dtd">
<!-- Created with matplotlib (http://matplotlib.org/) -->
<svg height="432pt" version="1.1" viewBox="0 0 720 432" width="720pt" xmlns="http://www.w3.org/2000/svg" xmlns:xlink="http://www.w3.org/1999/xlink">
 <defs>
  <style type="text/css">
*{stroke-linecap:butt;stroke-linejoin:round;}
  </style>
 </defs>
 <g id="figure_1">
  <g id="patch_1">
   <path d="M 0 432 
L 720 432 
L 720 0 
L 0 0 
z
" style="fill:#ffffff;"/>
  </g>
  <g id="axes_1">
   <g id="patch_2">
    <path d="M 90 378 
L 648 378 
L 648 51.84 
L 90 51.84 
z
" style="fill:#ffffff;"/>
   </g>
   <g id="patch_3">
    <path clip-path="url(#pf88045a808)" d="M 115.363636 378 
L 145.203209 378 
L 145.203209 237.700859 
L 115.363636 237.700859 
z
" style="fill:#ff0000;"/>
   </g>
   <g id="patch_4">
    <path clip-path="url(#pf88045a808)" d="M 145.203209 378 
L 175.042781 378 
L 175.042781 231.683742 
L 145.203209 231.683742 
z
" style="fill:#800080;"/>
   </g>
   <g id="patch_5">
    <path clip-path="url(#pf88045a808)" d="M 175.042781 378 
L 204.882353 378 
L 204.882353 241.5117 
L 175.042781 241.5117 
z
" style="fill:#ffc0cb;"/>
   </g>
   <g id="patch_6">
    <path clip-path="url(#pf88045a808)" d="M 227.262032 378 
L 257.101604 378 
L 257.101604 288.545149 
L 227.262032 288.545149 
z
" style="fill:#ff0000;"/>
   </g>
   <g id="patch_7">
    <path clip-path="url(#pf88045a808)" d="M 257.101604 378 
L 286.941176 378 
L 286.941176 293.973808 
L 257.101604 293.973808 
z
" style="fill:#800080;"/>
   </g>
   <g id="patch_8">
    <path clip-path="url(#pf88045a808)" d="M 339.160428 378 
L 369 378 
L 369 273.260343 
L 339.160428 273.260343 
z
" style="fill:#ff0000;"/>
   </g>
   <g id="patch_9">
    <path clip-path="url(#pf88045a808)" d="M 369 378 
L 398.839572 378 
L 398.839572 279.880086 
L 369 279.880086 
z
" style="fill:#800080;"/>
   </g>
   <g id="patch_10">
    <path clip-path="url(#pf88045a808)" d="M 398.839572 378 
L 428.679144 378 
L 428.679144 267.40652 
L 398.839572 267.40652 
z
" style="fill:#ffc0cb;"/>
   </g>
   <g id="patch_11">
    <path clip-path="url(#pf88045a808)" d="M 451.058824 378 
L 480.898396 378 
L 480.898396 280.20146 
L 451.058824 280.20146 
z
" style="fill:#ff0000;"/>
   </g>
   <g id="patch_12">
    <path clip-path="url(#pf88045a808)" d="M 480.898396 378 
L 510.737968 378 
L 510.737968 277.966776 
L 480.898396 277.966776 
z
" style="fill:#800080;"/>
   </g>
   <g id="patch_13">
    <path clip-path="url(#pf88045a808)" d="M 562.957219 378 
L 592.796791 378 
L 592.796791 67.371429 
L 562.957219 67.371429 
z
" style="fill:#ff0000;"/>
   </g>
   <g id="patch_14">
    <path clip-path="url(#pf88045a808)" d="M 592.796791 378 
L 622.636364 378 
L 622.636364 93.141287 
L 592.796791 93.141287 
z
" style="fill:#800080;"/>
   </g>
   <g id="matplotlib.axis_1">
    <g id="xtick_1">
     <g id="line2d_1">
      <defs>
       <path d="M 0 0 
L 0 3.5 
" id="md1fe837415" style="stroke:#000000;stroke-width:0.8;"/>
      </defs>
      <g>
       <use style="stroke:#000000;stroke-width:0.8;" x="145.203209" xlink:href="#md1fe837415" y="378"/>
      </g>
     </g>
     <g id="text_1">
      <!-- electronic component -->
      <defs>
       <path d="M 13 29 
L 43.90625 29 
L 43.90625 29.40625 
Q 43.90625 37.5 40.046875 41.640625 
Q 36.203125 45.796875 29.59375 45.796875 
Q 26.5 45.796875 23.75 44.640625 
Q 21 43.5 18.796875 41.390625 
Q 16.59375 39.296875 15.09375 36.25 
Q 13.59375 33.203125 13 29.5 
z
M 29.796875 52.296875 
Q 40.796875 52.296875 46.890625 45.6875 
Q 53 39.09375 53 26.59375 
L 53 22.5 
L 12.90625 22.5 
L 12.90625 21.59375 
Q 13.09375 12 18.09375 7.09375 
Q 23.09375 2.203125 31.5 2.203125 
Q 35.90625 2.203125 40.25 3.5 
Q 44.59375 4.796875 49.203125 8 
Q 50.296875 8.90625 50.296875 7.59375 
L 50.296875 0.703125 
Q 46.09375 -2.5 41.1875 -3.640625 
Q 36.296875 -4.796875 30.296875 -4.796875 
Q 24.40625 -4.796875 19.5 -2.890625 
Q 14.59375 -1 11.09375 2.59375 
Q 7.59375 6.203125 5.640625 11.453125 
Q 3.703125 16.703125 3.703125 23.5 
Q 3.703125 30 5.59375 35.296875 
Q 7.5 40.59375 10.953125 44.390625 
Q 14.40625 48.203125 19.203125 50.25 
Q 24 52.296875 29.796875 52.296875 
z
" id="NanumBarunGothic-65"/>
       <path d="M 16.09375 77.703125 
L 16.09375 -3.59375 
L 7.5 -3.59375 
L 7.5 77.703125 
z
" id="NanumBarunGothic-6c"/>
       <path d="M 46.5 7.59375 
Q 47.59375 8.703125 47.59375 7.203125 
L 47.59375 0.5 
Q 44.40625 -2.5 40.25 -3.75 
Q 36.09375 -5 31.59375 -5 
Q 25.296875 -5 20.1875 -3.203125 
Q 15.09375 -1.40625 11.390625 2.09375 
Q 7.703125 5.59375 5.703125 10.890625 
Q 3.703125 16.203125 3.703125 23.296875 
Q 3.703125 29.90625 5.59375 35.25 
Q 7.5 40.59375 11.09375 44.390625 
Q 14.703125 48.203125 19.84375 50.25 
Q 25 52.296875 31.40625 52.296875 
Q 35.796875 52.296875 39.890625 51.09375 
Q 44 49.90625 47.203125 47.296875 
L 47.203125 40.40625 
Q 47.203125 38.703125 46.09375 40 
Q 42.90625 42.90625 39.296875 44 
Q 35.703125 45.09375 31.59375 45.09375 
Q 26.90625 45.09375 23.40625 43.34375 
Q 19.90625 41.59375 17.59375 38.640625 
Q 15.296875 35.703125 14.09375 31.75 
Q 12.90625 27.796875 12.90625 23.40625 
Q 12.90625 18.703125 14.09375 14.796875 
Q 15.296875 10.90625 17.6875 8.046875 
Q 20.09375 5.203125 23.75 3.640625 
Q 27.40625 2.09375 32.296875 2.09375 
Q 36.5 2.09375 39.890625 3.390625 
Q 43.296875 4.703125 46.5 7.59375 
z
" id="NanumBarunGothic-63"/>
       <path d="M 33.5 4.703125 
Q 34.59375 5.5 34.59375 4.09375 
L 34.59375 -2 
Q 32.59375 -3.5 29.75 -4.09375 
Q 26.90625 -4.703125 24.203125 -4.703125 
Q 16.5 -4.796875 13.140625 -1.640625 
Q 9.796875 1.5 9.796875 9.09375 
L 9.796875 44.5 
L 0.296875 44.5 
L 0.296875 51 
L 9.796875 51 
L 9.796875 64.5 
L 18.40625 64.5 
L 18.40625 51 
L 32.59375 51 
L 32.59375 44.5 
L 18.40625 44.5 
L 18.40625 10.40625 
Q 18.40625 8.203125 18.59375 6.703125 
Q 18.796875 5.203125 19.5 4.296875 
Q 20.203125 3.40625 21.59375 3 
Q 23 2.59375 25.296875 2.59375 
Q 26.703125 2.59375 29.09375 3.09375 
Q 31.5 3.59375 33.5 4.703125 
z
" id="NanumBarunGothic-74"/>
       <path d="M 36.5 43.09375 
Q 35.09375 43.90625 33.59375 44.25 
Q 32.09375 44.59375 30.09375 44.59375 
Q 27.5 44.59375 24.953125 43.34375 
Q 22.40625 42.09375 20.453125 39.796875 
Q 18.5 37.5 17.296875 34.296875 
Q 16.09375 31.09375 16.09375 27.203125 
L 16.09375 -3.59375 
L 7.5 -3.59375 
L 7.5 51 
L 16.203125 51 
L 16.59375 43.09375 
Q 18.703125 47.5 22.703125 49.890625 
Q 26.703125 52.296875 31 52.296875 
Q 33.09375 52.296875 34.640625 52.046875 
Q 36.203125 51.796875 37.703125 51 
L 37.703125 43.59375 
Q 37.703125 42.203125 36.5 43.09375 
z
" id="NanumBarunGothic-72"/>
       <path d="M 28.796875 -4.5 
Q 22.203125 -4.5 17.453125 -2.25 
Q 12.703125 0 9.546875 3.890625 
Q 6.40625 7.796875 4.90625 12.9375 
Q 3.40625 18.09375 3.40625 23.90625 
Q 3.40625 30 5 35.25 
Q 6.59375 40.5 9.796875 44.25 
Q 13 48 17.75 50.140625 
Q 22.5 52.296875 28.796875 52.296875 
Q 35.09375 52.296875 39.84375 50.140625 
Q 44.59375 48 47.796875 44.25 
Q 51 40.5 52.59375 35.25 
Q 54.203125 30 54.203125 23.90625 
Q 54.203125 18.09375 52.703125 12.9375 
Q 51.203125 7.796875 48.046875 3.890625 
Q 44.90625 0 40.15625 -2.25 
Q 35.40625 -4.5 28.796875 -4.5 
z
M 28.796875 2.40625 
Q 36.796875 2.40625 40.9375 7.796875 
Q 45.09375 13.203125 45.09375 23.90625 
Q 45.09375 34.90625 40.9375 40.203125 
Q 36.796875 45.5 28.796875 45.5 
Q 20.796875 45.5 16.640625 40.203125 
Q 12.5 34.90625 12.5 23.90625 
Q 12.5 13.203125 16.640625 7.796875 
Q 20.796875 2.40625 28.796875 2.40625 
z
" id="NanumBarunGothic-6f"/>
       <path d="M 52.796875 28.703125 
L 52.796875 -3.59375 
L 44.203125 -3.59375 
L 44.203125 28.90625 
Q 44.203125 37.296875 41.796875 41.390625 
Q 39.40625 45.5 32.90625 45.5 
Q 29.703125 45.5 26.640625 44.046875 
Q 23.59375 42.59375 21.25 40.046875 
Q 18.90625 37.5 17.453125 34.046875 
Q 16 30.59375 16 26.5 
L 16 -3.59375 
L 7.5 -3.59375 
L 7.5 51 
L 16.09375 51 
L 16.5 43.09375 
L 16.59375 43.09375 
Q 17.796875 45.203125 19.75 46.890625 
Q 21.703125 48.59375 24 49.796875 
Q 26.296875 51 28.84375 51.640625 
Q 31.40625 52.296875 33.90625 52.296875 
Q 44.296875 52.296875 48.546875 46.25 
Q 52.796875 40.203125 52.796875 28.703125 
z
" id="NanumBarunGothic-6e"/>
       <path d="M 16.5 51 
L 16.5 -3.59375 
L 7.796875 -3.59375 
L 7.796875 51 
z
M 6 68.40625 
Q 6 71.09375 7.75 72.890625 
Q 9.5 74.703125 12.203125 74.703125 
Q 14.796875 74.703125 16.59375 72.890625 
Q 18.40625 71.09375 18.40625 68.40625 
Q 18.40625 65.796875 16.59375 64.046875 
Q 14.796875 62.296875 12.203125 62.296875 
Q 9.5 62.296875 7.75 64.046875 
Q 6 65.796875 6 68.40625 
z
" id="NanumBarunGothic-69"/>
       <path id="NanumBarunGothic-20"/>
       <path d="M 48.09375 40 
L 48.203125 40 
Q 51.296875 46.09375 55.890625 49.140625 
Q 60.5 52.203125 65.90625 52.203125 
Q 70.796875 52.203125 74.09375 50.640625 
Q 77.40625 49.09375 79.453125 46.09375 
Q 81.5 43.09375 82.34375 38.6875 
Q 83.203125 34.296875 83.203125 28.59375 
L 83.203125 -3.59375 
L 74.703125 -3.59375 
L 74.703125 28.90625 
Q 74.703125 37.296875 72.546875 41.390625 
Q 70.40625 45.5 64.703125 45.5 
Q 61.796875 45.5 59.09375 44.046875 
Q 56.40625 42.59375 54.296875 40.046875 
Q 52.203125 37.5 50.890625 34.046875 
Q 49.59375 30.59375 49.59375 26.5 
L 49.5 -3.59375 
L 41.203125 -3.59375 
L 41.203125 28.90625 
Q 41.203125 37.296875 39 41.390625 
Q 36.796875 45.5 31.09375 45.5 
Q 28.203125 45.5 25.453125 44.046875 
Q 22.703125 42.59375 20.546875 40.046875 
Q 18.40625 37.5 17.09375 34.046875 
Q 15.796875 30.59375 15.796875 26.5 
L 15.796875 -3.59375 
L 7.5 -3.59375 
L 7.5 51 
L 15.90625 51 
L 16.203125 42.796875 
L 16.296875 42.796875 
Q 17.5 45 19.25 46.75 
Q 21 48.5 23.09375 49.703125 
Q 25.203125 50.90625 27.546875 51.546875 
Q 29.90625 52.203125 32.296875 52.203125 
Q 39.203125 52.203125 42.796875 49.203125 
Q 46.40625 46.203125 48.09375 40 
z
" id="NanumBarunGothic-6d"/>
       <path d="M 16.09375 51 
L 16.40625 43.40625 
Q 19.59375 47.59375 23.59375 49.9375 
Q 27.59375 52.296875 33.203125 52.296875 
Q 44.703125 52.296875 50.453125 45.140625 
Q 56.203125 38 56.203125 25.203125 
Q 56.203125 18.703125 54.75 13.25 
Q 53.296875 7.796875 50.296875 3.84375 
Q 47.296875 -0.09375 42.75 -2.296875 
Q 38.203125 -4.5 32 -4.5 
Q 26.59375 -4.5 22.796875 -2.59375 
Q 19 -0.703125 16.296875 2.703125 
L 16.09375 2.703125 
L 16.09375 -28.09375 
L 7.5 -28.09375 
L 7.5 51 
z
M 15.90625 26 
L 15.90625 17.90625 
Q 15.90625 14.59375 17.046875 11.84375 
Q 18.203125 9.09375 20.25 7.046875 
Q 22.296875 5 25.09375 3.84375 
Q 27.90625 2.703125 31.203125 2.703125 
Q 38.703125 2.703125 42.953125 8.5 
Q 47.203125 14.296875 47.203125 25.203125 
Q 47.203125 34.796875 43.09375 40.1875 
Q 39 45.59375 32.203125 45.59375 
Q 28.40625 45.59375 25.34375 43.9375 
Q 22.296875 42.296875 20.1875 39.546875 
Q 18.09375 36.796875 17 33.25 
Q 15.90625 29.703125 15.90625 26 
z
" id="NanumBarunGothic-70"/>
      </defs>
      <g transform="translate(95.48524 392.770312)scale(0.1 -0.1)">
       <use xlink:href="#NanumBarunGothic-65"/>
       <use x="55.899994" xlink:href="#NanumBarunGothic-6c"/>
       <use x="80.299988" xlink:href="#NanumBarunGothic-65"/>
       <use x="136.199982" xlink:href="#NanumBarunGothic-63"/>
       <use x="185.199966" xlink:href="#NanumBarunGothic-74"/>
       <use x="220.899963" xlink:href="#NanumBarunGothic-72"/>
       <use x="259.199951" xlink:href="#NanumBarunGothic-6f"/>
       <use x="316.899948" xlink:href="#NanumBarunGothic-6e"/>
       <use x="376.099945" xlink:href="#NanumBarunGothic-69"/>
       <use x="400.499939" xlink:href="#NanumBarunGothic-63"/>
       <use x="449.499924" xlink:href="#NanumBarunGothic-20"/>
       <use x="471.899918" xlink:href="#NanumBarunGothic-63"/>
       <use x="520.899902" xlink:href="#NanumBarunGothic-6f"/>
       <use x="578.599899" xlink:href="#NanumBarunGothic-6d"/>
       <use x="667.799881" xlink:href="#NanumBarunGothic-70"/>
       <use x="726.599869" xlink:href="#NanumBarunGothic-6f"/>
       <use x="784.299866" xlink:href="#NanumBarunGothic-6e"/>
       <use x="843.499863" xlink:href="#NanumBarunGothic-65"/>
       <use x="899.399857" xlink:href="#NanumBarunGothic-6e"/>
       <use x="958.599854" xlink:href="#NanumBarunGothic-74"/>
      </g>
     </g>
    </g>
    <g id="xtick_2">
     <g id="line2d_2">
      <g>
       <use style="stroke:#000000;stroke-width:0.8;" x="257.101604" xlink:href="#md1fe837415" y="378"/>
      </g>
     </g>
     <g id="text_2">
      <!-- beverage -->
      <defs>
       <path d="M 16.296875 26.59375 
L 16.296875 18.90625 
Q 16.296875 15.203125 17.4375 12.203125 
Q 18.59375 9.203125 20.59375 7.046875 
Q 22.59375 4.90625 25.390625 3.75 
Q 28.203125 2.59375 31.40625 2.59375 
Q 38.796875 2.59375 42.796875 8.390625 
Q 46.796875 14.203125 46.796875 25.09375 
Q 46.796875 34.703125 42.9375 40.09375 
Q 39.09375 45.5 32.5 45.5 
Q 29.09375 45.5 26.140625 43.953125 
Q 23.203125 42.40625 21 39.796875 
Q 18.796875 37.203125 17.546875 33.75 
Q 16.296875 30.296875 16.296875 26.59375 
z
M 33.296875 52.296875 
Q 39.09375 52.296875 43.34375 50.296875 
Q 47.59375 48.296875 50.296875 44.6875 
Q 53 41.09375 54.296875 36.09375 
Q 55.59375 31.09375 55.59375 25.203125 
Q 55.59375 18.796875 54.1875 13.34375 
Q 52.796875 7.90625 49.890625 3.953125 
Q 47 0 42.546875 -2.25 
Q 38.09375 -4.5 32 -4.5 
Q 26.703125 -4.5 23.09375 -2.453125 
Q 19.5 -0.40625 16.90625 3.09375 
L 16.796875 3.09375 
L 16.5 -3.59375 
L 7.5 -3.59375 
L 7.5 77.703125 
L 16.09375 77.703125 
L 16.09375 42.703125 
L 16.296875 42.703125 
Q 18.90625 47.203125 23.25 49.75 
Q 27.59375 52.296875 33.296875 52.296875 
z
" id="NanumBarunGothic-62"/>
       <path d="M 42.703125 51 
L 51.703125 51 
L 30.40625 -3.59375 
L 22.5 -3.59375 
L 1.203125 51 
L 10.203125 51 
L 26.40625 6.703125 
z
" id="NanumBarunGothic-76"/>
       <path d="M 39.09375 18.59375 
L 39.09375 25.796875 
L 24.59375 24 
Q 19 23.203125 15.5 20.25 
Q 12 17.296875 12 11.703125 
Q 12 7.203125 15.046875 4.796875 
Q 18.09375 2.40625 22.90625 2.40625 
Q 26.09375 2.40625 29.046875 3.796875 
Q 32 5.203125 34.25 7.453125 
Q 36.5 9.703125 37.796875 12.59375 
Q 39.09375 15.5 39.09375 18.59375 
z
M 9.59375 39.296875 
Q 9.09375 38.796875 8.6875 38.9375 
Q 8.296875 39.09375 8.296875 39.90625 
L 8.296875 47.203125 
Q 12.5 50 17.703125 51.59375 
Q 22.90625 53.203125 28.40625 53.203125 
Q 38.203125 53.203125 42.75 48.703125 
Q 47.296875 44.203125 47.296875 33.90625 
L 47.296875 -3.59375 
L 39 -3.59375 
L 38.59375 4.296875 
L 38.5 4.296875 
Q 37.203125 2.09375 35.25 0.390625 
Q 33.296875 -1.296875 30.9375 -2.4375 
Q 28.59375 -3.59375 26.046875 -4.1875 
Q 23.5 -4.796875 21 -4.796875 
Q 17 -4.90625 13.640625 -3.90625 
Q 10.296875 -2.90625 7.890625 -0.90625 
Q 5.5 1.09375 4.203125 4.09375 
Q 2.90625 7.09375 2.90625 11 
Q 2.90625 18.59375 7.59375 23.640625 
Q 12.296875 28.703125 21.59375 30.09375 
L 38.796875 32.59375 
L 38.796875 33.5 
Q 38.796875 37.09375 38.09375 39.5 
Q 37.40625 41.90625 36 43.25 
Q 34.59375 44.59375 32.4375 45.140625 
Q 30.296875 45.703125 27.40625 45.703125 
Q 22.59375 45.703125 18.34375 44.09375 
Q 14.09375 42.5 9.59375 39.296875 
z
" id="NanumBarunGothic-61"/>
       <path d="M 42.59375 21.203125 
L 42.59375 28 
Q 42.59375 31.703125 41.296875 34.84375 
Q 40 38 37.84375 40.296875 
Q 35.703125 42.59375 32.75 43.890625 
Q 29.796875 45.203125 26.5 45.203125 
Q 19.296875 45.203125 15.34375 39.703125 
Q 11.40625 34.203125 11.40625 23.59375 
Q 11.40625 14.296875 15.5 9.1875 
Q 19.59375 4.09375 26.40625 4.09375 
Q 34.09375 4.09375 38.34375 8.84375 
Q 42.59375 13.59375 42.59375 21.203125 
z
M 24.09375 -21.296875 
Q 34.203125 -21.296875 38.390625 -16.046875 
Q 42.59375 -10.796875 42.59375 0.296875 
L 42.59375 5.796875 
Q 39.5 1 35.296875 -0.84375 
Q 31.09375 -2.703125 25.40625 -2.703125 
Q 19.703125 -2.703125 15.34375 -0.796875 
Q 11 1.09375 8.140625 4.546875 
Q 5.296875 8 3.84375 12.796875 
Q 2.40625 17.59375 2.40625 23.5 
Q 2.40625 37.203125 8.34375 44.75 
Q 14.296875 52.296875 25.5 52.296875 
Q 31.203125 52.296875 35.5 50.046875 
Q 39.796875 47.796875 42.09375 43.59375 
L 42.203125 43.59375 
L 42.5 51 
L 51.09375 51 
L 51.09375 1.40625 
Q 51.09375 -6.296875 49.59375 -11.9375 
Q 48.09375 -17.59375 44.84375 -21.296875 
Q 41.59375 -25 36.5 -26.75 
Q 31.40625 -28.5 24.203125 -28.5 
Q 18.90625 -28.5 14.90625 -27.5 
Q 10.90625 -26.5 6.90625 -24.5 
L 6.90625 -16.90625 
Q 6.90625 -15.59375 8 -16.40625 
Q 12.5 -19 16.34375 -20.140625 
Q 20.203125 -21.296875 24.09375 -21.296875 
z
" id="NanumBarunGothic-67"/>
      </defs>
      <g transform="translate(235.471136 392.770312)scale(0.1 -0.1)">
       <use xlink:href="#NanumBarunGothic-62"/>
       <use x="58.799988" xlink:href="#NanumBarunGothic-65"/>
       <use x="114.699982" xlink:href="#NanumBarunGothic-76"/>
       <use x="167.699966" xlink:href="#NanumBarunGothic-65"/>
       <use x="223.59996" xlink:href="#NanumBarunGothic-72"/>
       <use x="261.899948" xlink:href="#NanumBarunGothic-61"/>
       <use x="317.899933" xlink:href="#NanumBarunGothic-67"/>
       <use x="376.699921" xlink:href="#NanumBarunGothic-65"/>
      </g>
     </g>
    </g>
    <g id="xtick_3">
     <g id="line2d_3">
      <g>
       <use style="stroke:#000000;stroke-width:0.8;" x="369" xlink:href="#md1fe837415" y="378"/>
      </g>
     </g>
     <g id="text_3">
      <!-- pcb -->
      <g transform="translate(360.670313 392.770312)scale(0.1 -0.1)">
       <use xlink:href="#NanumBarunGothic-70"/>
       <use x="58.799988" xlink:href="#NanumBarunGothic-63"/>
       <use x="107.799973" xlink:href="#NanumBarunGothic-62"/>
      </g>
     </g>
    </g>
    <g id="xtick_4">
     <g id="line2d_4">
      <g>
       <use style="stroke:#000000;stroke-width:0.8;" x="480.898396" xlink:href="#md1fe837415" y="378"/>
      </g>
     </g>
     <g id="text_4">
      <!-- film -->
      <defs>
       <path d="M 34 71 
Q 32.796875 71.40625 31.59375 71.59375 
Q 30.40625 71.796875 29 71.796875 
Q 24.296875 71.796875 21.9375 69.34375 
Q 19.59375 66.90625 19.59375 60.203125 
L 19.59375 51 
L 32.703125 51 
L 32.703125 44.5 
L 19.59375 44.5 
L 19.59375 -3.59375 
L 11.09375 -3.59375 
L 11.09375 44.5 
L 1.5 44.5 
L 1.5 51 
L 11.09375 51 
L 11.09375 61.5 
Q 11.09375 66.09375 12.34375 69.390625 
Q 13.59375 72.703125 15.890625 74.796875 
Q 18.203125 76.90625 21.34375 77.90625 
Q 24.5 78.90625 28.40625 78.90625 
Q 30.5 78.90625 32.046875 78.59375 
Q 33.59375 78.296875 35 77.5 
L 35 71.703125 
Q 35 70.59375 34 71 
z
" id="NanumBarunGothic-66"/>
      </defs>
      <g transform="translate(472.297614 392.770312)scale(0.1 -0.1)">
       <use xlink:href="#NanumBarunGothic-66"/>
       <use x="33.999985" xlink:href="#NanumBarunGothic-69"/>
       <use x="58.399979" xlink:href="#NanumBarunGothic-6c"/>
       <use x="82.799973" xlink:href="#NanumBarunGothic-6d"/>
      </g>
     </g>
    </g>
    <g id="xtick_5">
     <g id="line2d_5">
      <g>
       <use style="stroke:#000000;stroke-width:0.8;" x="592.796791" xlink:href="#md1fe837415" y="378"/>
      </g>
     </g>
     <g id="text_5">
      <!-- display -->
      <defs>
       <path d="M 42.59375 20.203125 
L 42.59375 28.796875 
Q 42.59375 32.09375 41.5 35.046875 
Q 40.40625 38 38.40625 40.25 
Q 36.40625 42.5 33.65625 43.84375 
Q 30.90625 45.203125 27.59375 45.203125 
Q 20.203125 45.203125 16 39.390625 
Q 11.796875 33.59375 11.796875 22.59375 
Q 11.796875 13 15.890625 7.640625 
Q 20 2.296875 26.59375 2.296875 
Q 30.40625 2.296875 33.34375 3.6875 
Q 36.296875 5.09375 38.34375 7.5 
Q 40.40625 9.90625 41.5 13.15625 
Q 42.59375 16.40625 42.59375 20.203125 
z
M 42.09375 3.09375 
L 42 3.09375 
Q 39.09375 -1.40625 35 -2.953125 
Q 30.90625 -4.5 25.59375 -4.5 
Q 19.703125 -4.5 15.390625 -2.5 
Q 11.09375 -0.5 8.34375 3.09375 
Q 5.59375 6.703125 4.25 11.640625 
Q 2.90625 16.59375 2.90625 22.5 
Q 2.90625 28.5 4.296875 33.953125 
Q 5.703125 39.40625 8.640625 43.453125 
Q 11.59375 47.5 16.046875 49.890625 
Q 20.5 52.296875 26.59375 52.296875 
Q 31.90625 52.296875 35.90625 50.1875 
Q 39.90625 48.09375 42.703125 44.59375 
L 42.796875 44.59375 
L 42.796875 77.703125 
L 51.40625 77.703125 
L 51.40625 -3.59375 
L 42.40625 -3.59375 
z
" id="NanumBarunGothic-64"/>
       <path d="M 5 8 
Q 10.09375 5.09375 14.6875 3.546875 
Q 19.296875 2 23.09375 2 
Q 28.796875 2 31.796875 4.296875 
Q 34.796875 6.59375 34.796875 11.09375 
Q 34.796875 13.703125 32.640625 15.640625 
Q 30.5 17.59375 26.40625 19.296875 
L 20.296875 21.90625 
Q 12.90625 25.09375 9.25 28.796875 
Q 5.59375 32.5 5.59375 38.203125 
Q 5.59375 44.5 10.546875 48.390625 
Q 15.5 52.296875 24.59375 52.296875 
Q 29.09375 52.296875 33.25 51.140625 
Q 37.40625 50 41.59375 47.40625 
L 41.59375 40.09375 
Q 41.59375 38.703125 40.703125 39.59375 
Q 36.59375 42.703125 32.6875 44.203125 
Q 28.796875 45.703125 24.203125 45.703125 
Q 19.796875 45.703125 17.25 44.09375 
Q 14.703125 42.5 14.703125 38.796875 
Q 14.703125 34.90625 17 33 
Q 19.296875 31.09375 22.40625 29.90625 
L 29 27 
Q 32.203125 25.59375 34.953125 24.1875 
Q 37.703125 22.796875 39.703125 21 
Q 41.703125 19.203125 42.84375 16.84375 
Q 44 14.5 44 11.203125 
Q 44 7.40625 42.453125 4.40625 
Q 40.90625 1.40625 38.15625 -0.6875 
Q 35.40625 -2.796875 31.59375 -3.890625 
Q 27.796875 -5 23.296875 -5 
Q 18.203125 -5 13.296875 -3.75 
Q 8.40625 -2.5 4 0.40625 
L 4 7.296875 
Q 4 8.59375 5 8 
z
" id="NanumBarunGothic-73"/>
       <path d="M 3.09375 -27.796875 
L 3.09375 -21.796875 
Q 3.09375 -21 4.09375 -21.09375 
Q 5.203125 -21.40625 6.25 -21.5 
Q 7.296875 -21.59375 8.296875 -21.59375 
Q 11.59375 -21.59375 14.546875 -19.796875 
Q 17.5 -18 19.203125 -13.296875 
L 23 -3.90625 
L 23 -3.5 
L 0.703125 51 
L 10.296875 51 
L 26 9.296875 
L 27.296875 4.90625 
L 28.5 9.296875 
L 42.703125 51 
L 51.703125 51 
L 28.703125 -10 
Q 27.09375 -14.09375 25.34375 -17.5 
Q 23.59375 -20.90625 21.25 -23.34375 
Q 18.90625 -25.796875 15.90625 -27.140625 
Q 12.90625 -28.5 8.796875 -28.5 
Q 5.09375 -28.5 3.09375 -27.796875 
z
" id="NanumBarunGothic-79"/>
      </defs>
      <g transform="translate(576.651479 392.770312)scale(0.1 -0.1)">
       <use xlink:href="#NanumBarunGothic-64"/>
       <use x="58.799988" xlink:href="#NanumBarunGothic-69"/>
       <use x="83.199982" xlink:href="#NanumBarunGothic-73"/>
       <use x="130.699966" xlink:href="#NanumBarunGothic-70"/>
       <use x="189.499954" xlink:href="#NanumBarunGothic-6c"/>
       <use x="213.899948" xlink:href="#NanumBarunGothic-61"/>
       <use x="269.899933" xlink:href="#NanumBarunGothic-79"/>
      </g>
     </g>
    </g>
    <g id="text_6">
     <!-- target dataset -->
     <g transform="translate(336.578906 407.390625)scale(0.1 -0.1)">
      <use xlink:href="#NanumBarunGothic-74"/>
      <use x="35.699997" xlink:href="#NanumBarunGothic-61"/>
      <use x="91.699982" xlink:href="#NanumBarunGothic-72"/>
      <use x="129.999969" xlink:href="#NanumBarunGothic-67"/>
      <use x="188.799957" xlink:href="#NanumBarunGothic-65"/>
      <use x="244.699951" xlink:href="#NanumBarunGothic-74"/>
      <use x="280.399948" xlink:href="#NanumBarunGothic-20"/>
      <use x="302.799942" xlink:href="#NanumBarunGothic-64"/>
      <use x="361.59993" xlink:href="#NanumBarunGothic-61"/>
      <use x="417.599915" xlink:href="#NanumBarunGothic-74"/>
      <use x="453.299911" xlink:href="#NanumBarunGothic-61"/>
      <use x="509.299896" xlink:href="#NanumBarunGothic-73"/>
      <use x="556.799881" xlink:href="#NanumBarunGothic-65"/>
      <use x="612.699875" xlink:href="#NanumBarunGothic-74"/>
     </g>
    </g>
   </g>
   <g id="matplotlib.axis_2">
    <g id="ytick_1">
     <g id="line2d_6">
      <defs>
       <path d="M 0 0 
L -3.5 0 
" id="m3a28ec23a3" style="stroke:#000000;stroke-width:0.8;"/>
      </defs>
      <g>
       <use style="stroke:#000000;stroke-width:0.8;" x="90" xlink:href="#m3a28ec23a3" y="378"/>
      </g>
     </g>
     <g id="text_7">
      <!-- 0.00 -->
      <defs>
       <path d="M 29.203125 73.5 
Q 41.09375 73.5 47.4375 63.59375 
Q 53.796875 53.703125 53.796875 33.59375 
Q 53.796875 13.59375 47.390625 4.390625 
Q 41 -4.796875 29.203125 -4.796875 
Q 23.296875 -4.796875 18.6875 -2.546875 
Q 14.09375 -0.296875 10.9375 4.390625 
Q 7.796875 9.09375 6.1875 16.34375 
Q 4.59375 23.59375 4.59375 33.59375 
Q 4.59375 53.703125 10.9375 63.59375 
Q 17.296875 73.5 29.203125 73.5 
z
M 29.203125 66.5 
Q 13.296875 66.5 13.296875 33.40625 
Q 13.296875 16.90625 17.25 9.5 
Q 21.203125 2.09375 29.203125 2.09375 
Q 37.09375 2.09375 41.09375 9.5 
Q 45.09375 16.90625 45.09375 33.40625 
Q 45.09375 66.5 29.203125 66.5 
z
" id="NanumBarunGothic-30"/>
       <path d="M 13 8.296875 
Q 16 8.296875 17.890625 6.390625 
Q 19.796875 4.5 19.796875 1.59375 
Q 19.796875 -1.296875 17.890625 -3.1875 
Q 16 -5.09375 13 -5.09375 
Q 10 -5.09375 8.09375 -3.1875 
Q 6.203125 -1.296875 6.203125 1.59375 
Q 6.203125 4.5 8.09375 6.390625 
Q 10 8.296875 13 8.296875 
z
" id="NanumBarunGothic-2e"/>
      </defs>
      <g transform="translate(62.540625 381.885156)scale(0.1 -0.1)">
       <use xlink:href="#NanumBarunGothic-30"/>
       <use x="58.299988" xlink:href="#NanumBarunGothic-2e"/>
       <use x="87.999985" xlink:href="#NanumBarunGothic-30"/>
       <use x="146.299973" xlink:href="#NanumBarunGothic-30"/>
      </g>
     </g>
    </g>
    <g id="ytick_2">
     <g id="line2d_7">
      <g>
       <use style="stroke:#000000;stroke-width:0.8;" x="90" xlink:href="#m3a28ec23a3" y="311.911984"/>
      </g>
     </g>
     <g id="text_8">
      <!-- 0.05 -->
      <defs>
       <path d="M 6.796875 8.703125 
Q 11.59375 5.5 16.59375 3.953125 
Q 21.59375 2.40625 27.296875 2.40625 
Q 31.203125 2.5 34.5 3.84375 
Q 37.796875 5.203125 40.1875 7.5 
Q 42.59375 9.796875 43.9375 12.9375 
Q 45.296875 16.09375 45.296875 19.90625 
Q 45.296875 24.296875 43.640625 27.34375 
Q 42 30.40625 39.046875 32.296875 
Q 36.09375 34.203125 32.140625 35.046875 
Q 28.203125 35.90625 23.59375 35.90625 
Q 20.09375 35.90625 16.09375 35.40625 
Q 12.09375 34.90625 8.5 34.09375 
L 10.59375 71.796875 
L 49.796875 71.796875 
L 49.796875 64.90625 
L 17.796875 64.90625 
L 16.296875 41.703125 
L 16.5 41.703125 
Q 19.40625 42 22 42.203125 
Q 24.59375 42.40625 27.203125 42.40625 
Q 33.09375 42.40625 38 40.953125 
Q 42.90625 39.5 46.453125 36.75 
Q 50 34 51.953125 29.953125 
Q 53.90625 25.90625 53.90625 20.796875 
Q 53.90625 15.5 52.046875 10.84375 
Q 50.203125 6.203125 46.703125 2.796875 
Q 43.203125 -0.59375 38.203125 -2.546875 
Q 33.203125 -4.5 27 -4.5 
Q 20.296875 -4.40625 15.09375 -3.046875 
Q 9.90625 -1.703125 5.703125 1.296875 
L 5.703125 8.203125 
Q 5.703125 8.796875 6.046875 8.9375 
Q 6.40625 9.09375 6.796875 8.703125 
z
" id="NanumBarunGothic-35"/>
      </defs>
      <g transform="translate(62.540625 315.797141)scale(0.1 -0.1)">
       <use xlink:href="#NanumBarunGothic-30"/>
       <use x="58.299988" xlink:href="#NanumBarunGothic-2e"/>
       <use x="87.999985" xlink:href="#NanumBarunGothic-30"/>
       <use x="146.299973" xlink:href="#NanumBarunGothic-35"/>
      </g>
     </g>
    </g>
    <g id="ytick_3">
     <g id="line2d_8">
      <g>
       <use style="stroke:#000000;stroke-width:0.8;" x="90" xlink:href="#m3a28ec23a3" y="245.823969"/>
      </g>
     </g>
     <g id="text_9">
      <!-- 0.10 -->
      <defs>
       <path d="M 12.203125 55.40625 
L 12.203125 61.59375 
Q 16.296875 63.40625 19.9375 66.046875 
Q 23.59375 68.703125 26.703125 72.203125 
L 35.703125 72.203125 
L 35.703125 -3.59375 
L 27.09375 -3.59375 
L 27.09375 62.796875 
L 27 62.796875 
Q 23.59375 60.09375 20.140625 58.140625 
Q 16.703125 56.203125 13.203125 54.90625 
Q 12.203125 54.5 12.203125 55.40625 
z
" id="NanumBarunGothic-31"/>
      </defs>
      <g transform="translate(62.540625 249.709125)scale(0.1 -0.1)">
       <use xlink:href="#NanumBarunGothic-30"/>
       <use x="58.299988" xlink:href="#NanumBarunGothic-2e"/>
       <use x="87.999985" xlink:href="#NanumBarunGothic-31"/>
       <use x="146.299973" xlink:href="#NanumBarunGothic-30"/>
      </g>
     </g>
    </g>
    <g id="ytick_4">
     <g id="line2d_9">
      <g>
       <use style="stroke:#000000;stroke-width:0.8;" x="90" xlink:href="#m3a28ec23a3" y="179.735953"/>
      </g>
     </g>
     <g id="text_10">
      <!-- 0.15 -->
      <g transform="translate(62.540625 183.62111)scale(0.1 -0.1)">
       <use xlink:href="#NanumBarunGothic-30"/>
       <use x="58.299988" xlink:href="#NanumBarunGothic-2e"/>
       <use x="87.999985" xlink:href="#NanumBarunGothic-31"/>
       <use x="146.299973" xlink:href="#NanumBarunGothic-35"/>
      </g>
     </g>
    </g>
    <g id="ytick_5">
     <g id="line2d_10">
      <g>
       <use style="stroke:#000000;stroke-width:0.8;" x="90" xlink:href="#m3a28ec23a3" y="113.647938"/>
      </g>
     </g>
     <g id="text_11">
      <!-- 0.20 -->
      <defs>
       <path d="M 9.09375 57.703125 
Q 8 56.59375 8 58.09375 
L 8 65.59375 
Q 12.203125 68.90625 17.203125 71.203125 
Q 22.203125 73.5 28.90625 73.5 
Q 39.796875 73.5 45.4375 68.546875 
Q 51.09375 63.59375 51.09375 53.40625 
Q 51.09375 50 50 46.890625 
Q 48.90625 43.796875 46.953125 40.640625 
Q 45 37.5 42.25 34.09375 
Q 39.5 30.703125 36.203125 26.703125 
L 15.796875 3.5 
L 15.796875 3.40625 
L 52.203125 3.40625 
L 52.203125 -3.59375 
L 5.5 -3.59375 
L 5.5 3.90625 
L 28.796875 30.09375 
Q 32.703125 35.09375 35.296875 38.4375 
Q 37.90625 41.796875 39.453125 44.34375 
Q 41 46.90625 41.640625 49 
Q 42.296875 51.09375 42.296875 53.59375 
Q 42.296875 59.703125 39.140625 63.09375 
Q 36 66.5 29.09375 66.5 
Q 24.296875 66.5 19.296875 64.25 
Q 14.296875 62 9.09375 57.703125 
z
" id="NanumBarunGothic-32"/>
      </defs>
      <g transform="translate(62.540625 117.533094)scale(0.1 -0.1)">
       <use xlink:href="#NanumBarunGothic-30"/>
       <use x="58.299988" xlink:href="#NanumBarunGothic-2e"/>
       <use x="87.999985" xlink:href="#NanumBarunGothic-32"/>
       <use x="146.299973" xlink:href="#NanumBarunGothic-30"/>
      </g>
     </g>
    </g>
    <g id="text_12">
     <!-- error rate -->
     <g transform="translate(55.73125 236.760625)rotate(-90)scale(0.1 -0.1)">
      <use xlink:href="#NanumBarunGothic-65"/>
      <use x="55.899994" xlink:href="#NanumBarunGothic-72"/>
      <use x="94.199982" xlink:href="#NanumBarunGothic-72"/>
      <use x="132.499969" xlink:href="#NanumBarunGothic-6f"/>
      <use x="190.199966" xlink:href="#NanumBarunGothic-72"/>
      <use x="228.499954" xlink:href="#NanumBarunGothic-20"/>
      <use x="250.899948" xlink:href="#NanumBarunGothic-72"/>
      <use x="289.199936" xlink:href="#NanumBarunGothic-61"/>
      <use x="345.199921" xlink:href="#NanumBarunGothic-74"/>
      <use x="380.899918" xlink:href="#NanumBarunGothic-65"/>
     </g>
    </g>
   </g>
   <g id="patch_15">
    <path d="M 90 378 
L 90 51.84 
" style="fill:none;stroke:#000000;stroke-linecap:square;stroke-linejoin:miter;stroke-width:0.8;"/>
   </g>
   <g id="patch_16">
    <path d="M 648 378 
L 648 51.84 
" style="fill:none;stroke:#000000;stroke-linecap:square;stroke-linejoin:miter;stroke-width:0.8;"/>
   </g>
   <g id="patch_17">
    <path d="M 90 378 
L 648 378 
" style="fill:none;stroke:#000000;stroke-linecap:square;stroke-linejoin:miter;stroke-width:0.8;"/>
   </g>
   <g id="patch_18">
    <path d="M 90 51.84 
L 648 51.84 
" style="fill:none;stroke:#000000;stroke-linecap:square;stroke-linejoin:miter;stroke-width:0.8;"/>
   </g>
   <g id="text_13">
    <!-- 0.106 -->
    <defs>
     <path d="M 49.796875 62.90625 
Q 47 64.59375 43.703125 65.59375 
Q 40.40625 66.59375 36.59375 66.59375 
Q 31.296875 66.59375 27.09375 64.046875 
Q 22.90625 61.5 19.953125 57.140625 
Q 17 52.796875 15.34375 47.09375 
Q 13.703125 41.40625 13.5 35 
L 13.703125 35 
Q 14.703125 37.203125 16.390625 39.25 
Q 18.09375 41.296875 20.4375 42.84375 
Q 22.796875 44.40625 25.640625 45.296875 
Q 28.5 46.203125 31.796875 46.203125 
Q 37.203125 46.203125 41.34375 44.34375 
Q 45.5 42.5 48.34375 39.203125 
Q 51.203125 35.90625 52.703125 31.40625 
Q 54.203125 26.90625 54.203125 21.59375 
Q 54.203125 15.703125 52.453125 10.890625 
Q 50.703125 6.09375 47.453125 2.6875 
Q 44.203125 -0.703125 39.75 -2.546875 
Q 35.296875 -4.40625 29.90625 -4.40625 
Q 22.203125 -4.40625 17.390625 -1.15625 
Q 12.59375 2.09375 9.890625 7.1875 
Q 7.203125 12.296875 6.25 18.546875 
Q 5.296875 24.796875 5.296875 30.90625 
Q 5.296875 38.59375 7.046875 46.25 
Q 8.796875 53.90625 12.546875 59.953125 
Q 16.296875 66 22.1875 69.796875 
Q 28.09375 73.59375 36.40625 73.59375 
Q 40.59375 73.59375 44.09375 72.84375 
Q 47.59375 72.09375 50.703125 70.703125 
L 50.703125 63.296875 
Q 50.703125 62.203125 49.796875 62.90625 
z
M 14.296875 20.796875 
Q 14.296875 17.09375 15.34375 13.796875 
Q 16.40625 10.5 18.453125 8 
Q 20.5 5.5 23.390625 4 
Q 26.296875 2.5 29.90625 2.5 
Q 33.90625 2.5 36.84375 4.140625 
Q 39.796875 5.796875 41.6875 8.390625 
Q 43.59375 11 44.5 14.34375 
Q 45.40625 17.703125 45.40625 21.09375 
Q 45.40625 24.796875 44.5 28.09375 
Q 43.59375 31.40625 41.796875 33.84375 
Q 40 36.296875 37.203125 37.75 
Q 34.40625 39.203125 30.59375 39.203125 
Q 26.59375 39.203125 23.640625 37.75 
Q 20.703125 36.296875 18.703125 33.75 
Q 16.703125 31.203125 15.640625 27.84375 
Q 14.59375 24.5 14.296875 20.796875 
z
" id="NanumBarunGothic-36"/>
    </defs>
    <g transform="translate(130.283422 237.700859)scale(0.1 -0.1)">
     <use xlink:href="#NanumBarunGothic-30"/>
     <use x="58.299988" xlink:href="#NanumBarunGothic-2e"/>
     <use x="87.999985" xlink:href="#NanumBarunGothic-31"/>
     <use x="146.299973" xlink:href="#NanumBarunGothic-30"/>
     <use x="204.59996" xlink:href="#NanumBarunGothic-36"/>
    </g>
   </g>
   <g id="text_14">
    <!-- 0.111 -->
    <g transform="translate(160.122995 231.683742)scale(0.1 -0.1)">
     <use xlink:href="#NanumBarunGothic-30"/>
     <use x="58.299988" xlink:href="#NanumBarunGothic-2e"/>
     <use x="87.999985" xlink:href="#NanumBarunGothic-31"/>
     <use x="146.299973" xlink:href="#NanumBarunGothic-31"/>
     <use x="204.59996" xlink:href="#NanumBarunGothic-31"/>
    </g>
   </g>
   <g id="text_15">
    <!-- 0.103 -->
    <defs>
     <path d="M 28.703125 -4.5 
Q 22 -4.40625 15.84375 -2.40625 
Q 9.703125 -0.40625 5.90625 3.203125 
L 5.90625 10.40625 
Q 5.90625 11.09375 6.25 11.25 
Q 6.59375 11.40625 7.09375 10.90625 
Q 12.5 6.40625 17.75 4.453125 
Q 23 2.5 28.90625 2.5 
Q 32.203125 2.5 35 3.546875 
Q 37.796875 4.59375 39.890625 6.546875 
Q 42 8.5 43.203125 11.09375 
Q 44.40625 13.703125 44.40625 16.90625 
Q 44.40625 32.40625 25.796875 32.40625 
L 23.09375 32.40625 
L 23.09375 39.5 
L 24.296875 39.5 
Q 27.90625 39.59375 31.203125 40.25 
Q 34.5 40.90625 37 42.453125 
Q 39.5 44 41 46.703125 
Q 42.5 49.40625 42.5 53.703125 
Q 42.5 60.40625 38.546875 63.5 
Q 34.59375 66.59375 28.59375 66.59375 
Q 23.796875 66.59375 18.6875 64.6875 
Q 13.59375 62.796875 9.203125 58.90625 
Q 8.796875 58.59375 8.4375 58.6875 
Q 8.09375 58.796875 8.09375 59.40625 
L 8.09375 66.796875 
Q 9.59375 68.09375 11.6875 69.296875 
Q 13.796875 70.5 16.390625 71.453125 
Q 19 72.40625 22.046875 73 
Q 25.09375 73.59375 28.40625 73.59375 
Q 33.40625 73.59375 37.65625 72.390625 
Q 41.90625 71.203125 44.953125 68.75 
Q 48 66.296875 49.703125 62.640625 
Q 51.40625 59 51.40625 54.203125 
Q 51.40625 50.703125 50.40625 47.75 
Q 49.40625 44.796875 47.59375 42.4375 
Q 45.796875 40.09375 43.296875 38.5 
Q 40.796875 36.90625 37.796875 36.296875 
L 37.796875 36.09375 
Q 45 34.5 49.09375 30.046875 
Q 53.203125 25.59375 53.203125 17.203125 
Q 53.203125 13 51.640625 9.046875 
Q 50.09375 5.09375 47 2.09375 
Q 43.90625 -0.90625 39.34375 -2.703125 
Q 34.796875 -4.5 28.703125 -4.5 
z
" id="NanumBarunGothic-33"/>
    </defs>
    <g transform="translate(189.962567 241.5117)scale(0.1 -0.1)">
     <use xlink:href="#NanumBarunGothic-30"/>
     <use x="58.299988" xlink:href="#NanumBarunGothic-2e"/>
     <use x="87.999985" xlink:href="#NanumBarunGothic-31"/>
     <use x="146.299973" xlink:href="#NanumBarunGothic-30"/>
     <use x="204.59996" xlink:href="#NanumBarunGothic-33"/>
    </g>
   </g>
   <g id="text_16">
    <!-- 0.068 -->
    <defs>
     <path d="M 29.09375 2.5 
Q 32.5 2.5 35.546875 3.546875 
Q 38.59375 4.59375 40.890625 6.5 
Q 43.203125 8.40625 44.5 11.15625 
Q 45.796875 13.90625 45.796875 17.40625 
Q 45.796875 20.796875 44.5 23.640625 
Q 43.203125 26.5 40.890625 28.59375 
Q 38.59375 30.703125 35.546875 31.84375 
Q 32.5 33 29.09375 33 
Q 25.59375 33 22.59375 31.84375 
Q 19.59375 30.703125 17.296875 28.59375 
Q 15 26.5 13.703125 23.640625 
Q 12.40625 20.796875 12.40625 17.40625 
Q 12.40625 13.90625 13.703125 11.15625 
Q 15 8.40625 17.296875 6.5 
Q 19.59375 4.59375 22.59375 3.546875 
Q 25.59375 2.5 29.09375 2.5 
z
M 29.09375 40.203125 
Q 31.90625 40.203125 34.59375 41.09375 
Q 37.296875 42 39.390625 43.703125 
Q 41.5 45.40625 42.796875 47.90625 
Q 44.09375 50.40625 44.09375 53.59375 
Q 44.09375 56.703125 42.890625 59.203125 
Q 41.703125 61.703125 39.640625 63.5 
Q 37.59375 65.296875 34.890625 66.25 
Q 32.203125 67.203125 29.09375 67.203125 
Q 26 67.203125 23.296875 66.25 
Q 20.59375 65.296875 18.546875 63.5 
Q 16.5 61.703125 15.296875 59.203125 
Q 14.09375 56.703125 14.09375 53.59375 
Q 14.09375 50.40625 15.390625 47.90625 
Q 16.703125 45.40625 18.796875 43.703125 
Q 20.90625 42 23.59375 41.09375 
Q 26.296875 40.203125 29.09375 40.203125 
z
M 29.09375 -4.5 
Q 22.703125 -4.5 17.953125 -2.953125 
Q 13.203125 -1.40625 10.046875 1.34375 
Q 6.90625 4.09375 5.296875 7.890625 
Q 3.703125 11.703125 3.703125 16.09375 
Q 3.703125 23.40625 7.453125 28.796875 
Q 11.203125 34.203125 19.296875 36.296875 
L 19.296875 36.5 
Q 13 38.5 9.203125 42.84375 
Q 5.40625 47.203125 5.40625 53.5 
Q 5.40625 57.59375 6.84375 61.25 
Q 8.296875 64.90625 11.25 67.59375 
Q 14.203125 70.296875 18.640625 71.890625 
Q 23.09375 73.5 29.09375 73.5 
Q 35.09375 73.5 39.546875 71.890625 
Q 44 70.296875 46.953125 67.59375 
Q 49.90625 64.90625 51.34375 61.25 
Q 52.796875 57.59375 52.796875 53.5 
Q 52.796875 47.203125 49 42.84375 
Q 45.203125 38.5 38.90625 36.5 
L 38.90625 36.296875 
Q 47 34.203125 50.75 28.796875 
Q 54.5 23.40625 54.5 16.09375 
Q 54.5 11.703125 52.890625 7.890625 
Q 51.296875 4.09375 48.140625 1.34375 
Q 45 -1.40625 40.25 -2.953125 
Q 35.5 -4.5 29.09375 -4.5 
z
" id="NanumBarunGothic-38"/>
    </defs>
    <g transform="translate(242.181818 288.545149)scale(0.1 -0.1)">
     <use xlink:href="#NanumBarunGothic-30"/>
     <use x="58.299988" xlink:href="#NanumBarunGothic-2e"/>
     <use x="87.999985" xlink:href="#NanumBarunGothic-30"/>
     <use x="146.299973" xlink:href="#NanumBarunGothic-36"/>
     <use x="204.59996" xlink:href="#NanumBarunGothic-38"/>
    </g>
   </g>
   <g id="text_17">
    <!-- 0.064 -->
    <defs>
     <path d="M 2.09375 13.703125 
L 2.09375 22.203125 
L 35.296875 72.203125 
L 45.59375 72.203125 
L 45.59375 20.703125 
L 56.90625 20.703125 
L 56.90625 13.703125 
L 45.59375 13.703125 
L 45.59375 -3.59375 
L 37.09375 -3.59375 
L 37.09375 13.703125 
z
M 34.703125 59.296875 
L 9.296875 20.59375 
L 9.296875 20.5 
L 37.5 20.5 
L 37.5 59.09375 
L 37.59375 64.703125 
z
" id="NanumBarunGothic-34"/>
    </defs>
    <g transform="translate(272.02139 293.973808)scale(0.1 -0.1)">
     <use xlink:href="#NanumBarunGothic-30"/>
     <use x="58.299988" xlink:href="#NanumBarunGothic-2e"/>
     <use x="87.999985" xlink:href="#NanumBarunGothic-30"/>
     <use x="146.299973" xlink:href="#NanumBarunGothic-36"/>
     <use x="204.59996" xlink:href="#NanumBarunGothic-34"/>
    </g>
   </g>
   <g id="text_18">
    <!-- 0.079 -->
    <defs>
     <path d="M 23.09375 -3.59375 
L 14.203125 -3.59375 
L 44.40625 64.796875 
L 4.09375 64.796875 
L 4.09375 71.796875 
L 52.40625 71.796875 
L 52.40625 63.5 
z
" id="NanumBarunGothic-37"/>
     <path d="M 8.40625 -1.5 
L 8.40625 5.703125 
Q 8.40625 6.90625 9.296875 6.203125 
Q 12.203125 4.5 15.5 3.546875 
Q 18.796875 2.59375 22.5 2.59375 
Q 27.796875 2.59375 32 4.84375 
Q 36.203125 7.09375 39.140625 11.25 
Q 42.09375 15.40625 43.75 21.203125 
Q 45.40625 27 45.59375 34.09375 
L 45.40625 34.09375 
Q 44.40625 31.90625 42.65625 29.90625 
Q 40.90625 27.90625 38.59375 26.34375 
Q 36.296875 24.796875 33.390625 23.890625 
Q 30.5 23 27.296875 23 
Q 21.703125 23 17.5 24.84375 
Q 13.296875 26.703125 10.5 29.953125 
Q 7.703125 33.203125 6.296875 37.703125 
Q 4.90625 42.203125 4.90625 47.5 
Q 4.90625 53.40625 6.65625 58.203125 
Q 8.40625 63 11.59375 66.453125 
Q 14.796875 69.90625 19.25 71.75 
Q 23.703125 73.59375 29.09375 73.59375 
Q 36.796875 73.59375 41.640625 70.34375 
Q 46.5 67.09375 49.203125 62 
Q 51.90625 56.90625 52.84375 50.59375 
Q 53.796875 44.296875 53.796875 38.203125 
Q 53.796875 30.09375 52.046875 22.4375 
Q 50.296875 14.796875 46.546875 8.84375 
Q 42.796875 2.90625 36.890625 -0.75 
Q 31 -4.40625 22.703125 -4.40625 
Q 14.296875 -4.40625 8.40625 -1.5 
z
M 44.796875 48.40625 
Q 44.796875 52.09375 43.6875 55.390625 
Q 42.59375 58.703125 40.59375 61.203125 
Q 38.59375 63.703125 35.6875 65.203125 
Q 32.796875 66.703125 29.09375 66.703125 
Q 25.09375 66.703125 22.1875 65.046875 
Q 19.296875 63.40625 17.390625 60.796875 
Q 15.5 58.203125 14.59375 54.796875 
Q 13.703125 51.40625 13.703125 48 
Q 13.703125 44.296875 14.5 41 
Q 15.296875 37.703125 17.09375 35.25 
Q 18.90625 32.796875 21.703125 31.34375 
Q 24.5 29.90625 28.5 29.90625 
Q 32.5 29.90625 35.453125 31.34375 
Q 38.40625 32.796875 40.40625 35.34375 
Q 42.40625 37.90625 43.453125 41.25 
Q 44.5 44.59375 44.796875 48.40625 
z
" id="NanumBarunGothic-39"/>
    </defs>
    <g transform="translate(354.080214 273.260343)scale(0.1 -0.1)">
     <use xlink:href="#NanumBarunGothic-30"/>
     <use x="58.299988" xlink:href="#NanumBarunGothic-2e"/>
     <use x="87.999985" xlink:href="#NanumBarunGothic-30"/>
     <use x="146.299973" xlink:href="#NanumBarunGothic-37"/>
     <use x="204.59996" xlink:href="#NanumBarunGothic-39"/>
    </g>
   </g>
   <g id="text_19">
    <!-- 0.074 -->
    <g transform="translate(383.919786 279.880086)scale(0.1 -0.1)">
     <use xlink:href="#NanumBarunGothic-30"/>
     <use x="58.299988" xlink:href="#NanumBarunGothic-2e"/>
     <use x="87.999985" xlink:href="#NanumBarunGothic-30"/>
     <use x="146.299973" xlink:href="#NanumBarunGothic-37"/>
     <use x="204.59996" xlink:href="#NanumBarunGothic-34"/>
    </g>
   </g>
   <g id="text_20">
    <!-- 0.084 -->
    <g transform="translate(413.759358 267.40652)scale(0.1 -0.1)">
     <use xlink:href="#NanumBarunGothic-30"/>
     <use x="58.299988" xlink:href="#NanumBarunGothic-2e"/>
     <use x="87.999985" xlink:href="#NanumBarunGothic-30"/>
     <use x="146.299973" xlink:href="#NanumBarunGothic-38"/>
     <use x="204.59996" xlink:href="#NanumBarunGothic-34"/>
    </g>
   </g>
   <g id="text_21">
    <!-- 0.074 -->
    <g transform="translate(465.97861 280.20146)scale(0.1 -0.1)">
     <use xlink:href="#NanumBarunGothic-30"/>
     <use x="58.299988" xlink:href="#NanumBarunGothic-2e"/>
     <use x="87.999985" xlink:href="#NanumBarunGothic-30"/>
     <use x="146.299973" xlink:href="#NanumBarunGothic-37"/>
     <use x="204.59996" xlink:href="#NanumBarunGothic-34"/>
    </g>
   </g>
   <g id="text_22">
    <!-- 0.076 -->
    <g transform="translate(495.818182 277.966776)scale(0.1 -0.1)">
     <use xlink:href="#NanumBarunGothic-30"/>
     <use x="58.299988" xlink:href="#NanumBarunGothic-2e"/>
     <use x="87.999985" xlink:href="#NanumBarunGothic-30"/>
     <use x="146.299973" xlink:href="#NanumBarunGothic-37"/>
     <use x="204.59996" xlink:href="#NanumBarunGothic-36"/>
    </g>
   </g>
   <g id="text_23">
    <!-- 0.235 -->
    <g transform="translate(577.877005 67.371429)scale(0.1 -0.1)">
     <use xlink:href="#NanumBarunGothic-30"/>
     <use x="58.299988" xlink:href="#NanumBarunGothic-2e"/>
     <use x="87.999985" xlink:href="#NanumBarunGothic-32"/>
     <use x="146.299973" xlink:href="#NanumBarunGothic-33"/>
     <use x="204.59996" xlink:href="#NanumBarunGothic-35"/>
    </g>
   </g>
   <g id="text_24">
    <!-- 0.216 -->
    <g transform="translate(607.716578 93.141287)scale(0.1 -0.1)">
     <use xlink:href="#NanumBarunGothic-30"/>
     <use x="58.299988" xlink:href="#NanumBarunGothic-2e"/>
     <use x="87.999985" xlink:href="#NanumBarunGothic-32"/>
     <use x="146.299973" xlink:href="#NanumBarunGothic-31"/>
     <use x="204.59996" xlink:href="#NanumBarunGothic-36"/>
    </g>
   </g>
   <g id="legend_1">
    <g id="patch_19">
     <path d="M 97 106.700938 
L 343.89375 106.700938 
Q 345.89375 106.700938 345.89375 104.700938 
L 345.89375 58.84 
Q 345.89375 56.84 343.89375 56.84 
L 97 56.84 
Q 95 56.84 95 58.84 
L 95 104.700938 
Q 95 106.700938 97 106.700938 
z
" style="fill:#ffffff;opacity:0.8;stroke:#cccccc;stroke-linejoin:miter;"/>
    </g>
    <g id="patch_20">
     <path d="M 99 68.610313 
L 119 68.610313 
L 119 61.610313 
L 99 61.610313 
z
" style="fill:#ff0000;"/>
    </g>
    <g id="text_25">
     <!-- ImageNet_SRISC_pre-trained -->
     <defs>
      <path d="M 17.296875 72.09375 
L 17.296875 -3.59375 
L 8.5 -3.59375 
L 8.5 72.09375 
z
" id="NanumBarunGothic-49"/>
      <path d="M 22 72.09375 
L 50.90625 13.5 
L 54.09375 5.796875 
L 54 13.703125 
L 54 72.09375 
L 62.296875 72.09375 
L 62.296875 -3.59375 
L 49.90625 -3.59375 
L 19.796875 57.796875 
L 16.59375 65 
L 16.703125 57.09375 
L 16.703125 -3.59375 
L 8.5 -3.59375 
L 8.5 72.09375 
z
" id="NanumBarunGothic-4e"/>
      <path d="M 43.59375 -15 
L 1 -15 
L 1 -8.40625 
L 43.59375 -8.40625 
z
" id="NanumBarunGothic-5f"/>
      <path d="M 5.796875 2.09375 
L 5.796875 11.796875 
Q 5.796875 12.40625 6.09375 12.546875 
Q 6.40625 12.703125 6.90625 12.203125 
Q 11.5 7.40625 16.296875 5.40625 
Q 21.09375 3.40625 27.203125 3.40625 
Q 35.40625 3.40625 39.5 6.5 
Q 43.59375 9.59375 43.59375 16.5 
Q 43.59375 19 42.640625 21.046875 
Q 41.703125 23.09375 39.953125 24.796875 
Q 38.203125 26.5 35.75 28 
Q 33.296875 29.5 30.296875 30.90625 
L 23.203125 34 
Q 19.40625 35.59375 16.296875 37.5 
Q 13.203125 39.40625 11 41.796875 
Q 8.796875 44.203125 7.59375 47.34375 
Q 6.40625 50.5 6.40625 54.59375 
Q 6.40625 59.296875 8.296875 62.796875 
Q 10.203125 66.296875 13.453125 68.59375 
Q 16.703125 70.90625 21.046875 72.046875 
Q 25.40625 73.203125 30.40625 73.203125 
Q 35.203125 73.203125 40.296875 71.953125 
Q 45.40625 70.703125 49.5 67.796875 
L 49.5 60.40625 
Q 49.5 59.59375 49.140625 59.4375 
Q 48.796875 59.296875 48.296875 59.796875 
Q 44.203125 62.703125 40.140625 64.09375 
Q 36.09375 65.5 30.796875 65.5 
Q 23.703125 65.5 19.703125 62.953125 
Q 15.703125 60.40625 15.703125 54.90625 
Q 15.703125 52.40625 16.59375 50.40625 
Q 17.5 48.40625 19.09375 46.84375 
Q 20.703125 45.296875 22.890625 44.09375 
Q 25.09375 42.90625 27.59375 42 
L 34.796875 38.796875 
Q 44 34.703125 48.640625 29.640625 
Q 53.296875 24.59375 53.296875 17.09375 
Q 53.296875 11.5 51.390625 7.453125 
Q 49.5 3.40625 46.046875 0.75 
Q 42.59375 -1.90625 37.75 -3.203125 
Q 32.90625 -4.5 27 -4.5 
Q 20.40625 -4.5 15.15625 -3 
Q 9.90625 -1.5 5.796875 2.09375 
z
" id="NanumBarunGothic-53"/>
      <path d="M 40.203125 28.703125 
L 58.90625 -3.59375 
L 47.703125 -3.59375 
L 32 27.09375 
L 17.296875 27.09375 
L 17.296875 -3.59375 
L 8.5 -3.59375 
L 8.5 72.09375 
L 30 72.09375 
Q 42.90625 72.09375 49.59375 66.25 
Q 56.296875 60.40625 56.296875 50.59375 
Q 56.296875 41.5 52.140625 36.203125 
Q 48 30.90625 40.203125 28.703125 
z
M 47.296875 50.40625 
Q 47.296875 54.203125 46 56.890625 
Q 44.703125 59.59375 42.453125 61.34375 
Q 40.203125 63.09375 37.25 63.890625 
Q 34.296875 64.703125 30.90625 64.703125 
L 17.203125 64.703125 
L 17.203125 34.09375 
L 27.703125 34.09375 
Q 32.59375 34.09375 36.25 34.890625 
Q 39.90625 35.703125 42.34375 37.546875 
Q 44.796875 39.40625 46.046875 42.546875 
Q 47.296875 45.703125 47.296875 50.40625 
z
" id="NanumBarunGothic-52"/>
      <path d="M 60.09375 12.5 
Q 61.40625 13.5 61.40625 12.09375 
L 61.40625 3.296875 
Q 56.703125 -0.703125 50.796875 -2.59375 
Q 44.90625 -4.5 37.796875 -4.5 
Q 29.703125 -4.5 23.34375 -1.703125 
Q 17 1.09375 12.546875 6.1875 
Q 8.09375 11.296875 5.796875 18.390625 
Q 3.5 25.5 3.5 34.203125 
Q 3.5 43.203125 6.140625 50.390625 
Q 8.796875 57.59375 13.546875 62.640625 
Q 18.296875 67.703125 24.796875 70.34375 
Q 31.296875 73 39 73 
Q 45.59375 73 50.890625 71.546875 
Q 56.203125 70.09375 60.796875 66.5 
L 60.796875 57.296875 
Q 60.796875 56.59375 60.390625 56.5 
Q 60 56.40625 59.5 56.90625 
Q 51.703125 65.5 39.59375 65.5 
Q 34 65.5 29.09375 63.5 
Q 24.203125 61.5 20.59375 57.59375 
Q 17 53.703125 14.890625 47.953125 
Q 12.796875 42.203125 12.796875 34.703125 
Q 12.796875 19.09375 19.640625 11.140625 
Q 26.5 3.203125 39.296875 3.203125 
Q 51.296875 3.203125 60.09375 12.5 
z
" id="NanumBarunGothic-43"/>
      <path d="M 50.203125 40.296875 
L 50.203125 32.796875 
L 8.09375 32.796875 
L 8.09375 40.296875 
z
" id="NanumBarunGothic-2d"/>
     </defs>
     <g transform="translate(127 68.610313)scale(0.1 -0.1)">
      <use xlink:href="#NanumBarunGothic-49"/>
      <use x="24.699997" xlink:href="#NanumBarunGothic-6d"/>
      <use x="113.899979" xlink:href="#NanumBarunGothic-61"/>
      <use x="169.899963" xlink:href="#NanumBarunGothic-67"/>
      <use x="228.699951" xlink:href="#NanumBarunGothic-65"/>
      <use x="284.599945" xlink:href="#NanumBarunGothic-4e"/>
      <use x="355.59993" xlink:href="#NanumBarunGothic-65"/>
      <use x="411.499924" xlink:href="#NanumBarunGothic-74"/>
      <use x="447.199921" xlink:href="#NanumBarunGothic-5f"/>
      <use x="491.799911" xlink:href="#NanumBarunGothic-53"/>
      <use x="550.999908" xlink:href="#NanumBarunGothic-52"/>
      <use x="611.999893" xlink:href="#NanumBarunGothic-49"/>
      <use x="636.69989" xlink:href="#NanumBarunGothic-53"/>
      <use x="695.899887" xlink:href="#NanumBarunGothic-43"/>
      <use x="759.799881" xlink:href="#NanumBarunGothic-5f"/>
      <use x="804.399872" xlink:href="#NanumBarunGothic-70"/>
      <use x="863.19986" xlink:href="#NanumBarunGothic-72"/>
      <use x="901.499847" xlink:href="#NanumBarunGothic-65"/>
      <use x="957.399841" xlink:href="#NanumBarunGothic-2d"/>
      <use x="1015.699829" xlink:href="#NanumBarunGothic-74"/>
      <use x="1051.399826" xlink:href="#NanumBarunGothic-72"/>
      <use x="1089.699814" xlink:href="#NanumBarunGothic-61"/>
      <use x="1145.699799" xlink:href="#NanumBarunGothic-69"/>
      <use x="1170.099792" xlink:href="#NanumBarunGothic-6e"/>
      <use x="1229.299789" xlink:href="#NanumBarunGothic-65"/>
      <use x="1285.199783" xlink:href="#NanumBarunGothic-64"/>
     </g>
    </g>
    <g id="patch_21">
     <path d="M 99 84.230625 
L 119 84.230625 
L 119 77.230625 
L 99 77.230625 
z
" style="fill:#800080;"/>
    </g>
    <g id="text_26">
     <!-- ImageNet_Adapative-SRISC_pre-trained -->
     <defs>
      <path d="M 37.5 72.09375 
L 63.40625 -3.59375 
L 54.296875 -3.59375 
L 47.5 18 
L 16.59375 18 
L 9.703125 -3.59375 
L 0.59375 -3.59375 
L 26.40625 72.09375 
z
M 31.703125 65.296875 
L 31.59375 65.296875 
L 19.203125 25.203125 
L 44.796875 25.203125 
z
" id="NanumBarunGothic-41"/>
     </defs>
     <g transform="translate(127 84.230625)scale(0.1 -0.1)">
      <use xlink:href="#NanumBarunGothic-49"/>
      <use x="24.699997" xlink:href="#NanumBarunGothic-6d"/>
      <use x="113.899979" xlink:href="#NanumBarunGothic-61"/>
      <use x="169.899963" xlink:href="#NanumBarunGothic-67"/>
      <use x="228.699951" xlink:href="#NanumBarunGothic-65"/>
      <use x="284.599945" xlink:href="#NanumBarunGothic-4e"/>
      <use x="355.59993" xlink:href="#NanumBarunGothic-65"/>
      <use x="411.499924" xlink:href="#NanumBarunGothic-74"/>
      <use x="447.199921" xlink:href="#NanumBarunGothic-5f"/>
      <use x="491.799911" xlink:href="#NanumBarunGothic-41"/>
      <use x="556.199905" xlink:href="#NanumBarunGothic-64"/>
      <use x="614.999893" xlink:href="#NanumBarunGothic-61"/>
      <use x="670.999878" xlink:href="#NanumBarunGothic-70"/>
      <use x="729.799866" xlink:href="#NanumBarunGothic-61"/>
      <use x="785.79985" xlink:href="#NanumBarunGothic-74"/>
      <use x="821.499847" xlink:href="#NanumBarunGothic-69"/>
      <use x="845.899841" xlink:href="#NanumBarunGothic-76"/>
      <use x="898.899826" xlink:href="#NanumBarunGothic-65"/>
      <use x="954.79982" xlink:href="#NanumBarunGothic-2d"/>
      <use x="1013.099808" xlink:href="#NanumBarunGothic-53"/>
      <use x="1072.299805" xlink:href="#NanumBarunGothic-52"/>
      <use x="1133.299789" xlink:href="#NanumBarunGothic-49"/>
      <use x="1157.999786" xlink:href="#NanumBarunGothic-53"/>
      <use x="1217.199783" xlink:href="#NanumBarunGothic-43"/>
      <use x="1281.099777" xlink:href="#NanumBarunGothic-5f"/>
      <use x="1325.699768" xlink:href="#NanumBarunGothic-70"/>
      <use x="1384.499756" xlink:href="#NanumBarunGothic-72"/>
      <use x="1422.799744" xlink:href="#NanumBarunGothic-65"/>
      <use x="1478.699738" xlink:href="#NanumBarunGothic-2d"/>
      <use x="1536.999725" xlink:href="#NanumBarunGothic-74"/>
      <use x="1572.699722" xlink:href="#NanumBarunGothic-72"/>
      <use x="1610.99971" xlink:href="#NanumBarunGothic-61"/>
      <use x="1666.999695" xlink:href="#NanumBarunGothic-69"/>
      <use x="1691.399689" xlink:href="#NanumBarunGothic-6e"/>
      <use x="1750.599686" xlink:href="#NanumBarunGothic-65"/>
      <use x="1806.49968" xlink:href="#NanumBarunGothic-64"/>
     </g>
    </g>
    <g id="patch_22">
     <path d="M 99 99.850938 
L 119 99.850938 
L 119 92.850938 
L 99 92.850938 
z
" style="fill:#ffc0cb;"/>
    </g>
    <g id="text_27">
     <!-- ImageNet_Human-curated-SRISC_pre-trained -->
     <defs>
      <path d="M 63 72.09375 
L 63 -3.59375 
L 54.203125 -3.59375 
L 54.203125 34.296875 
L 17.296875 34.296875 
L 17.296875 -3.59375 
L 8.5 -3.59375 
L 8.5 72.09375 
L 17.296875 72.09375 
L 17.296875 41.796875 
L 54.203125 41.796875 
L 54.203125 72.09375 
z
" id="NanumBarunGothic-48"/>
      <path d="M 6.5 18.703125 
L 6.5 51 
L 15.09375 51 
L 15.09375 18.5 
Q 15.09375 10.203125 17.796875 6.09375 
Q 20.5 2 27 2 
Q 30.296875 2 33.25 3.34375 
Q 36.203125 4.703125 38.453125 7.09375 
Q 40.703125 9.5 42.046875 12.890625 
Q 43.40625 16.296875 43.40625 20.40625 
L 43.40625 51 
L 51.90625 51 
L 51.90625 -3.59375 
L 43.296875 -3.59375 
L 42.90625 4.296875 
L 42.796875 4.296875 
Q 40.203125 -0.09375 35.640625 -2.4375 
Q 31.09375 -4.796875 26 -4.796875 
Q 20.796875 -4.796875 17.09375 -3.1875 
Q 13.40625 -1.59375 11.046875 1.453125 
Q 8.703125 4.5 7.59375 8.84375 
Q 6.5 13.203125 6.5 18.703125 
z
" id="NanumBarunGothic-75"/>
     </defs>
     <g transform="translate(127 99.850938)scale(0.1 -0.1)">
      <use xlink:href="#NanumBarunGothic-49"/>
      <use x="24.699997" xlink:href="#NanumBarunGothic-6d"/>
      <use x="113.899979" xlink:href="#NanumBarunGothic-61"/>
      <use x="169.899963" xlink:href="#NanumBarunGothic-67"/>
      <use x="228.699951" xlink:href="#NanumBarunGothic-65"/>
      <use x="284.599945" xlink:href="#NanumBarunGothic-4e"/>
      <use x="355.59993" xlink:href="#NanumBarunGothic-65"/>
      <use x="411.499924" xlink:href="#NanumBarunGothic-74"/>
      <use x="447.199921" xlink:href="#NanumBarunGothic-5f"/>
      <use x="491.799911" xlink:href="#NanumBarunGothic-48"/>
      <use x="563.599899" xlink:href="#NanumBarunGothic-75"/>
      <use x="622.799896" xlink:href="#NanumBarunGothic-6d"/>
      <use x="711.999878" xlink:href="#NanumBarunGothic-61"/>
      <use x="767.999863" xlink:href="#NanumBarunGothic-6e"/>
      <use x="827.19986" xlink:href="#NanumBarunGothic-2d"/>
      <use x="885.499847" xlink:href="#NanumBarunGothic-63"/>
      <use x="934.499832" xlink:href="#NanumBarunGothic-75"/>
      <use x="993.699829" xlink:href="#NanumBarunGothic-72"/>
      <use x="1031.999817" xlink:href="#NanumBarunGothic-61"/>
      <use x="1087.999802" xlink:href="#NanumBarunGothic-74"/>
      <use x="1123.699799" xlink:href="#NanumBarunGothic-65"/>
      <use x="1179.599792" xlink:href="#NanumBarunGothic-64"/>
      <use x="1238.39978" xlink:href="#NanumBarunGothic-2d"/>
      <use x="1296.699768" xlink:href="#NanumBarunGothic-53"/>
      <use x="1355.899765" xlink:href="#NanumBarunGothic-52"/>
      <use x="1416.89975" xlink:href="#NanumBarunGothic-49"/>
      <use x="1441.599747" xlink:href="#NanumBarunGothic-53"/>
      <use x="1500.799744" xlink:href="#NanumBarunGothic-43"/>
      <use x="1564.699738" xlink:href="#NanumBarunGothic-5f"/>
      <use x="1609.299728" xlink:href="#NanumBarunGothic-70"/>
      <use x="1668.099716" xlink:href="#NanumBarunGothic-72"/>
      <use x="1706.399704" xlink:href="#NanumBarunGothic-65"/>
      <use x="1762.299698" xlink:href="#NanumBarunGothic-2d"/>
      <use x="1820.599686" xlink:href="#NanumBarunGothic-74"/>
      <use x="1856.299683" xlink:href="#NanumBarunGothic-72"/>
      <use x="1894.59967" xlink:href="#NanumBarunGothic-61"/>
      <use x="1950.599655" xlink:href="#NanumBarunGothic-69"/>
      <use x="1974.999649" xlink:href="#NanumBarunGothic-6e"/>
      <use x="2034.199646" xlink:href="#NanumBarunGothic-65"/>
      <use x="2090.09964" xlink:href="#NanumBarunGothic-64"/>
     </g>
    </g>
   </g>
  </g>
 </g>
 <defs>
  <clipPath id="pf88045a808">
   <rect height="326.16" width="558" x="90" y="51.84"/>
  </clipPath>
 </defs>
</svg>
