<svg width="935" height="325" xmlns="http://www.w3.org/2000/svg" xmlns:xlink="http://www.w3.org/1999/xlink" overflow="hidden"><defs><clipPath id="clip0"><path d="M12 74 947 74 947 399 12 399Z" fill-rule="evenodd" clip-rule="evenodd"/></clipPath></defs><g clip-path="url(#clip0)" transform="translate(-12 -74)"><path d="M31.5001 258C31.5001 191.45 104.254 137.5 194 137.5 283.746 137.5 356.5 191.45 356.5 258 356.5 324.55 283.746 378.5 194 378.5 104.254 378.5 31.5001 324.55 31.5001 258Z" stroke="#595959" stroke-linejoin="round" stroke-miterlimit="10" fill="#EEEEEE" fill-rule="evenodd"/><text font-family="Arial,Arial_MSFontService,sans-serif" font-weight="400" font-size="21" transform="translate(161.681 265)">source</text><path d="M730.5 262.5C730.5 222.736 776.167 190.5 832.5 190.5 888.833 190.5 934.5 222.736 934.5 262.5 934.5 302.265 888.833 334.5 832.5 334.5 776.167 334.5 730.5 302.265 730.5 262.5Z" stroke="#595959" stroke-linejoin="round" stroke-miterlimit="10" fill="#EEEEEE" fill-rule="evenodd"/><text font-family="Arial,Arial_MSFontService,sans-serif" font-weight="400" font-size="21" transform="translate(804.516 270)">target</text><path d="M0.00649296-0.499958 78.2223 0.515832 78.2093 1.51575-0.00649296 0.499958ZM76.9345-3.00119 84.8819 1.10236 76.8306 4.99814Z" fill="#595959" transform="matrix(1 -0 -0 -1 371.5 258.602)"/><path d="M629.5 259 711.684 259 711.684 260 629.5 260ZM710.35 255.5 718.35 259.5 710.35 263.5Z" fill="#595959"/><path d="M484.5 203.5 614.5 240.923 614.5 286.077 484.5 323.5Z" stroke="#595959" stroke-linejoin="round" stroke-miterlimit="10" fill="#EEEEEE" fill-rule="evenodd"/><text font-family="Arial,Arial_MSFontService,sans-serif" font-weight="400" font-size="21" transform="translate(494.819 269)">knowledge</text><rect x="17.5001" y="126.5" width="446" height="271" stroke="#595959" stroke-linejoin="round" stroke-miterlimit="10" stroke-dasharray="4 3" fill="none"/><rect x="470.5" y="176.5" width="476" height="166" stroke="#595959" stroke-linejoin="round" stroke-miterlimit="10" stroke-dasharray="4 3" fill="none"/><text font-family="Arial,Arial_MSFontService,sans-serif" font-weight="400" font-size="24" transform="translate(26.5932 107)">(1) how to select source<tspan x="603.559" y="261">(3) how to apply knowledge </tspan><tspan x="413.764" y="5">(2) what is knowledge</tspan></text><rect x="466.5" y="127.5" width="160" height="270" stroke="#595959" stroke-linejoin="round" stroke-miterlimit="10" stroke-dasharray="4 3" fill="none"/></g></svg>