<?xml version="1.0" encoding="UTF-8" standalone="no"?>
<!-- Created with Inkscape (http://www.inkscape.org/) -->

<svg
   xmlns:dc="http://purl.org/dc/elements/1.1/"
   xmlns:cc="http://creativecommons.org/ns#"
   xmlns:rdf="http://www.w3.org/1999/02/22-rdf-syntax-ns#"
   xmlns:svg="http://www.w3.org/2000/svg"
   xmlns="http://www.w3.org/2000/svg"
   xmlns:sodipodi="http://sodipodi.sourceforge.net/DTD/sodipodi-0.dtd"
   xmlns:inkscape="http://www.inkscape.org/namespaces/inkscape"
   width="173.75655mm"
   height="58.260136mm"
   viewBox="0 0 173.75655 58.260136"
   version="1.1"
   id="svg55197"
   inkscape:version="0.92.3 (unknown)"
   sodipodi:docname="bip-objective-and-constraints.svg"
   inkscape:export-filename="bip-objective-and-constraints.png"
   inkscape:export-xdpi="99.838425"
   inkscape:export-ydpi="99.838425">
  <sodipodi:namedview
     id="base"
     pagecolor="#ffffff"
     bordercolor="#666666"
     borderopacity="1.0"
     inkscape:pageopacity="0.0"
     inkscape:pageshadow="2"
     inkscape:zoom="0.98994949"
     inkscape:cx="212.63285"
     inkscape:cy="159.25268"
     inkscape:document-units="mm"
     inkscape:current-layer="layer1"
     showgrid="false"
     inkscape:window-width="1920"
     inkscape:window-height="1056"
     inkscape:window-x="3840"
     inkscape:window-y="24"
     inkscape:window-maximized="1"
     inkscape:snap-global="false" />
  <defs
     id="defs55191" />
  <metadata
     id="metadata55194">
    <rdf:RDF>
      <cc:Work
         rdf:about="">
        <dc:format>image/svg+xml</dc:format>
        <dc:type
           rdf:resource="http://purl.org/dc/dcmitype/StillImage" />
        <dc:title />
      </cc:Work>
    </rdf:RDF>
  </metadata>
  <g
     inkscape:label="Layer 1"
     inkscape:groupmode="layer"
     id="layer1"
     transform="translate(-35.44927,-74.046568)">
    <g
       id="g55846"
       transform="translate(-232.52986,-31.532432)">
      <g
         word-spacing="normal"
         letter-spacing="normal"
         font-size-adjust="none"
         font-stretch="normal"
         font-weight="normal"
         font-variant="normal"
         font-style="normal"
         stroke-miterlimit="10.433"
         xml:space="preserve"
         transform="matrix(0.3,0,0,-0.3,-52.5,222.75)"
         id="g55844"
         style="font-style:normal;font-variant:normal;font-weight:normal;font-stretch:normal;letter-spacing:normal;word-spacing:normal;text-anchor:start;fill:none;fill-opacity:1;fill-rule:evenodd;stroke:#000000;stroke-linecap:butt;stroke-linejoin:miter;stroke-miterlimit:10.43299961;stroke-dasharray:none;stroke-dashoffset:0;stroke-opacity:1"><path
           id="path55816"
           d="m 1086.5,363.14 v -13.35 c 0,-2.25 -0.6,-2.25 -3.9,-2.25 V 346 h 11.2 v 1.54 c -3.3,0 -3.9,0 -3.9,2.25 v 9.16 c 0,5.18 3.5,7.97 6.7,7.97 3.2,0 3.7,-2.69 3.7,-5.53 v -11.6 c 0,-2.25 -0.5,-2.25 -3.9,-2.25 V 346 h 11.3 v 1.54 c -3.4,0 -3.9,0 -3.9,2.25 v 9.16 c 0,5.18 3.5,7.97 6.7,7.97 3.1,0 3.7,-2.69 3.7,-5.53 v -11.6 c 0,-2.25 -0.6,-2.25 -3.9,-2.25 V 346 h 11.2 v 1.54 c -2.6,0 -3.8,0 -3.9,1.5 v 9.51 c 0,4.29 0,5.83 -1.5,7.63 -0.7,0.84 -2.4,1.84 -5.3,1.84 -4.1,0 -6.3,-2.99 -7.2,-4.88 -0.7,4.33 -4.4,4.88 -6.6,4.88 -3.6,0 -6,-2.14 -7.4,-5.23 v 5.23 l -7,-0.55 v -1.54 c 3.5,0 3.9,-0.35 3.9,-2.79 z"
           inkscape:connector-curvature="0"
           style="fill:#000000;stroke-width:0" /><path
           id="path55818"
           d="m 1139.6,349.79 v -0.19 -0.19 l 0.1,-0.19 v -0.18 l 0.1,-0.19 v -0.18 l 0.1,-0.18 0.1,-0.18 v -0.18 l 0.1,-0.18 0.1,-0.17 0.1,-0.16 0.1,-0.17 0.1,-0.15 0.1,-0.16 0.1,-0.14 0.2,-0.15 0.1,-0.13 0.1,-0.13 0.2,-0.12 0.1,-0.12 0.2,-0.1 0.1,-0.1 0.2,-0.09 0.2,-0.08 0.2,-0.07 0.1,-0.07 0.2,-0.05 0.2,-0.04 0.2,-0.03 0.3,-0.01 0.2,-0.01 c 1,0 4.1,0.7 4.1,4.73 v 2.79 h -1.3 v -2.79 c 0,-2.89 -1.2,-3.18 -1.8,-3.18 -1.6,0 -1.8,2.24 -1.8,2.48 v 9.97 c 0,2.09 0,4.03 -1.8,5.88 -2,1.94 -4.5,2.74 -6.8,2.74 -4.1,0 -7.6,-2.34 -7.6,-5.63 0,-1.5 1,-2.34 2.3,-2.34 1.4,0 2.3,0.99 2.3,2.29 0,0.59 -0.2,2.24 -2.5,2.29 1.3,1.74 3.8,2.29 5.4,2.29 2.4,0 5.2,-1.94 5.2,-6.38 v -1.84 -1.04 -4.99 c 0,-4.73 -3.5,-6.42 -5.8,-6.42 -2.4,0 -4.5,1.74 -4.5,4.23 0,2.74 2.1,6.88 10.3,7.18 v 0 1.04 c -2.5,-0.15 -6,-0.3 -9.1,-1.79 -3.8,-1.69 -5,-4.28 -5,-6.48 0,-4.03 4.8,-5.28 8,-5.28 3.2,0 5.5,2 6.5,4.34 z"
           inkscape:connector-curvature="0"
           style="fill:#000000;stroke-width:0" /><path
           id="path55820"
           d="m 1162.3,357.71 0.3,0.36 0.3,0.37 0.3,0.38 0.3,0.38 0.6,0.78 0.3,0.38 0.3,0.38 0.3,0.38 0.3,0.36 0.3,0.36 0.3,0.34 0.1,0.16 0.1,0.16 0.2,0.15 0.1,0.15 0.1,0.14 0.1,0.14 0.2,0.13 0.1,0.13 c 1.5,1.79 3.6,2.54 5.9,2.59 v 1.54 h -8.9 v -1.54 c 1.1,-0.11 1.5,-0.75 1.5,-1.55 0,-0.79 -0.5,-1.44 -0.8,-1.74 l -3,-3.89 -3.9,5.04 c -0.5,0.49 -0.5,0.59 -0.5,0.89 0,0.75 0.8,1.2 1.8,1.25 v 1.54 h -10.2 v -1.54 c 3.5,0 3.6,-0.05 5.9,-3.04 l 5,-6.43 -4.7,-5.93 c -2.4,-2.89 -5.4,-2.99 -6.4,-2.99 V 346 h 8.9 v 1.54 c -1.1,0.16 -1.5,0.8 -1.5,1.55 0,1.09 1.5,2.74 4.5,6.32 l 3.8,-4.98 c 0.4,-0.54 1,-1.34 1,-1.64 0,-0.45 -0.4,-1.2 -1.8,-1.25 V 346 h 10.2 v 1.54 c -2.7,0 -3.6,0.1 -4.7,1.55 z"
           inkscape:connector-curvature="0"
           style="fill:#000000;stroke-width:0" /><path
           id="path55822"
           d="m 1182.8,368.02 -7,-0.55 v -1.54 c 3.3,0 3.7,-0.31 3.7,-2.75 v -13.39 c 0,-2.25 -0.5,-2.25 -3.9,-2.25 V 346 h 10.7 v 1.54 c -3.3,0 -3.5,0.25 -3.5,2.19 z"
           inkscape:connector-curvature="0"
           style="fill:#000000;stroke-width:0" /><path
           id="path55824"
           d="m 1183,376.68 v 0.15 0.15 0.14 0.13 l -0.1,0.14 v 0.13 0.13 l -0.1,0.12 -0.1,0.12 V 378 l -0.1,0.11 v 0.11 l -0.1,0.1 -0.1,0.1 -0.1,0.09 -0.1,0.09 -0.1,0.09 -0.1,0.07 -0.1,0.08 -0.1,0.07 -0.1,0.06 -0.1,0.06 -0.1,0.06 -0.1,0.05 -0.1,0.04 -0.2,0.04 -0.1,0.03 -0.1,0.03 -0.1,0.02 -0.2,0.01 -0.1,0.01 h -0.1 c -1.6,0 -2.7,-1.34 -2.7,-2.64 0,-1.34 1.1,-2.64 2.7,-2.64 1.4,0 2.6,1.05 2.6,2.64 z"
           inkscape:connector-curvature="0"
           style="fill:#000000;stroke-width:0" /><path
           id="path55826"
           d="m 1193.5,363.14 v -13.35 c 0,-2.25 -0.6,-2.25 -3.9,-2.25 V 346 h 11.2 v 1.54 c -3.3,0 -3.9,0 -3.9,2.25 v 9.16 c 0,5.18 3.5,7.97 6.7,7.97 3.2,0 3.7,-2.69 3.7,-5.53 v -11.6 c 0,-2.25 -0.5,-2.25 -3.9,-2.25 V 346 h 11.3 v 1.54 c -3.4,0 -3.9,0 -3.9,2.25 v 9.16 c 0,5.18 3.5,7.97 6.7,7.97 3.1,0 3.7,-2.69 3.7,-5.53 v -11.6 c 0,-2.25 -0.6,-2.25 -3.9,-2.25 V 346 h 11.2 v 1.54 c -2.6,0 -3.8,0 -3.9,1.5 v 9.51 c 0,4.29 0,5.83 -1.5,7.63 -0.7,0.84 -2.4,1.84 -5.3,1.84 -4.1,0 -6.3,-2.99 -7.2,-4.88 -0.7,4.33 -4.4,4.88 -6.6,4.88 -3.6,0 -6,-2.14 -7.4,-5.23 v 5.23 l -7,-0.55 v -1.54 c 3.5,0 3.9,-0.35 3.9,-2.79 z"
           inkscape:connector-curvature="0"
           style="fill:#000000;stroke-width:0" /><path
           id="path55828"
           d="m 1237.8,368.02 -7,-0.55 v -1.54 c 3.3,0 3.7,-0.31 3.7,-2.75 v -13.39 c 0,-2.25 -0.5,-2.25 -3.9,-2.25 V 346 h 10.7 v 1.54 c -3.3,0 -3.5,0.25 -3.5,2.19 z"
           inkscape:connector-curvature="0"
           style="fill:#000000;stroke-width:0" /><path
           id="path55830"
           d="m 1238,376.68 v 0.15 0.15 0.14 0.13 l -0.1,0.14 v 0.13 0.13 l -0.1,0.12 -0.1,0.12 V 378 l -0.1,0.11 v 0.11 l -0.1,0.1 -0.1,0.1 -0.1,0.09 -0.1,0.09 -0.1,0.09 -0.1,0.07 -0.1,0.08 -0.1,0.07 -0.1,0.06 -0.1,0.06 -0.1,0.06 -0.1,0.05 -0.1,0.04 -0.2,0.04 -0.1,0.03 -0.1,0.03 -0.1,0.02 -0.2,0.01 -0.1,0.01 h -0.1 c -1.6,0 -2.7,-1.34 -2.7,-2.64 0,-1.34 1.1,-2.64 2.7,-2.64 1.4,0 2.6,1.05 2.6,2.64 z"
           inkscape:connector-curvature="0"
           style="fill:#000000;stroke-width:0" /><path
           id="path55832"
           d="m 1262.4,365.98 0.1,0.02 v 0.03 0.02 0.02 0.03 0.02 l 0.1,0.02 v 0.02 0.02 0.02 0.02 0.02 l 0.1,0.02 v 0.02 0.03 0.03 0.03 l 0.1,0.03 v 0.03 0.03 0.02 0.03 0.02 0.02 0.02 0.02 l 0.1,0.02 v 0.02 0.02 0.01 0.02 0.04 0.03 0.03 0.04 c 0,0.65 -0.4,0.65 -1.3,0.65 h -16 l -0.5,-8.02 h 1.2 c 0.3,5.08 1.3,6.93 6.8,6.93 h 5.6 l -13.9,-18.79 c -0.4,-0.54 -0.4,-0.64 -0.4,-0.89 0,-0.7 0.3,-0.7 1.3,-0.7 h 16.4 l 0.9,9.32 h -1.3 c -0.4,-5.88 -1.5,-8.07 -7.2,-8.07 h -5.9 z"
           inkscape:connector-curvature="0"
           style="fill:#000000;stroke-width:0" /><path
           id="path55834"
           d="m 1270.5,357.51 0.1,1.04 c 0.3,7.43 4.5,8.67 6.2,8.67 5.1,0 5.6,-6.72 5.6,-8.67 h -11.8 l -0.1,-1.04 h 13.9 c 1.1,0 1.3,0 1.3,1.04 0,4.93 -2.7,9.77 -8.9,9.77 -5.8,0 -10.4,-5.14 -10.4,-11.36 0,-6.67 5.2,-11.51 11,-11.51 6,0 8.3,5.53 8.3,6.48 0,0.5 -0.4,0.6 -0.7,0.6 -0.4,0 -0.5,-0.3 -0.6,-0.7 -1.8,-5.13 -6.2,-5.13 -6.7,-5.13 -2.5,0 -4.5,1.49 -5.7,3.34 -1.5,2.39 -1.5,5.67 -1.5,7.47 z"
           inkscape:connector-curvature="0"
           style="fill:#000000;stroke-width:0" /><path
           id="path55836"
           d="m 1323.7,364.93 h -0.1 -0.2 -0.1 l -0.2,-0.01 -0.1,-0.01 -0.1,-0.02 -0.1,-0.01 -0.1,-0.01 v -0.01 l -0.1,-0.02 -0.1,-0.01 v -0.02 l -0.1,-0.03 -0.1,-0.02 v -0.03 l -0.1,-0.03 -0.1,-0.03 v -0.04 l -0.1,-0.03 -0.1,-0.05 v -0.04 l -0.1,-0.05 -0.1,-0.05 v -0.06 l -0.1,-0.06 -0.1,-0.06 c -0.8,-0.75 -0.9,-1.59 -0.9,-1.94 0,-1.2 0.9,-1.74 1.9,-1.74 1.4,0 2.8,1.19 2.8,3.18 0,2.45 -2.4,4.29 -5.9,4.29 -6.7,0 -13.4,-7.13 -13.4,-14.15 0,-4.48 2.9,-8.42 8.1,-8.42 7.1,0 11.3,5.28 11.3,5.88 0,0.3 -0.3,0.65 -0.6,0.65 -0.2,0 -0.3,-0.1 -0.6,-0.5 -4,-4.93 -9.4,-4.93 -10,-4.93 -3.1,0 -4.5,2.44 -4.5,5.43 0,2.04 1,6.87 2.7,9.96 1.6,2.84 4.3,4.98 7,4.98 1.7,0 3.6,-0.65 4.3,-1.99 z"
           inkscape:connector-curvature="0"
           style="fill:#000000;stroke-width:0" /><path
           id="path55838"
           d="m 1342.9,388.1 0.1,0.04 v 0.05 0.04 0.05 0.04 0.04 0.04 0.04 l 0.1,0.07 v 0.07 0.06 0.06 0.05 l 0.1,0.05 v 0.05 0.05 0.04 0.03 l 0.1,0.04 v 0.03 0.03 0.03 l 0.1,0.02 v 0.02 0.02 l 0.1,0.02 v 0.01 l 0.1,0.02 v 0.01 l 0.1,0.01 v 0.01 l 0.1,0.01 v 0.01 l 0.1,0.01 h 0.1 v 0.01 c 0.2,0.04 1.4,0.04 2.1,0.04 2.1,0 3.1,0 3.9,-0.28 1.6,-0.49 1.7,-1.5 1.7,-2.76 0,-0.55 0,-1.01 -0.3,-2.82 l -0.1,-0.39 c 0,-0.34 0.3,-0.52 0.6,-0.52 0.6,0 0.6,0.32 0.7,0.87 l 1,6.66 c 0,0.49 -0.5,0.49 -1.1,0.49 h -21.4 c -0.9,0 -1,0 -1.2,-0.73 l -2.2,-6.17 c -0.1,-0.14 -0.2,-0.46 -0.2,-0.63 0,-0.14 0.1,-0.49 0.6,-0.49 0.5,0 0.5,0.18 0.7,0.84 2,5.58 3.2,5.93 8.5,5.93 h 1.5 c 1,0 1,-0.04 1,-0.35 0,-0.04 0,-0.21 -0.1,-0.74 l -4.6,-18.34 c -0.3,-1.28 -0.4,-1.64 -4.1,-1.64 -1.2,0 -1.6,0 -1.6,-0.76 0,-0.11 0.1,-0.49 0.6,-0.49 h 12.1 c 0.3,0 0.8,0 0.8,0.77 0,0.48 -0.3,0.48 -1.4,0.48 -0.7,0 -1.4,0.04 -2,0.07 -1.2,0.11 -1.3,0.25 -1.3,0.67 0,0.24 0,0.31 0.1,0.8 z"
           inkscape:connector-curvature="0"
           style="fill:#000000;stroke-width:0" /><path
           id="path55840"
           d="m 1373.6,361.04 0.1,0.13 v 0.15 0.17 l 0.1,0.18 v 0.19 l 0.1,0.21 0.1,0.21 v 0.23 l 0.1,0.23 0.1,0.24 0.1,0.25 0.1,0.24 0.1,0.25 0.1,0.25 0.2,0.25 0.1,0.25 0.2,0.24 0.1,0.24 0.2,0.23 0.2,0.22 0.1,0.22 0.2,0.2 0.2,0.19 0.3,0.18 0.2,0.16 0.2,0.14 0.2,0.07 0.1,0.06 0.1,0.05 0.2,0.05 0.1,0.05 0.1,0.04 0.2,0.03 0.1,0.03 0.2,0.02 0.1,0.02 0.2,0.01 h 0.2 c 0.2,0 1.4,0 2.5,-0.65 -1.4,-0.25 -2.4,-1.49 -2.4,-2.68 0,-0.8 0.5,-1.75 1.9,-1.75 1.1,0 2.6,0.9 2.6,2.89 0,2.59 -2.9,3.29 -4.6,3.29 -2.9,0 -4.6,-2.64 -5.2,-3.79 -1.3,3.29 -4,3.79 -5.4,3.79 -5.2,0 -8,-6.43 -8,-7.67 0,-0.5 0.5,-0.5 0.6,-0.5 0.4,0 0.5,0.1 0.6,0.54 1.7,5.29 5,6.53 6.7,6.53 1,0 2.7,-0.45 2.7,-3.33 0,-1.55 -0.8,-4.89 -2.7,-11.86 -0.8,-3.09 -2.5,-5.18 -4.7,-5.18 -0.3,0 -1.5,0 -2.5,0.65 1.2,0.25 2.3,1.29 2.3,2.69 0,1.34 -1.1,1.74 -1.8,1.74 -1.5,0 -2.8,-1.3 -2.8,-2.89 0,-2.29 2.5,-3.29 4.7,-3.29 3.3,0 5.1,3.49 5.3,3.79 0.6,-1.85 2.4,-3.79 5.3,-3.79 5.2,0 8,6.43 8,7.67 0,0.5 -0.4,0.5 -0.6,0.5 -0.4,0 -0.5,-0.2 -0.6,-0.55 -1.7,-5.33 -5.1,-6.52 -6.7,-6.52 -1.9,0 -2.7,1.59 -2.7,3.29 0,1.09 0.3,2.19 0.8,4.38 z"
           inkscape:connector-curvature="0"
           style="fill:#000000;stroke-width:0" /><path
           id="path55842"
           d="m 1395.1,346.05 v 0.31 0.29 0.29 0.28 l -0.1,0.27 v 0.26 l -0.1,0.26 v 0.24 l -0.1,0.24 v 0.23 l -0.1,0.22 -0.1,0.21 -0.1,0.2 -0.1,0.19 -0.1,0.18 -0.1,0.18 -0.1,0.16 -0.1,0.15 -0.1,0.15 -0.1,0.13 -0.1,0.13 -0.2,0.11 -0.1,0.1 -0.2,0.1 -0.1,0.08 -0.2,0.07 -0.1,0.06 -0.2,0.05 -0.1,0.04 -0.2,0.03 -0.2,0.02 h -0.2 c -1.6,0 -2.6,-1.24 -2.6,-2.64 0,-1.34 1,-2.64 2.6,-2.64 0.6,0 1.3,0.2 1.8,0.65 0.1,0.1 0.2,0.15 0.2,0.15 0.1,0 0.1,-0.05 0.1,-0.75 0,-3.69 -1.7,-6.67 -3.4,-8.32 -0.5,-0.55 -0.5,-0.65 -0.5,-0.8 0,-0.34 0.2,-0.54 0.5,-0.54 0.5,0 4.5,3.83 4.5,9.66 z"
           inkscape:connector-curvature="0"
           style="fill:#000000;stroke-width:0" /></g>    </g>
    <g
       transform="translate(-226.33073,-12.360877)"
       id="g56185">
      <g
         style="font-style:normal;font-variant:normal;font-weight:normal;font-stretch:normal;letter-spacing:normal;word-spacing:normal;text-anchor:start;fill:none;fill-opacity:1;fill-rule:evenodd;stroke:#000000;stroke-linecap:butt;stroke-linejoin:miter;stroke-miterlimit:10.43299961;stroke-dasharray:none;stroke-dashoffset:0;stroke-opacity:1"
         id="g56183"
         transform="matrix(0.3,0,0,-0.3,-52.5,222.75)"
         xml:space="preserve"
         stroke-miterlimit="10.433"
         font-style="normal"
         font-variant="normal"
         font-weight="normal"
         font-stretch="normal"
         font-size-adjust="none"
         letter-spacing="normal"
         word-spacing="normal"><path
           style="fill:#000000;stroke-width:0"
           inkscape:connector-curvature="0"
           d="m 1056.4,355.66 0.1,-0.02 0.1,-0.02 0.1,-0.03 0.2,-0.03 0.2,-0.04 0.1,-0.05 0.2,-0.05 0.2,-0.05 0.2,-0.06 0.2,-0.07 0.3,-0.08 0.2,-0.09 0.2,-0.09 0.2,-0.1 0.2,-0.12 0.3,-0.12 0.2,-0.13 0.2,-0.14 0.2,-0.15 0.2,-0.16 0.2,-0.18 0.2,-0.19 0.1,-0.2 0.2,-0.21 0.1,-0.22 0.1,-0.12 0.1,-0.12 v -0.13 l 0.1,-0.12 v -0.13 l 0.1,-0.14 v -0.14 -0.14 l 0.1,-0.15 v -0.15 -0.15 -0.16 -0.16 -0.17 c 0,-2.54 -1.7,-4.53 -5.6,-4.53 -4.2,0 -6,2.84 -6.9,7.07 -0.2,0.65 -0.2,0.85 -0.7,0.85 -0.7,0 -0.7,-0.35 -0.7,-1.25 v -6.57 c 0,-0.85 0,-1.2 0.6,-1.2 0.2,0 0.3,0.05 1.2,1 0.1,0.1 0.1,0.2 1,1.14 2.2,-2.09 4.5,-2.14 5.5,-2.14 5.7,0 8,3.34 8,6.93 0,2.64 -1.5,4.13 -2.1,4.73 -1.6,1.59 -3.6,1.99 -5.6,2.39 -2.8,0.55 -6.2,1.2 -6.2,4.09 0,1.74 1.3,3.78 5.6,3.78 5.5,0 5.7,-4.48 5.8,-6.03 0.1,-0.45 0.5,-0.45 0.6,-0.45 0.7,0 0.7,0.25 0.7,1.2 v 5.03 c 0,0.85 0,1.2 -0.6,1.2 -0.2,0 -0.3,0 -1,-0.6 -0.1,-0.2 -0.6,-0.65 -0.8,-0.8 -1.9,1.4 -3.9,1.4 -4.7,1.4 -6.1,0 -8,-3.34 -8,-6.13 0,-1.74 0.8,-3.14 2.2,-4.23 1.6,-1.3 3,-1.6 6.6,-2.3 z"
           id="path56153" /><path
           style="fill:#000000;stroke-width:0"
           inkscape:connector-curvature="0"
           d="m 1085.5,349.93 v -4.48 l 7.2,0.55 v 1.54 c -3.5,0 -3.9,0.35 -3.9,2.79 v 17.69 l -7.4,-0.55 v -1.54 c 3.5,0 3.9,-0.35 3.9,-2.79 v -8.87 c 0,-4.34 -2.4,-7.72 -6,-7.72 -4.2,0 -4.4,2.34 -4.4,4.93 v 16.54 l -7.3,-0.55 v -1.54 c 3.9,0 3.9,-0.15 3.9,-4.59 v -7.47 c 0,-3.89 0,-8.42 7.6,-8.42 2.7,0 4.9,1.4 6.4,4.48 z"
           id="path56155" /><path
           style="fill:#000000;stroke-width:0"
           inkscape:connector-curvature="0"
           d="m 1102.6,364.78 v 15.79 l -7.2,-0.55 v -1.54 c 3.5,0 3.9,-0.35 3.9,-2.79 V 346 h 1.2 c 0.1,0.05 0.5,0.75 1.8,3.09 0.8,-1.15 2.9,-3.64 6.5,-3.64 l -0.2,1.1 c -2.2,0 -4,1.19 -5.2,3.04 -0.7,1.04 -0.7,1.19 -0.7,2.09 v 0 10.26 c 0,0.95 0,1 0.6,1.79 1.9,2.79 4.6,3.19 5.8,3.19 2.3,0 4.1,-1.3 5.3,-3.19 1.3,-2.04 1.4,-4.88 1.4,-6.92 0,-1.85 -0.1,-4.83 -1.5,-7.08 -1.1,-1.54 -3,-3.18 -5.7,-3.18 l 0.2,-1.1 c 6,0 11.1,4.88 11.1,11.31 0,6.33 -4.8,11.26 -10.5,11.26 -3.9,0 -6,-2.34 -6.8,-3.24 z"
           id="path56157" /><path
           style="fill:#000000;stroke-width:0"
           inkscape:connector-curvature="0"
           d="m 1134.5,368.02 -7.6,-0.55 v -1.54 c 3.8,0 4.3,-0.35 4.3,-2.79 v -19.73 c 0,-2.24 -0.5,-6.53 -3.7,-6.53 -0.2,0 -1.4,0 -2.7,0.65 0.8,0.2 1.8,0.9 1.8,2.24 0,1.3 -0.9,2.3 -2.3,2.3 -1.4,0 -2.3,-1 -2.3,-2.3 0,-2.59 2.8,-3.98 5.6,-3.98 3.8,0 6.9,3.19 6.9,7.72 z"
           id="path56159" /><path
           style="fill:#000000;stroke-width:0"
           inkscape:connector-curvature="0"
           d="m 1134.5,376.68 v 0.14 l -0.1,0.13 v 0.13 0.13 0.13 l -0.1,0.12 v 0.13 0.12 l -0.1,0.11 -0.1,0.12 v 0.11 l -0.1,0.1 -0.1,0.11 v 0.1 l -0.1,0.09 -0.1,0.1 -0.1,0.08 -0.1,0.09 -0.1,0.08 -0.1,0.07 -0.1,0.07 -0.1,0.06 -0.1,0.06 -0.2,0.05 -0.1,0.05 -0.1,0.04 -0.1,0.04 -0.2,0.03 -0.1,0.02 -0.1,0.02 -0.1,0.01 h -0.2 c -1.4,0 -2.6,-1.19 -2.6,-2.64 0,-1.44 1.2,-2.64 2.6,-2.64 1.5,0 2.7,1.2 2.7,2.64 z"
           id="path56161" /><path
           style="fill:#000000;stroke-width:0"
           inkscape:connector-curvature="0"
           d="m 1144.5,357.51 0.1,1.04 c 0.3,7.43 4.5,8.67 6.2,8.67 5.1,0 5.6,-6.72 5.6,-8.67 h -11.8 l -0.1,-1.04 h 13.9 c 1.1,0 1.3,0 1.3,1.04 0,4.93 -2.7,9.77 -8.9,9.77 -5.8,0 -10.4,-5.14 -10.4,-11.36 0,-6.67 5.2,-11.51 11,-11.51 6,0 8.3,5.53 8.3,6.48 0,0.5 -0.4,0.6 -0.7,0.6 -0.4,0 -0.5,-0.3 -0.6,-0.7 -1.8,-5.13 -6.2,-5.13 -6.7,-5.13 -2.5,0 -4.5,1.49 -5.7,3.34 -1.5,2.39 -1.5,5.67 -1.5,7.47 z"
           id="path56163" /><path
           style="fill:#000000;stroke-width:0"
           inkscape:connector-curvature="0"
           d="m 1166.8,356.86 v 0.38 0.36 l 0.1,0.36 v 0.35 0.34 0.34 l 0.1,0.32 v 0.32 l 0.1,0.31 v 0.3 l 0.1,0.29 v 0.29 l 0.2,0.54 0.1,0.52 0.2,0.49 0.2,0.46 0.2,0.43 0.2,0.4 0.2,0.37 0.2,0.35 0.3,0.33 0.2,0.3 0.3,0.28 0.2,0.25 0.3,0.23 0.3,0.21 0.2,0.19 0.3,0.17 0.3,0.15 0.3,0.13 0.3,0.11 0.2,0.09 0.3,0.08 0.3,0.06 0.3,0.05 0.2,0.03 0.3,0.02 0.3,0.01 c 0.4,0 3.5,-0.05 5.3,-1.84 -2.1,-0.15 -2.4,-1.64 -2.4,-2.29 0,-1.3 0.9,-2.3 2.3,-2.3 1.3,0 2.3,0.85 2.3,2.34 0,3.4 -3.8,5.34 -7.6,5.34 -6.2,0 -10.8,-5.38 -10.8,-11.56 0,-6.38 4.9,-11.31 10.7,-11.31 6.7,0 8.3,5.98 8.3,6.48 0,0.5 -0.5,0.5 -0.7,0.5 -0.4,0 -0.5,-0.2 -0.6,-0.5 -1.5,-4.63 -4.7,-5.23 -6.6,-5.23 -2.6,0 -7,2.14 -7,10.16 z"
           id="path56165" /><path
           style="fill:#000000;stroke-width:0"
           inkscape:connector-curvature="0"
           d="m 1192.6,365.93 h 7.1 v 1.54 h -7.1 v 9.17 h -1.2 c -0.1,-4.09 -1.6,-9.42 -6.5,-9.62 v -1.09 h 4.3 v -13.75 c 0,-6.13 4.6,-6.73 6.4,-6.73 3.5,0 4.9,3.54 4.9,6.73 v 2.84 h -1.2 v -2.74 c 0,-3.69 -1.5,-5.58 -3.3,-5.58 -3.4,0 -3.4,4.53 -3.4,5.38 z"
           id="path56167" /><path
           style="fill:#000000;stroke-width:0"
           inkscape:connector-curvature="0"
           d="m 1227.6,365.93 h 7.1 v 1.54 h -7.1 v 9.17 h -1.2 c -0.1,-4.09 -1.6,-9.42 -6.5,-9.62 v -1.09 h 4.3 v -13.75 c 0,-6.13 4.6,-6.73 6.4,-6.73 3.5,0 4.9,3.54 4.9,6.73 v 2.84 h -1.2 v -2.74 c 0,-3.69 -1.5,-5.58 -3.3,-5.58 -3.4,0 -3.4,4.53 -3.4,5.38 z"
           id="path56169" /><path
           style="fill:#000000;stroke-width:0"
           inkscape:connector-curvature="0"
           d="m 1262.5,356.66 -0.1,0.59 v 0.59 l -0.1,0.58 -0.1,0.57 -0.1,0.56 -0.1,0.55 -0.2,0.54 -0.2,0.53 -0.2,0.52 -0.3,0.5 -0.2,0.49 -0.3,0.47 -0.3,0.46 -0.4,0.44 -0.3,0.42 -0.4,0.41 -0.4,0.39 -0.4,0.36 -0.4,0.35 -0.4,0.33 -0.5,0.3 -0.4,0.29 -0.5,0.26 -0.5,0.23 -0.5,0.21 -0.5,0.19 -0.5,0.16 -0.5,0.13 -0.6,0.1 -0.5,0.08 -0.6,0.04 -0.6,0.02 v -1.1 c 2.2,0 4.3,-1.1 5.6,-3.24 1.3,-2.14 1.3,-5.03 1.3,-6.92 0,-1.79 0,-4.49 -1.1,-6.68 -1.1,-2.24 -3.3,-3.68 -5.8,-3.68 v 0 c -2.1,0 -4.3,1.04 -5.6,3.34 -1.3,2.19 -1.3,5.23 -1.3,7.02 0,1.94 0,4.63 1.2,6.82 1.4,2.3 3.7,3.34 5.7,3.34 v 1.1 c -6.2,0 -11,-5.43 -11,-11.66 0,-6.43 5.2,-11.21 11,-11.21 6,0 11.1,4.88 11.1,11.21 z"
           id="path56171" /><path
           style="fill:#000000;stroke-width:0"
           inkscape:connector-curvature="0"
           d="m 1288.9,351.73 -0.2,-0.31 -0.2,-0.29 -0.1,-0.27 -0.2,-0.26 -0.2,-0.25 -0.2,-0.23 -0.2,-0.23 -0.2,-0.2 -0.2,-0.2 -0.1,-0.18 -0.2,-0.17 -0.2,-0.16 -0.2,-0.15 -0.2,-0.14 -0.2,-0.13 -0.2,-0.12 -0.2,-0.11 -0.1,-0.1 -0.2,-0.09 -0.2,-0.09 -0.2,-0.07 -0.2,-0.07 -0.2,-0.06 -0.2,-0.06 -0.2,-0.05 -0.2,-0.04 -0.2,-0.04 -0.2,-0.03 -0.4,-0.05 -0.4,-0.04 c -0.6,-0.04 -1.1,-0.04 -1.1,-0.99 0,-0.3 0.3,-0.55 0.7,-0.55 h 9.3 c 0.3,0 0.9,0 0.9,0.95 0,0.55 -0.4,0.59 -0.8,0.59 -1.1,0.1 -2.3,0.5 -2.3,1.75 0,0.6 0.3,1.14 0.7,1.84 l 3.7,6.38 h 12.5 l -0.1,1.54 h -11.4 l 9.8,16.44 1.6,-16.44 0.1,-1.54 c 0.2,-1.05 0.8,-7.82 0.8,-8.32 0,-1.49 -2.5,-1.65 -3.5,-1.65 -0.7,0 -1.2,0 -1.2,-0.99 0,-0.55 0.6,-0.55 0.7,-0.55 h 11.8 c 0.3,0 0.9,0 0.9,1 0,0.54 -0.5,0.54 -1.1,0.54 -3.1,0 -3.1,0.35 -3.3,1.8 l -3,31.13 c -0.1,1 -0.1,1.2 -0.9,1.2 -0.8,0 -1,-0.35 -1.4,-0.85 z"
           id="path56173" /><path
           style="fill:#000000;stroke-width:0"
           inkscape:connector-curvature="0"
           d="m 1334.6,361.04 0.1,0.13 v 0.15 0.17 l 0.1,0.18 v 0.19 l 0.1,0.21 0.1,0.21 v 0.23 l 0.1,0.23 0.1,0.24 0.1,0.25 0.1,0.24 0.1,0.25 0.1,0.25 0.2,0.25 0.1,0.25 0.2,0.24 0.1,0.24 0.2,0.23 0.2,0.22 0.1,0.22 0.2,0.2 0.2,0.19 0.3,0.18 0.2,0.16 0.2,0.14 0.2,0.07 0.1,0.06 0.1,0.05 0.2,0.05 0.1,0.05 0.1,0.04 0.2,0.03 0.1,0.03 0.2,0.02 0.1,0.02 0.2,0.01 h 0.2 c 0.2,0 1.4,0 2.5,-0.65 -1.4,-0.25 -2.4,-1.49 -2.4,-2.68 0,-0.8 0.5,-1.75 1.9,-1.75 1.1,0 2.6,0.9 2.6,2.89 0,2.59 -2.9,3.29 -4.6,3.29 -2.9,0 -4.6,-2.64 -5.2,-3.79 -1.3,3.29 -4,3.79 -5.4,3.79 -5.2,0 -8,-6.43 -8,-7.67 0,-0.5 0.5,-0.5 0.6,-0.5 0.4,0 0.5,0.1 0.6,0.54 1.7,5.29 5,6.53 6.7,6.53 1,0 2.7,-0.45 2.7,-3.33 0,-1.55 -0.8,-4.89 -2.7,-11.86 -0.8,-3.09 -2.5,-5.18 -4.7,-5.18 -0.3,0 -1.5,0 -2.5,0.65 1.2,0.25 2.3,1.29 2.3,2.69 0,1.34 -1.1,1.74 -1.8,1.74 -1.5,0 -2.8,-1.3 -2.8,-2.89 0,-2.29 2.5,-3.29 4.7,-3.29 3.3,0 5.1,3.49 5.3,3.79 0.6,-1.85 2.4,-3.79 5.3,-3.79 5.2,0 8,6.43 8,7.67 0,0.5 -0.4,0.5 -0.6,0.5 -0.4,0 -0.5,-0.2 -0.6,-0.55 -1.7,-5.33 -5.1,-6.52 -6.7,-6.52 -1.9,0 -2.7,1.59 -2.7,3.29 0,1.09 0.3,2.19 0.8,4.38 z"
           id="path56175" /><path
           style="fill:#000000;stroke-width:0"
           inkscape:connector-curvature="0"
           d="m 1393.6,375.59 0.1,0.05 0.1,0.04 0.1,0.03 v 0.02 l 0.1,0.03 v 0.02 0.03 l 0.1,0.02 v 0.03 l 0.1,0.03 v 0.03 0.03 l 0.1,0.03 v 0.03 0.03 l 0.1,0.03 v 0.04 0.03 0.04 l 0.1,0.04 v 0.04 0.04 0.04 0.04 0.05 l 0.1,0.05 v 0.04 0.06 0.05 0.05 c 0,0.55 -0.4,1 -1,1 -0.3,0 -0.7,-0.2 -0.9,-0.3 l -27.6,-13 c -0.8,-0.4 -1,-0.75 -1,-1.15 0,-0.44 0.3,-0.79 1,-1.09 l 27.6,-12.95 c 0.6,-0.35 0.7,-0.35 0.9,-0.35 0.5,0 1,0.45 1,1 0,0.45 -0.2,0.74 -1.1,1.14 l -26,12.25 z"
           id="path56177" /><path
           style="fill:#000000;stroke-width:0"
           inkscape:connector-curvature="0"
           d="m 1392.8,339.18 h 0.2 0.1 0.2 l 0.1,0.01 h 0.1 v 0.01 l 0.1,0.01 0.1,0.01 v 0.01 l 0.1,0.01 0.1,0.02 0.1,0.02 v 0.02 l 0.1,0.03 v 0.02 l 0.1,0.03 v 0.04 l 0.1,0.04 v 0.04 l 0.1,0.05 v 0.05 0.02 l 0.1,0.03 v 0.03 0.03 0.03 0.03 0.04 0.03 0.04 0.04 l 0.1,0.04 v 0.04 0.04 0.04 0.05 0.04 c 0,1 -1.1,1 -1.8,1 h -26.9 c -0.7,0 -1.8,0 -1.8,-1 0,-0.99 0.9,-0.99 1.8,-0.99 z"
           id="path56179" /><path
           style="fill:#000000;stroke-width:0"
           inkscape:connector-curvature="0"
           d="m 1424.9,380.02 v 0.01 0 0.01 0.01 0.01 0.01 0.02 0.02 0.02 0.02 0.02 0.02 0.03 0.02 0.03 l -0.1,0.02 v 0.02 0.03 0.02 0.03 0.02 l -0.1,0.01 v 0.01 0.01 0.01 0.01 0.01 0.01 l -0.1,0.01 v 0.01 0.01 0.01 0 l -0.1,0.01 v 0.01 0 0.01 0 l -0.1,0.01 v 0 0 l -0.1,0.01 v 0 0 0 c -1.2,0 -4.8,-0.4 -6.1,-0.5 -0.4,-0.05 -1,-0.1 -1,-1 0,-0.59 0.5,-0.59 1.2,-0.59 2.4,0 2.5,-0.35 2.5,-0.85 0,-0.35 -0.4,-2.04 -0.7,-3.09 l -4.1,-16.24 c -0.6,-2.49 -0.8,-3.28 -0.8,-5.03 0,-4.73 2.7,-7.82 6.4,-7.82 v 1.1 c -1.7,0 -3.4,1.34 -3.4,5.03 0,0.95 0,1.89 0.8,5.03 l 1.1,4.58 c 0.3,1.1 0.3,1.2 0.8,1.75 2.4,3.24 4.7,3.98 5.9,3.98 1.8,0 3.2,-1.49 3.2,-4.68 0,-2.94 -1.7,-8.67 -2.5,-10.56 -1.7,-3.34 -4,-5.13 -5.9,-5.13 v -1.1 c 5.9,0 12,7.43 12,14.6 0,4.53 -2.7,7.97 -6.6,7.97 -2.3,0 -4.4,-1.45 -5.9,-2.99 z"
           id="path56181" /></g>    </g>
    <g
       id="g56348"
       transform="translate(-175.33418,9.6217027)">
      <g
         word-spacing="normal"
         letter-spacing="normal"
         font-size-adjust="none"
         font-stretch="normal"
         font-weight="normal"
         font-variant="normal"
         font-style="normal"
         stroke-miterlimit="10.433"
         xml:space="preserve"
         transform="matrix(0.3,0,0,-0.3,-52.5,222.75)"
         id="g56346"
         style="font-style:normal;font-variant:normal;font-weight:normal;font-stretch:normal;letter-spacing:normal;word-spacing:normal;text-anchor:start;fill:none;fill-opacity:1;fill-rule:evenodd;stroke:#000000;stroke-linecap:butt;stroke-linejoin:miter;stroke-miterlimit:10.43299961;stroke-dasharray:none;stroke-dashoffset:0;stroke-opacity:1"><path
           id="path56312"
           d="m 1032.6,349.79 v -0.19 -0.19 l 0.1,-0.19 v -0.18 l 0.1,-0.19 v -0.18 l 0.1,-0.18 0.1,-0.18 v -0.18 l 0.1,-0.18 0.1,-0.17 0.1,-0.16 0.1,-0.17 0.1,-0.15 0.1,-0.16 0.1,-0.14 0.2,-0.15 0.1,-0.13 0.1,-0.13 0.2,-0.12 0.1,-0.12 0.2,-0.1 0.1,-0.1 0.2,-0.09 0.2,-0.08 0.2,-0.07 0.1,-0.07 0.2,-0.05 0.2,-0.04 0.2,-0.03 0.3,-0.01 0.2,-0.01 c 1,0 4.1,0.7 4.1,4.73 v 2.79 h -1.3 v -2.79 c 0,-2.89 -1.2,-3.18 -1.8,-3.18 -1.6,0 -1.8,2.24 -1.8,2.48 v 9.97 c 0,2.09 0,4.03 -1.8,5.88 -2,1.94 -4.5,2.74 -6.8,2.74 -4.1,0 -7.6,-2.34 -7.6,-5.63 0,-1.5 1,-2.34 2.3,-2.34 1.4,0 2.3,0.99 2.3,2.29 0,0.59 -0.2,2.24 -2.5,2.29 1.3,1.74 3.8,2.29 5.4,2.29 2.4,0 5.2,-1.94 5.2,-6.38 v -1.84 -1.04 -4.99 c 0,-4.73 -3.5,-6.42 -5.8,-6.42 -2.4,0 -4.5,1.74 -4.5,4.23 0,2.74 2.1,6.88 10.3,7.18 v 0 1.04 c -2.5,-0.15 -6,-0.3 -9.1,-1.79 -3.8,-1.69 -5,-4.28 -5,-6.48 0,-4.03 4.8,-5.28 8,-5.28 3.2,0 5.5,2 6.5,4.34 z"
           inkscape:connector-curvature="0"
           style="fill:#000000;stroke-width:0" /><path
           id="path56314"
           d="m 1046.5,363.14 v -13.35 c 0,-2.25 -0.6,-2.25 -3.9,-2.25 V 346 h 11.2 v 1.54 c -3.3,0 -3.9,0 -3.9,2.25 v 9.16 c 0,5.18 3.5,7.97 6.7,7.97 3.2,0 3.7,-2.69 3.7,-5.53 v -11.6 c 0,-2.25 -0.5,-2.25 -3.9,-2.25 V 346 h 11.3 v 1.54 c -2.6,0 -3.9,0 -3.9,1.5 v 9.51 c 0,4.29 0,5.83 -1.6,7.63 -0.7,0.84 -2.3,1.84 -5.2,1.84 -3.6,0 -6,-2.14 -7.4,-5.23 v 5.23 l -7,-0.55 v -1.54 c 3.5,0 3.9,-0.35 3.9,-2.79 z"
           inkscape:connector-curvature="0"
           style="fill:#000000;stroke-width:0" /><path
           id="path56316"
           d="m 1087.9,348.74 v -3.29 l 7.3,0.55 v 1.54 c -3.4,0 -3.8,0.35 -3.8,2.79 v 30.24 l -7.2,-0.55 v -1.54 c 3.5,0 3.9,-0.35 3.9,-2.79 v -10.76 c -1.5,1.79 -3.6,3.09 -6.3,3.09 l 0.2,-1.1 c 1.8,0 3.8,-0.74 5.4,-2.99 0.5,-0.84 0.5,-0.95 0.5,-1.84 v 0 -10.21 c 0,-0.9 0,-1 -0.5,-1.84 -1.5,-2.4 -3.8,-3.49 -5.9,-3.49 -2.2,0 -4,1.29 -5.2,3.18 -1.3,2.05 -1.5,4.89 -1.5,6.93 0,1.84 0.1,4.83 1.6,7.07 1,1.55 2.9,3.19 5.6,3.19 l -0.2,1.1 c -5.9,0 -11.1,-4.88 -11.1,-11.31 0,-6.33 4.9,-11.26 10.5,-11.26 3.2,0 5.5,1.69 6.7,3.29 z"
           inkscape:connector-curvature="0"
           style="fill:#000000;stroke-width:0" /><path
           id="path56318"
           d="m 1129.6,361.04 0.1,0.13 v 0.15 0.17 l 0.1,0.18 v 0.19 l 0.1,0.21 0.1,0.21 v 0.23 l 0.1,0.23 0.1,0.24 0.1,0.25 0.1,0.24 0.1,0.25 0.1,0.25 0.2,0.25 0.1,0.25 0.2,0.24 0.1,0.24 0.2,0.23 0.2,0.22 0.1,0.22 0.2,0.2 0.2,0.19 0.3,0.18 0.2,0.16 0.2,0.14 0.2,0.07 0.1,0.06 0.1,0.05 0.2,0.05 0.1,0.05 0.1,0.04 0.2,0.03 0.1,0.03 0.2,0.02 0.1,0.02 0.2,0.01 h 0.2 c 0.2,0 1.4,0 2.5,-0.65 -1.4,-0.25 -2.4,-1.49 -2.4,-2.68 0,-0.8 0.5,-1.75 1.9,-1.75 1.1,0 2.6,0.9 2.6,2.89 0,2.59 -2.9,3.29 -4.6,3.29 -2.9,0 -4.6,-2.64 -5.2,-3.79 -1.3,3.29 -4,3.79 -5.4,3.79 -5.2,0 -8,-6.43 -8,-7.67 0,-0.5 0.5,-0.5 0.6,-0.5 0.4,0 0.5,0.1 0.6,0.54 1.7,5.29 5,6.53 6.7,6.53 1,0 2.7,-0.45 2.7,-3.33 0,-1.55 -0.8,-4.89 -2.7,-11.86 -0.8,-3.09 -2.5,-5.18 -4.7,-5.18 -0.3,0 -1.5,0 -2.5,0.65 1.2,0.25 2.3,1.29 2.3,2.69 0,1.34 -1.1,1.74 -1.8,1.74 -1.5,0 -2.8,-1.3 -2.8,-2.89 0,-2.29 2.5,-3.29 4.7,-3.29 3.3,0 5.1,3.49 5.3,3.79 0.6,-1.85 2.4,-3.79 5.3,-3.79 5.2,0 8,6.43 8,7.67 0,0.5 -0.4,0.5 -0.6,0.5 -0.4,0 -0.5,-0.2 -0.6,-0.55 -1.7,-5.33 -5.1,-6.52 -6.7,-6.52 -1.9,0 -2.7,1.59 -2.7,3.29 0,1.09 0.3,2.19 0.8,4.38 z"
           inkscape:connector-curvature="0"
           style="fill:#000000;stroke-width:0" /><path
           id="path56320"
           d="m 1182.3,357.46 h 0.2 0.1 0.2 v 0.01 h 0.1 l 0.1,0.01 0.1,0.01 v 0.01 l 0.1,0.01 0.1,0.01 0.1,0.02 v 0.02 l 0.1,0.02 v 0.03 l 0.1,0.02 0.1,0.04 v 0.03 l 0.1,0.04 v 0.04 0.05 l 0.1,0.05 v 0.02 0.03 0.03 l 0.1,0.03 v 0.03 0.04 0.03 0.03 0.04 0.04 0.04 0.04 0.04 0.04 0.05 0.04 c 0,1 -0.9,1 -1.7,1 h -21.1 c 0.6,6.67 6.3,11.46 13.3,11.46 h 7.8 c 0.8,0 1.7,0 1.7,0.99 0,1 -0.9,1 -1.7,1 h -7.9 c -8.5,0 -15.3,-6.48 -15.3,-14.45 0,-7.97 6.8,-14.44 15.3,-14.44 h 7.9 c 0.8,0 1.7,0 1.7,0.99 0,1 -0.9,1 -1.7,1 h -7.8 c -7,0 -12.7,4.78 -13.3,11.46 z"
           inkscape:connector-curvature="0"
           style="fill:#000000;stroke-width:0" /><path
           id="path56322"
           d="m 1217.1,376.73 v 0.19 0.2 0.2 l 0.1,0.21 v 0.21 l 0.1,0.21 v 0.22 l 0.1,0.22 0.1,0.22 0.1,0.22 0.1,0.22 0.1,0.22 0.1,0.21 0.2,0.22 0.1,0.21 0.2,0.21 0.2,0.2 0.2,0.19 0.3,0.19 0.2,0.19 0.3,0.17 0.3,0.17 0.3,0.16 0.3,0.14 0.3,0.14 0.4,0.13 0.4,0.11 0.4,0.1 0.2,0.04 0.2,0.05 0.2,0.03 0.2,0.04 0.3,0.03 0.2,0.02 0.3,0.03 0.2,0.02 c 0.3,0.04 0.5,0.24 0.5,0.54 0,0.55 -0.4,0.55 -1,0.55 -5,0 -9.5,-2.54 -9.5,-6.23 v -11.35 c 0,-1.95 0,-3.54 -2,-5.19 -1.8,-1.44 -3.7,-1.54 -4.8,-1.59 -0.2,-0.05 -0.4,-0.25 -0.4,-0.55 0,-0.49 0.3,-0.49 0.8,-0.54 3.3,-0.2 5.7,-2 6.2,-4.44 0.2,-0.54 0.2,-0.65 0.2,-2.44 v -9.86 c 0,-2.1 0,-3.69 2.4,-5.58 1.9,-1.5 5.2,-2.04 7.1,-2.04 0.6,0 1,0 1,0.54 0,0.5 -0.3,0.5 -0.8,0.55 -3.2,0.2 -5.6,1.8 -6.3,4.34 -0.1,0.45 -0.1,0.54 -0.1,2.34 v 10.46 c 0,2.29 -0.4,3.14 -2,4.73 -1,1.04 -2.5,1.54 -3.9,1.94 4.1,1.15 5.9,3.44 5.9,6.33 z"
           inkscape:connector-curvature="0"
           style="fill:#000000;stroke-width:0" /><path
           id="path56324"
           d="m 1249.9,361.94 v 0.75 0.74 0.75 l -0.1,0.74 v 0.75 l -0.1,0.74 v 0.74 l -0.1,0.73 -0.1,0.73 -0.2,0.73 -0.1,0.72 -0.2,0.72 -0.3,0.71 -0.2,0.71 -0.3,0.7 -0.1,0.35 -0.2,0.35 c -2.3,4.78 -6.3,5.58 -8.5,5.58 -2.9,0 -6.6,-1.3 -8.6,-5.93 -1.6,-3.44 -1.9,-7.32 -1.9,-11.31 0,-3.74 0.2,-8.22 2.3,-12.01 2.1,-4.03 5.8,-5.03 8.2,-5.03 v 1.1 c -1.9,0 -4.9,1.25 -5.8,6.03 -0.5,2.99 -0.5,7.57 -0.5,10.51 0,3.19 0,6.47 0.4,9.16 0.9,5.93 4.7,6.38 5.9,6.38 1.7,0 4.9,-0.9 5.9,-5.83 0.5,-2.79 0.5,-6.57 0.5,-9.71 0,-3.74 0,-7.13 -0.6,-10.31 -0.7,-4.73 -3.6,-6.23 -5.8,-6.23 v 0 -1.1 c 2.7,0 6.5,1.05 8.7,5.78 1.6,3.44 1.8,7.32 1.8,11.26 z"
           inkscape:connector-curvature="0"
           style="fill:#000000;stroke-width:0" /><path
           id="path56326"
           d="m 1262.1,346.05 v 0.31 0.29 0.29 0.28 l -0.1,0.27 v 0.26 l -0.1,0.26 v 0.24 l -0.1,0.24 v 0.23 l -0.1,0.22 -0.1,0.21 -0.1,0.2 -0.1,0.19 -0.1,0.18 -0.1,0.18 -0.1,0.16 -0.1,0.15 -0.1,0.15 -0.1,0.13 -0.1,0.13 -0.2,0.11 -0.1,0.1 -0.2,0.1 -0.1,0.08 -0.2,0.07 -0.1,0.06 -0.2,0.05 -0.1,0.04 -0.2,0.03 -0.2,0.02 h -0.2 c -1.6,0 -2.6,-1.24 -2.6,-2.64 0,-1.34 1,-2.64 2.6,-2.64 0.6,0 1.3,0.2 1.8,0.65 0.1,0.1 0.2,0.15 0.2,0.15 0.1,0 0.1,-0.05 0.1,-0.75 0,-3.69 -1.7,-6.67 -3.4,-8.32 -0.5,-0.55 -0.5,-0.65 -0.5,-0.8 0,-0.34 0.2,-0.54 0.5,-0.54 0.5,0 4.5,3.83 4.5,9.66 z"
           inkscape:connector-curvature="0"
           style="fill:#000000;stroke-width:0" /><path
           id="path56328"
           d="m 1289.6,377.88 v 0.05 0.06 0.05 0.05 0.05 0.05 0.04 0.05 0.04 0.04 0.04 0.04 0.04 0.04 0.03 0.04 0.03 0.03 0.06 0.05 0.05 0.05 l -0.1,0.04 v 0.04 0.04 0.03 l -0.1,0.02 v 0.03 0.02 l -0.1,0.02 v 0.01 0.01 h -0.1 v 0.01 0.01 0 l -0.1,0.01 v 0 0.01 h -0.1 v 0 0 l -0.1,0.01 v 0 h -0.1 v 0 h -0.1 v 0 0.01 h -0.1 v 0 h -0.1 c -3.1,-3.19 -7.5,-3.19 -9.1,-3.19 v -1.55 c 1,0 4,0 6.6,1.3 v -25.81 c 0,-1.79 -0.2,-2.39 -4.7,-2.39 h -1.6 V 346 h 16.2 v 1.54 h -1.6 c -4.5,0 -4.7,0.55 -4.7,2.39 z"
           inkscape:connector-curvature="0"
           style="fill:#000000;stroke-width:0" /><path
           id="path56330"
           d="m 1309.8,340.17 v -0.19 l -0.1,-0.19 v -0.21 -0.2 -0.21 l -0.1,-0.22 -0.1,-0.21 v -0.22 l -0.1,-0.22 -0.1,-0.22 -0.1,-0.22 -0.1,-0.22 -0.2,-0.22 -0.1,-0.21 -0.2,-0.21 -0.2,-0.21 -0.2,-0.2 -0.2,-0.2 -0.2,-0.19 -0.3,-0.18 -0.2,-0.17 -0.3,-0.17 -0.3,-0.16 -0.3,-0.15 -0.4,-0.13 -0.3,-0.13 -0.4,-0.11 -0.4,-0.1 -0.2,-0.04 -0.2,-0.05 -0.3,-0.03 -0.2,-0.04 -0.2,-0.03 -0.3,-0.02 -0.2,-0.03 -0.3,-0.02 c -0.2,-0.05 -0.4,-0.25 -0.4,-0.55 0,-0.54 0.5,-0.54 1,-0.54 4.8,0 9.5,2.44 9.5,6.22 v 11.36 c 0,1.94 0,3.54 2,5.18 1.7,1.45 3.6,1.55 4.7,1.6 0.3,0.05 0.5,0.25 0.5,0.54 0,0.5 -0.3,0.5 -0.8,0.55 -3.3,0.2 -5.7,1.99 -6.3,4.43 -0.1,0.55 -0.1,0.65 -0.1,2.45 v 9.86 c 0,2.09 0,3.69 -2.4,5.58 -2,1.54 -5.4,2.04 -7.1,2.04 -0.5,0 -1,0 -1,-0.55 0,-0.5 0.3,-0.5 0.8,-0.54 3.1,-0.2 5.6,-1.8 6.2,-4.34 0.2,-0.45 0.2,-0.55 0.2,-2.34 v -10.46 c 0,-2.29 0.4,-3.14 2,-4.74 1,-1.04 2.4,-1.54 3.8,-1.94 -4,-1.14 -5.8,-3.43 -5.8,-6.32 z"
           inkscape:connector-curvature="0"
           style="fill:#000000;stroke-width:0" /><path
           id="path56332"
           d="m 1330.8,391.79 v 0.05 0.05 0.06 0.05 0.11 0.06 0.06 0.05 l -0.1,0.06 v 0.06 0.05 0.06 0.05 0.06 0.05 l -0.1,0.05 v 0.05 0.05 0.04 l -0.1,0.04 v 0.04 0.04 l -0.1,0.02 v 0.01 0.02 0.01 l -0.1,0.02 v 0.01 0.01 0.02 l -0.1,0.01 v 0.01 0 l -0.1,0.01 v 0.01 0 l -0.1,0.01 v 0 0 h -0.1 c -0.8,0 -0.8,-0.8 -0.8,-1.36 v -32.15 c 0,-0.52 0,-1.36 0.8,-1.36 0.9,0 0.9,0.81 0.9,1.36 z"
           inkscape:connector-curvature="0"
           style="fill:#000000;stroke-width:0" /><path
           id="path56334"
           d="m 1363.6,375.05 v 0.03 0.02 0.02 l 0.1,0.02 v 0.02 0.01 0.02 0.02 0.04 0.03 0.03 0.03 0.03 l 0.1,0.02 v 0.03 0.02 0.03 0.02 0.02 0.02 0.01 0.02 0.01 0.02 0.01 0.01 0.01 0.01 0.01 0.01 0.01 0.01 0 0.01 0 0 c 0,0.21 -0.1,0.49 -0.6,0.49 0,0 -0.2,0 -0.4,-0.14 0,-0.07 0,-0.1 -0.5,-1.01 -2.2,-5.02 -4,-6.77 -9.7,-6.77 h -5.9 c -1.1,0 -1.1,0.04 -1.1,0.36 0,0.03 0,0.2 0.1,0.73 l 2.3,9.34 h 3.9 c 2.8,0 3.2,-0.45 3.2,-1.6 0,-0.38 -0.1,-0.98 -0.2,-1.57 -0.1,-0.31 -0.1,-0.35 -0.1,-0.42 0,-0.07 0,-0.49 0.5,-0.49 0.5,0 0.6,0.18 0.7,0.77 l 1.9,7.63 c 0.1,0.42 0.1,0.49 0.1,0.53 0,0.35 -0.2,0.49 -0.6,0.49 -0.4,0 -0.4,-0.18 -0.6,-0.91 -0.8,-2.72 -1.8,-3.17 -4.8,-3.17 h -3.7 l 2.1,8.29 c 0.3,1.09 0.4,1.19 1.8,1.19 h 5.7 c 4.6,0 5.7,-0.94 5.7,-4.04 0,-0.91 -0.1,-1.96 -0.1,-2.13 0,-0.28 0.1,-0.59 0.6,-0.59 0.5,0 0.5,0.31 0.6,0.9 l 0.6,6.07 c 0.1,1.05 -0.1,1.05 -1,1.05 h -19.2 c -0.7,0 -1.1,0 -1.1,-0.77 0,-0.49 0.4,-0.49 1.2,-0.49 0.5,0 0.7,0 1.3,-0.07 0.7,-0.07 0.8,-0.14 0.8,-0.49 0,-0.24 -0.1,-0.59 -0.2,-0.76 l -4.5,-18.24 c -0.4,-1.36 -0.4,-1.61 -3.2,-1.61 -0.6,0 -1,0 -1,-0.76 0,-0.49 0.4,-0.49 1,-0.49 h 19.8 c 0.8,0 0.9,0 1.1,0.63 z"
           inkscape:connector-curvature="0"
           style="fill:#000000;stroke-width:0" /><path
           id="path56336"
           d="m 1374.8,391.79 v 0.05 0.05 0.06 0.05 0.11 0.06 0.06 0.05 l -0.1,0.06 v 0.06 0.05 0.06 0.05 0.06 0.05 l -0.1,0.05 v 0.05 0.05 0.04 l -0.1,0.04 v 0.04 0.04 l -0.1,0.02 v 0.01 0.02 0.01 l -0.1,0.02 v 0.01 0.01 0.02 l -0.1,0.01 v 0.01 0 l -0.1,0.01 v 0.01 0 l -0.1,0.01 v 0 0 h -0.1 c -0.8,0 -0.8,-0.8 -0.8,-1.36 v -32.15 c 0,-0.52 0,-1.36 0.8,-1.36 0.9,0 0.9,0.81 0.9,1.36 z"
           inkscape:connector-curvature="0"
           style="fill:#000000;stroke-width:0" /><path
           id="path56338"
           d="m 1395.1,374.88 h 10.7 c 0.5,0 1.3,0 1.3,0.84 0,0.87 -0.8,0.87 -1.3,0.87 h -10.7 v 10.7 c 0,0.46 0,1.29 -0.8,1.29 -0.9,0 -0.9,-0.8 -0.9,-1.29 v -10.7 h -10.7 c -0.4,0 -1.3,0 -1.3,-0.84 0,-0.87 0.8,-0.87 1.3,-0.87 h 10.7 v -10.7 c 0,-0.46 0,-1.29 0.9,-1.29 0.8,0 0.8,0.8 0.8,1.29 z"
           inkscape:connector-curvature="0"
           style="fill:#000000;stroke-width:0" /><path
           id="path56340"
           d="m 1416.8,391.79 v 0.05 0.05 0.06 0.05 0.11 0.06 0.06 0.05 l -0.1,0.06 v 0.06 0.05 0.06 0.05 0.06 0.05 l -0.1,0.05 v 0.05 0.05 0.04 l -0.1,0.04 v 0.04 0.04 l -0.1,0.02 v 0.01 0.02 0.01 l -0.1,0.02 v 0.01 0.01 0.02 l -0.1,0.01 v 0.01 0 l -0.1,0.01 v 0.01 0 l -0.1,0.01 v 0 0 h -0.1 c -0.8,0 -0.8,-0.8 -0.8,-1.36 v -32.15 c 0,-0.52 0,-1.36 0.8,-1.36 0.9,0 0.9,0.81 0.9,1.36 z"
           inkscape:connector-curvature="0"
           style="fill:#000000;stroke-width:0" /><path
           id="path56342"
           d="m 1424.5,388.86 0.2,-0.02 0.2,-0.03 0.2,-0.04 0.2,-0.05 0.2,-0.06 0.2,-0.07 0.2,-0.07 0.2,-0.09 0.2,-0.1 0.2,-0.11 0.2,-0.12 0.2,-0.13 0.2,-0.14 0.2,-0.15 0.2,-0.17 0.1,-0.18 0.2,-0.19 0.2,-0.21 0.1,-0.22 0.2,-0.24 0.2,-0.24 0.1,-0.27 0.2,-0.28 0.1,-0.29 0.1,-0.31 0.2,-0.32 0.1,-0.35 0.1,-0.36 0.2,-0.37 0.1,-0.39 0.1,-0.42 0.1,-0.42 c 0.6,-2.58 0.8,-5.44 0.8,-8.44 0,-2.72 -0.2,-5.69 -0.4,-7.39 -0.1,-0.49 -0.1,-0.56 -0.1,-0.67 0,-0.38 0.1,-0.66 0.4,-0.66 0.3,0 5.6,3.52 10.7,8.82 5.2,5.3 6.8,9.94 6.8,12.45 0,2.13 -1.2,4.26 -4.2,4.26 -0.9,-0.67 -1.3,-2.27 -1.3,-2.79 0,-0.63 0.2,-0.63 0.6,-0.67 2.6,-0.27 3.2,-2.26 3.2,-2.96 0,-2.51 -5.8,-9.42 -13,-14.44 0.2,2.24 0.2,4.19 0.2,5.55 0,2.68 0,15.31 -7.2,15.31 -0.8,0 -2.3,-0.56 -2.6,-1.75 0,-0.03 0.2,-0.17 0.3,-0.17 z"
           inkscape:connector-curvature="0"
           style="fill:#000000;stroke-width:0" /><path
           id="path56344"
           d="m 1456.8,391.79 v 0.05 0.05 0.06 0.05 0.11 0.06 0.06 0.05 l -0.1,0.06 v 0.06 0.05 0.06 0.05 0.06 0.05 l -0.1,0.05 v 0.05 0.05 0.04 l -0.1,0.04 v 0.04 0.04 l -0.1,0.02 v 0.01 0.02 0.01 l -0.1,0.02 v 0.01 0.01 0.02 l -0.1,0.01 v 0.01 0 l -0.1,0.01 v 0.01 0 l -0.1,0.01 v 0 0 h -0.1 c -0.8,0 -0.8,-0.8 -0.8,-1.36 v -32.15 c 0,-0.52 0,-1.36 0.8,-1.36 0.9,0 0.9,0.81 0.9,1.36 z"
           inkscape:connector-curvature="0"
           style="fill:#000000;stroke-width:0" /></g>    </g>
  </g>
</svg>
