<?xml version="1.0" encoding="UTF-8" standalone="no"?>
<!-- Created with Inkscape (http://www.inkscape.org/) -->

<svg
   xmlns:dc="http://purl.org/dc/elements/1.1/"
   xmlns:cc="http://creativecommons.org/ns#"
   xmlns:rdf="http://www.w3.org/1999/02/22-rdf-syntax-ns#"
   xmlns:svg="http://www.w3.org/2000/svg"
   xmlns="http://www.w3.org/2000/svg"
   xmlns:sodipodi="http://sodipodi.sourceforge.net/DTD/sodipodi-0.dtd"
   xmlns:inkscape="http://www.inkscape.org/namespaces/inkscape"
   width="190.54813mm"
   height="38.737278mm"
   viewBox="0 0 190.54813 38.737277"
   version="1.1"
   id="svg8"
   inkscape:version="0.92.4 (unknown)"
   sodipodi:docname="bayesian-optimization-algorithm.svg"
   inkscape:export-filename="bayesian-optimization-algorithm.png"
   inkscape:export-xdpi="98.620003"
   inkscape:export-ydpi="98.620003">
  <defs
     id="defs2" />
  <sodipodi:namedview
     id="base"
     pagecolor="#ffffff"
     bordercolor="#666666"
     borderopacity="1.0"
     inkscape:pageopacity="0.0"
     inkscape:pageshadow="2"
     inkscape:zoom="0.98994949"
     inkscape:cx="360.95047"
     inkscape:cy="47.420725"
     inkscape:document-units="mm"
     inkscape:current-layer="layer1"
     showgrid="false"
     inkscape:window-width="1312"
     inkscape:window-height="1028"
     inkscape:window-x="608"
     inkscape:window-y="24"
     inkscape:window-maximized="0" />
  <metadata
     id="metadata5">
    <rdf:RDF>
      <cc:Work
         rdf:about="">
        <dc:format>image/svg+xml</dc:format>
        <dc:type
           rdf:resource="http://purl.org/dc/dcmitype/StillImage" />
        <dc:title />
      </cc:Work>
    </rdf:RDF>
  </metadata>
  <g
     inkscape:label="Layer 1"
     inkscape:groupmode="layer"
     id="layer1"
     transform="translate(-57.385611,-14.770219)">
    <rect
       style="opacity:1;vector-effect:none;fill:none;fill-opacity:1;stroke:#000000;stroke-width:0.42333333;stroke-linecap:butt;stroke-linejoin:miter;stroke-miterlimit:3.6965518;stroke-dasharray:none;stroke-dashoffset:0;stroke-opacity:1"
       id="rect4518"
       width="190.2296"
       height="38.596169"
       x="57.533833"
       y="14.840775" />
    <text
       xml:space="preserve"
       style="font-style:normal;font-variant:normal;font-weight:bold;font-stretch:normal;font-size:3.52777767px;line-height:1.25;font-family:sans-serif;-inkscape-font-specification:'sans-serif, Bold';font-variant-ligatures:normal;font-variant-caps:normal;font-variant-numeric:normal;font-feature-settings:normal;text-align:start;letter-spacing:0px;word-spacing:0px;writing-mode:lr-tb;text-anchor:start;fill:#000000;fill-opacity:1;stroke:none;stroke-width:0.26458332"
       x="58.586308"
       y="18.620535"
       id="text4522"><tspan
         sodipodi:role="line"
         id="tspan4520"
         x="58.586308"
         y="18.620535"
         style="font-style:normal;font-variant:normal;font-weight:bold;font-stretch:normal;font-size:3.52777767px;font-family:sans-serif;-inkscape-font-specification:'sans-serif, Bold';font-variant-ligatures:normal;font-variant-caps:normal;font-variant-numeric:normal;font-feature-settings:normal;text-align:start;writing-mode:lr-tb;text-anchor:start;stroke-width:0.26458332">알고리즘</tspan></text>
    <text
       id="text4526"
       y="18.620535"
       x="73.894341"
       style="font-style:normal;font-variant:normal;font-weight:normal;font-stretch:normal;font-size:3.52777767px;line-height:1.25;font-family:serif;-inkscape-font-specification:'serif, Normal';font-variant-ligatures:normal;font-variant-caps:normal;font-variant-numeric:normal;font-feature-settings:normal;text-align:start;letter-spacing:0px;word-spacing:0px;writing-mode:lr-tb;text-anchor:start;fill:#000000;fill-opacity:1;stroke:none;stroke-width:0.26458332"
       xml:space="preserve"><tspan
         style="font-style:normal;font-variant:normal;font-weight:normal;font-stretch:normal;font-size:3.52777767px;font-family:serif;-inkscape-font-specification:'serif, Normal';font-variant-ligatures:normal;font-variant-caps:normal;font-variant-numeric:normal;font-feature-settings:normal;text-align:start;writing-mode:lr-tb;text-anchor:start;stroke-width:0.26458332"
         y="18.620535"
         x="73.894341"
         id="tspan4524"
         sodipodi:role="line">Bayesian Optimization</tspan></text>
    <path
       style="fill:none;stroke:#000000;stroke-width:0.42333333;stroke-linecap:butt;stroke-linejoin:miter;stroke-opacity:1;stroke-miterlimit:3.6965518;stroke-dasharray:none"
       d="M 57.385611,20.766981 H 247.93374"
       id="path4536"
       inkscape:connector-curvature="0" />
    <g
       id="g6250">
      <g
         id="g5819">
        <text
           xml:space="preserve"
           style="font-style:normal;font-variant:normal;font-weight:normal;font-stretch:normal;font-size:3.52777767px;line-height:1.25;font-family:serif;-inkscape-font-specification:'serif, Normal';font-variant-ligatures:normal;font-variant-caps:normal;font-variant-numeric:normal;font-feature-settings:normal;text-align:start;letter-spacing:0px;word-spacing:0px;writing-mode:lr-tb;text-anchor:start;fill:#000000;fill-opacity:1;stroke:none;stroke-width:0.26458332"
           x="58.846432"
           y="25.438826"
           id="text5078"><tspan
             sodipodi:role="line"
             id="tspan5076"
             x="58.846432"
             y="25.438826"
             style="font-style:normal;font-variant:normal;font-weight:normal;font-stretch:normal;font-size:3.52777767px;font-family:serif;-inkscape-font-specification:'serif, Normal';font-variant-ligatures:normal;font-variant-caps:normal;font-variant-numeric:normal;font-feature-settings:normal;text-align:start;writing-mode:lr-tb;text-anchor:start;stroke-width:0.26458332">1:</tspan></text>
        <g
           id="g5297"
           transform="translate(0,-2.3434505)">
          <text
             xml:space="preserve"
             style="font-style:normal;font-variant:normal;font-weight:normal;font-stretch:normal;font-size:3.52777767px;line-height:1.25;font-family:serif;-inkscape-font-specification:'serif, Normal';font-variant-ligatures:normal;font-variant-caps:normal;font-variant-numeric:normal;font-feature-settings:normal;text-align:start;letter-spacing:0px;word-spacing:0px;writing-mode:lr-tb;text-anchor:start;fill:#000000;fill-opacity:1;stroke:none;stroke-width:0.26458332"
             x="64.592728"
             y="27.844288"
             id="text5090"><tspan
               sodipodi:role="line"
               id="tspan5088"
               x="64.592728"
               y="27.844288"
               style="font-style:normal;font-variant:normal;font-weight:bold;font-stretch:normal;font-size:3.52777767px;font-family:serif;-inkscape-font-specification:'serif, Normal';font-variant-ligatures:normal;font-variant-caps:normal;font-variant-numeric:normal;font-feature-settings:normal;text-align:start;writing-mode:lr-tb;text-anchor:start;stroke-width:0.26458332">for                do</tspan></text>
          <g
             style="stroke-width:0.50751531"
             transform="matrix(1.9703838,0,0,1.9703838,-0.75119629,-62.509653)"
             id="g5126">
            <g
               style="font-style:normal;font-variant:normal;font-weight:normal;font-stretch:normal;letter-spacing:normal;word-spacing:normal;text-anchor:start;fill:none;fill-opacity:1;fill-rule:evenodd;stroke:#000000;stroke-width:0.50751531;stroke-linecap:butt;stroke-linejoin:miter;stroke-miterlimit:10.43299961;stroke-dasharray:none;stroke-dashoffset:0;stroke-opacity:1"
               id="content"
               transform="matrix(0.03853917,0,0,-0.03853917,-6.7443552,59.211863)"
               xml:space="preserve"
               stroke-miterlimit="10.433"
               font-style="normal"
               font-variant="normal"
               font-weight="normal"
               font-stretch="normal"
               font-size-adjust="none"
               letter-spacing="normal"
               word-spacing="normal"><path
                 style="fill:#000000;stroke-width:0"
                 inkscape:connector-curvature="0"
                 d="m 1140.4,366.36 h 4.7 c 1,0 1.5,0 1.5,1 0,0.55 -0.5,0.55 -1.4,0.55 h -4.4 c 1.8,7.08 2.1,8.08 2.1,8.38 0,0.84 -0.6,1.34 -1.5,1.34 -0.1,0 -1.5,-0.05 -2,-1.8 l -1.9,-7.92 h -4.7 c -1,0 -1.5,0 -1.5,-0.94 0,-0.61 0.4,-0.61 1.4,-0.61 h 4.4 c -3.6,-14.14 -3.8,-14.98 -3.8,-15.89 0,-2.68 1.9,-4.58 4.6,-4.58 5.1,0 7.9,7.27 7.9,7.68 0,0.5 -0.4,0.5 -0.6,0.5 -0.4,0 -0.5,-0.16 -0.7,-0.71 -2.2,-5.17 -4.8,-6.37 -6.5,-6.37 -1.1,0 -1.6,0.65 -1.6,2.3 0,1.18 0.1,1.54 0.3,2.39 z"
                 id="path5105" /><path
                 style="fill:#000000;stroke-width:0"
                 inkscape:connector-curvature="0"
                 d="m 1196.2,362.74 h 0.1 0.2 0.1 l 0.1,0.01 h 0.1 v 0.01 l 0.1,0.01 0.1,0.01 0.1,0.01 v 0.01 l 0.1,0.02 0.1,0.02 v 0.02 l 0.1,0.03 v 0.02 l 0.1,0.03 v 0.04 l 0.1,0.04 v 0.04 l 0.1,0.04 v 0.05 0.03 l 0.1,0.03 v 0.03 0.03 0.03 0.03 0.03 0.04 0.03 l 0.1,0.04 v 0.04 0.04 0.04 0.04 0.05 0.04 c 0,1 -1,1 -1.7,1 h -29.8 c -0.7,0 -1.6,0 -1.6,-1 0,-0.98 0.9,-0.98 1.6,-0.98 z"
                 id="path5107" /><path
                 style="fill:#000000;stroke-width:0"
                 inkscape:connector-curvature="0"
                 d="m 1196.2,353.07 h 0.1 0.1 0.1 0.1 l 0.1,0.01 h 0.1 l 0.1,0.01 v 0.01 l 0.1,0.01 0.1,0.01 v 0.01 l 0.1,0.02 0.1,0.02 v 0.02 l 0.1,0.03 v 0.02 l 0.1,0.04 v 0.03 l 0.1,0.04 v 0.04 l 0.1,0.05 v 0.02 0.03 0.02 l 0.1,0.03 v 0.03 0.03 0.03 0.04 0.03 0.04 0.03 l 0.1,0.04 v 0.04 0.04 0.04 0.05 0.04 0.05 c 0,1 -1,1 -1.7,1 h -29.8 c -0.7,0 -1.6,0 -1.6,-1 0,-1 0.9,-1 1.6,-1 z"
                 id="path5109" /><path
                 style="fill:#000000;stroke-width:0"
                 inkscape:connector-curvature="0"
                 d="m 1229.2,378.33 v 0.06 0.05 0.05 0.05 0.05 0.05 0.04 0.05 0.04 0.04 0.04 0.04 0.04 l -0.1,0.04 v 0.03 0.04 0.06 0.06 0.05 0.05 0.05 0.04 l -0.1,0.04 v 0.04 0.03 0.03 l -0.1,0.02 v 0.02 l -0.1,0.02 v 0.01 0.01 0 l -0.1,0.01 v 0.01 0 l -0.1,0.01 v 0 0.01 h -0.1 v 0 0.01 h -0.1 v 0 0 l -0.1,0.01 v 0 h -0.1 v 0 h -0.1 v 0 h -0.1 c -3.1,-3.19 -7.4,-3.19 -9,-3.19 v -1.55 c 1,0 3.9,0 6.5,1.3 v -25.81 c 0,-1.8 -0.2,-2.39 -4.7,-2.39 h -1.6 v -1.55 c 1.8,0.16 6.1,0.16 8.1,0.16 2,0 6.3,0 8.1,-0.16 v 1.55 h -1.6 c -4.5,0 -4.6,0.55 -4.6,2.39 z"
                 id="path5111" /><path
                 style="fill:#000000;stroke-width:0"
                 inkscape:connector-curvature="0"
                 d="m 1249.6,346.49 v 0.3 0.3 0.29 l -0.1,0.28 v 0.27 0.27 l -0.1,0.25 v 0.25 l -0.1,0.23 -0.1,0.23 v 0.22 l -0.1,0.21 -0.1,0.2 -0.1,0.2 -0.1,0.18 -0.1,0.17 -0.1,0.17 -0.1,0.15 -0.1,0.14 -0.1,0.14 -0.2,0.12 -0.1,0.11 -0.1,0.11 -0.2,0.09 -0.1,0.08 -0.2,0.07 -0.1,0.06 -0.2,0.05 -0.2,0.04 -0.1,0.03 -0.2,0.02 h -0.2 c -1.6,0 -2.6,-1.25 -2.6,-2.64 0,-1.34 1,-2.64 2.6,-2.64 0.6,0 1.3,0.2 1.8,0.64 0.1,0.11 0.1,0.16 0.2,0.16 0,0 0.1,-0.05 0.1,-0.75 0,-3.69 -1.7,-6.67 -3.4,-8.31 -0.5,-0.55 -0.5,-0.66 -0.5,-0.8 0,-0.36 0.2,-0.55 0.5,-0.55 0.5,0 4.5,3.83 4.5,9.66 z"
                 id="path5113" /><path
                 style="fill:#000000;stroke-width:0"
                 inkscape:connector-curvature="0"
                 d="m 1267.9,350.29 5.3,5.12 c 7.7,6.88 10.7,9.56 10.7,14.55 0,5.68 -4.5,9.67 -10.5,9.67 -5.7,0 -9.4,-4.59 -9.4,-9.03 0,-2.78 2.5,-2.78 2.7,-2.78 0.8,0 2.6,0.59 2.6,2.64 0,1.29 -0.9,2.59 -2.7,2.59 -0.4,0 -0.5,0 -0.6,-0.05 1.1,3.24 3.8,5.08 6.7,5.08 4.5,0 6.7,-4.04 6.7,-8.12 0,-3.99 -2.5,-7.92 -5.2,-11.02 l -9.6,-10.65 c -0.6,-0.55 -0.6,-0.65 -0.6,-1.85 h 18.5 l 1.4,8.67 h -1.2 c -0.3,-1.5 -0.6,-3.68 -1.1,-4.43 -0.4,-0.39 -3.7,-0.39 -4.8,-0.39 z"
                 id="path5115" /><path
                 style="fill:#000000;stroke-width:0"
                 inkscape:connector-curvature="0"
                 d="m 1296.6,346.49 v 0.3 0.3 0.29 0.28 l -0.1,0.27 v 0.27 l -0.1,0.25 v 0.25 l -0.1,0.23 v 0.23 l -0.1,0.22 -0.1,0.21 -0.1,0.2 v 0.2 l -0.1,0.18 -0.1,0.17 -0.2,0.17 -0.1,0.15 -0.1,0.14 -0.1,0.14 -0.1,0.12 -0.2,0.11 -0.1,0.11 -0.1,0.09 -0.2,0.08 -0.2,0.07 -0.1,0.06 -0.2,0.05 -0.1,0.04 -0.2,0.03 -0.2,0.02 h -0.2 c -1.6,0 -2.6,-1.25 -2.6,-2.64 0,-1.34 1,-2.64 2.6,-2.64 0.6,0 1.3,0.2 1.8,0.64 0.1,0.11 0.2,0.16 0.2,0.16 0.1,0 0.1,-0.05 0.1,-0.75 0,-3.69 -1.7,-6.67 -3.4,-8.31 -0.5,-0.55 -0.5,-0.66 -0.5,-0.8 0,-0.36 0.2,-0.55 0.5,-0.55 0.5,0 4.5,3.83 4.5,9.66 z"
                 id="path5117" /><path
                 style="fill:#000000;stroke-width:0"
                 inkscape:connector-curvature="0"
                 d="m 1318.2,349.08 -0.1,0.14 v 0.13 0.13 0.13 0.13 l -0.1,0.12 v 0.12 l -0.1,0.12 v 0.12 l -0.1,0.11 v 0.11 l -0.1,0.11 -0.1,0.1 -0.1,0.1 v 0.1 l -0.1,0.09 -0.1,0.09 -0.1,0.08 -0.1,0.08 -0.1,0.08 -0.1,0.07 -0.1,0.06 -0.1,0.06 -0.2,0.05 -0.1,0.05 -0.1,0.04 -0.1,0.04 -0.2,0.03 -0.1,0.02 -0.1,0.02 -0.2,0.01 h -0.1 c -1.4,0 -2.6,-1.2 -2.6,-2.64 0,-1.44 1.2,-2.64 2.6,-2.64 1.5,0 2.7,1.2 2.7,2.64 z"
                 id="path5119" /><path
                 style="fill:#000000;stroke-width:0"
                 inkscape:connector-curvature="0"
                 d="m 1331.9,349.08 v 0.14 0.13 0.13 0.13 0.13 l -0.1,0.12 v 0.12 l -0.1,0.12 v 0.12 l -0.1,0.11 v 0.11 l -0.1,0.11 -0.1,0.1 -0.1,0.1 v 0.1 l -0.1,0.09 -0.1,0.09 -0.1,0.08 -0.1,0.08 -0.1,0.08 -0.1,0.07 -0.1,0.06 -0.2,0.06 -0.1,0.05 -0.1,0.05 -0.1,0.04 -0.1,0.04 -0.2,0.03 -0.1,0.02 -0.1,0.02 -0.2,0.01 h -0.1 c -1.4,0 -2.6,-1.2 -2.6,-2.64 0,-1.44 1.2,-2.64 2.6,-2.64 1.5,0 2.6,1.2 2.6,2.64 z"
                 id="path5121" /><path
                 style="fill:#000000;stroke-width:0"
                 inkscape:connector-curvature="0"
                 d="m 1345.7,349.08 v 0.14 0.13 0.13 0.13 0.13 l -0.1,0.12 v 0.12 l -0.1,0.12 v 0.12 l -0.1,0.11 v 0.11 l -0.1,0.11 -0.1,0.1 -0.1,0.1 v 0.1 l -0.1,0.09 -0.1,0.09 -0.1,0.08 -0.1,0.08 -0.1,0.08 -0.1,0.07 -0.1,0.06 -0.2,0.06 -0.1,0.05 -0.1,0.05 -0.1,0.04 -0.1,0.04 -0.2,0.03 -0.1,0.02 -0.1,0.02 -0.2,0.01 h -0.1 c -1.4,0 -2.6,-1.2 -2.6,-2.64 0,-1.44 1.2,-2.64 2.6,-2.64 1.5,0 2.6,1.2 2.6,2.64 z"
                 id="path5123" /></g>          </g>
        </g>
      </g>
    </g>
    <g
       id="g6278">
      <text
         id="text5156"
         y="51.31562"
         x="58.846432"
         style="font-style:normal;font-variant:normal;font-weight:normal;font-stretch:normal;font-size:3.52777767px;line-height:1.25;font-family:serif;-inkscape-font-specification:'serif, Normal';font-variant-ligatures:normal;font-variant-caps:normal;font-variant-numeric:normal;font-feature-settings:normal;text-align:start;letter-spacing:0px;word-spacing:0px;writing-mode:lr-tb;text-anchor:start;fill:#000000;fill-opacity:1;stroke:none;stroke-width:0.26458332"
         xml:space="preserve"><tspan
           style="font-style:normal;font-variant:normal;font-weight:normal;font-stretch:normal;font-size:3.52777767px;font-family:serif;-inkscape-font-specification:'serif, Normal';font-variant-ligatures:normal;font-variant-caps:normal;font-variant-numeric:normal;font-feature-settings:normal;text-align:start;writing-mode:lr-tb;text-anchor:start;stroke-width:0.26458332"
           y="51.31562"
           x="58.846432"
           id="tspan5154"
           sodipodi:role="line">5:</tspan></text>
      <text
         id="text5190"
         y="51.424141"
         x="64.592728"
         style="font-style:normal;font-variant:normal;font-weight:normal;font-stretch:normal;font-size:3.52777767px;line-height:1.25;font-family:serif;-inkscape-font-specification:'serif, Normal';font-variant-ligatures:normal;font-variant-caps:normal;font-variant-numeric:normal;font-feature-settings:normal;text-align:start;letter-spacing:0px;word-spacing:0px;writing-mode:lr-tb;text-anchor:start;fill:#000000;fill-opacity:1;stroke:none;stroke-width:0.26458332"
         xml:space="preserve"><tspan
           style="font-style:normal;font-variant:normal;font-weight:bold;font-stretch:normal;font-size:3.52777767px;font-family:serif;-inkscape-font-specification:'serif, Normal';font-variant-ligatures:normal;font-variant-caps:normal;font-variant-numeric:normal;font-feature-settings:normal;text-align:start;writing-mode:lr-tb;text-anchor:start;stroke-width:0.26458332"
           y="51.424141"
           x="64.592728"
           id="tspan5188"
           sodipodi:role="line">end for</tspan></text>
    </g>
    <g
       id="g6272">
      <text
         xml:space="preserve"
         style="font-style:normal;font-variant:normal;font-weight:normal;font-stretch:normal;font-size:3.52777767px;line-height:1.25;font-family:serif;-inkscape-font-specification:'serif, Normal';font-variant-ligatures:normal;font-variant-caps:normal;font-variant-numeric:normal;font-feature-settings:normal;text-align:start;letter-spacing:0px;word-spacing:0px;writing-mode:lr-tb;text-anchor:start;fill:#000000;fill-opacity:1;stroke:none;stroke-width:0.26458332"
         x="58.846432"
         y="46.133392"
         id="text5152"><tspan
           sodipodi:role="line"
           id="tspan5150"
           x="58.846432"
           y="46.133392"
           style="font-style:normal;font-variant:normal;font-weight:normal;font-stretch:normal;font-size:3.52777767px;font-family:serif;-inkscape-font-specification:'serif, Normal';font-variant-ligatures:normal;font-variant-caps:normal;font-variant-numeric:normal;font-feature-settings:normal;text-align:start;writing-mode:lr-tb;text-anchor:start;stroke-width:0.26458332">4:</tspan></text>
      <text
         id="text5194"
         y="46.1595"
         x="69.136307"
         style="font-style:normal;font-variant:normal;font-weight:normal;font-stretch:normal;font-size:3.17499995px;line-height:1.25;font-family:sans-serif;-inkscape-font-specification:'sans-serif, Normal';font-variant-ligatures:normal;font-variant-caps:normal;font-variant-numeric:normal;font-feature-settings:normal;text-align:start;letter-spacing:0px;word-spacing:0px;writing-mode:lr-tb;text-anchor:start;fill:#000000;fill-opacity:1;stroke:none;stroke-width:0.26458332"
         xml:space="preserve"><tspan
           style="font-style:normal;font-variant:normal;font-weight:normal;font-stretch:normal;font-size:3.17499995px;font-family:sans-serif;-inkscape-font-specification:'sans-serif, Normal';font-variant-ligatures:normal;font-variant-caps:normal;font-variant-numeric:normal;font-feature-settings:normal;text-align:start;writing-mode:lr-tb;text-anchor:start;stroke-width:0.26458332"
           y="46.1595"
           x="69.136307"
           id="tspan5192"
           sodipodi:role="line">기존 입력값-함숫값 점들의 모음에                           를 추가하고, Surrogate Model로 확률적 추정을 다시 수행한다.</tspan></text>
      <g
         style="stroke-width:0.61678195"
         transform="matrix(1.6213187,0,0,1.6213187,55.127954,-85.410359)"
         id="g5263">
        <g
           style="font-style:normal;font-variant:normal;font-weight:normal;font-stretch:normal;letter-spacing:normal;word-spacing:normal;text-anchor:start;fill:none;fill-opacity:1;fill-rule:evenodd;stroke:#000000;stroke-width:0.61678195;stroke-linecap:butt;stroke-linejoin:miter;stroke-miterlimit:10.43299961;stroke-dasharray:none;stroke-dashoffset:0;stroke-opacity:1"
           id="g5261"
           transform="matrix(0.04121187,0,0,-0.04121187,-7.2120772,95.219453)"
           xml:space="preserve"
           stroke-miterlimit="10.433"
           font-style="normal"
           font-variant="normal"
           font-weight="normal"
           font-stretch="normal"
           font-size-adjust="none"
           letter-spacing="normal"
           word-spacing="normal"><path
             style="fill:#000000;stroke-width:0"
             inkscape:connector-curvature="0"
             d="m 1095.5,334.49 v 0.02 0.03 0.01 0.02 0.01 0.02 0.02 0.01 0.02 0.02 0.03 l -0.1,0.02 v 0.02 0.03 0.03 0.03 l -0.1,0.04 v 0.03 0.02 0.02 0.02 l -0.1,0.02 v 0.02 0.03 0.02 0.02 l -0.1,0.03 v 0.03 0.02 0.03 l -0.1,0.03 v 0.03 0.03 0.03 l -0.1,0.03 v 0.03 0.04 l -0.1,0.03 v 0.04 0.04 l -0.1,0.03 v 0.04 c -6.2,6.28 -7.8,15.69 -7.8,23.31 0,8.68 1.9,17.35 8,23.57 0.6,0.61 0.6,0.7 0.6,0.86 0,0.34 -0.2,0.48 -0.5,0.48 -0.5,0 -4.9,-3.37 -7.9,-9.7 -2.5,-5.49 -3.1,-11.02 -3.1,-15.21 0,-3.89 0.5,-9.9 3.3,-15.54 2.9,-6.13 7.2,-9.36 7.7,-9.36 0.3,0 0.5,0.14 0.5,0.5 z"
             id="path5233" /><path
             style="fill:#000000;stroke-width:0"
             inkscape:connector-curvature="0"
             d="m 1115,361.49 v 0.13 l 0.1,0.15 v 0.16 l 0.1,0.18 v 0.2 l 0.1,0.2 v 0.22 l 0.1,0.22 0.1,0.24 0.1,0.24 0.1,0.24 0.1,0.25 0.1,0.25 0.1,0.25 0.1,0.25 0.2,0.24 0.1,0.24 0.2,0.24 0.1,0.23 0.2,0.23 0.2,0.21 0.2,0.2 0.2,0.19 0.2,0.18 0.3,0.16 0.2,0.14 0.1,0.07 0.2,0.06 0.1,0.05 0.1,0.05 0.2,0.05 0.1,0.04 0.2,0.03 0.1,0.03 0.2,0.02 0.1,0.02 0.2,0.01 h 0.1 c 0.3,0 1.5,0 2.5,-0.64 -1.4,-0.25 -2.4,-1.5 -2.4,-2.68 0,-0.8 0.6,-1.75 1.9,-1.75 1.1,0 2.7,0.89 2.7,2.89 0,2.59 -2.9,3.28 -4.6,3.28 -2.9,0 -4.7,-2.64 -5.2,-3.78 -1.3,3.28 -4,3.78 -5.4,3.78 -5.2,0 -8.1,-6.42 -8.1,-7.67 0,-0.5 0.5,-0.5 0.6,-0.5 0.4,0 0.6,0.1 0.7,0.54 1.7,5.28 5,6.53 6.7,6.53 0.9,0 2.6,-0.43 2.6,-3.32 0,-1.55 -0.8,-4.9 -2.6,-11.86 -0.8,-3.1 -2.6,-5.19 -4.8,-5.19 -0.3,0 -1.4,0 -2.5,0.65 1.3,0.24 2.4,1.29 2.4,2.69 0,1.35 -1.1,1.74 -1.9,1.74 -1.5,0 -2.7,-1.3 -2.7,-2.89 0,-2.29 2.5,-3.29 4.7,-3.29 3.3,0 5.1,3.49 5.2,3.79 0.6,-1.85 2.4,-3.79 5.4,-3.79 5.1,0 8,6.43 8,7.68 0,0.5 -0.5,0.5 -0.6,0.5 -0.5,0 -0.6,-0.21 -0.7,-0.55 -1.6,-5.33 -5,-6.53 -6.6,-6.53 -2,0 -2.8,1.59 -2.8,3.3 0,1.09 0.4,2.18 0.9,4.37 z"
             id="path5235" /><path
             style="fill:#000000;stroke-width:0"
             inkscape:connector-curvature="0"
             d="m 1135.4,352.64 h 3.5 c 0.7,0 1.1,0 1.1,0.77 0,0.48 -0.4,0.48 -1,0.48 h -3.3 l 1.3,5.16 c 0,0.17 0.1,0.34 0.1,0.49 0,0.64 -0.5,1.12 -1.2,1.12 -0.9,0 -1.4,-0.59 -1.7,-1.5 -0.2,-0.87 0.3,0.8 -1.3,-5.27 h -3.5 c -0.7,0 -1.1,0 -1.1,-0.76 0,-0.49 0.4,-0.49 1,-0.49 h 3.3 l -2,-8.21 c -0.3,-0.88 -0.6,-2.13 -0.6,-2.58 0,-2.06 1.8,-3.31 3.8,-3.31 3.8,0 6,4.87 6,5.32 0,0.46 -0.4,0.46 -0.5,0.46 -0.4,0 -0.5,-0.08 -0.7,-0.66 -1,-2.2 -2.8,-4.16 -4.7,-4.16 -0.8,0 -1.2,0.46 -1.2,1.71 0,0.36 0.1,1.09 0.2,1.43 z"
             id="path5237" /><path
             style="fill:#000000;stroke-width:0"
             inkscape:connector-curvature="0"
             d="m 1157.9,346.75 h 10.7 c 0.5,0 1.3,0 1.3,0.85 0,0.86 -0.8,0.86 -1.3,0.86 h -10.7 v 10.7 c 0,0.45 0,1.28 -0.8,1.28 -0.9,0 -0.9,-0.8 -0.9,-1.28 v -10.7 h -10.7 c -0.4,0 -1.3,0 -1.3,-0.83 0,-0.88 0.8,-0.88 1.3,-0.88 h 10.7 v -10.7 c 0,-0.45 0,-1.28 0.9,-1.28 0.8,0 0.8,0.8 0.8,1.28 z"
             id="path5239" /><path
             style="fill:#000000;stroke-width:0"
             inkscape:connector-curvature="0"
             d="m 1184.1,361.04 v 0.04 0.04 0.04 0.04 0.04 0.04 0.04 0.03 0.03 0.04 0.03 0.03 0.03 0.03 l -0.1,0.02 v 0.03 0.03 0.02 0.05 0.04 0.04 0.03 0.03 l -0.1,0.03 v 0.02 0.03 0.02 l -0.1,0.01 v 0.02 l -0.1,0.01 v 0.01 0.01 0 l -0.1,0.01 v 0 0 l -0.1,0.01 v 0 0 0 h -0.1 v 0.01 h -0.1 v 0 0 h -0.1 v 0 0 h -0.1 v 0 h -0.1 c -2.2,-2.2 -5.4,-2.23 -6.8,-2.23 v -1.25 c 0.8,0 3.1,0 5,0.96 v -17.76 c 0,-1.16 0,-1.61 -3.4,-1.61 h -1.4 v -1.25 c 0.7,0.03 4.9,0.14 6.3,0.14 1,0 5.4,-0.11 6.2,-0.14 v 1.25 h -1.3 c -3.5,0 -3.5,0.45 -3.5,1.61 z"
             id="path5241" /><path
             style="fill:#000000;stroke-width:0"
             inkscape:connector-curvature="0"
             d="m 1204.9,346.49 v 0.3 0.3 0.29 0.28 0.27 l -0.1,0.27 v 0.25 l -0.1,0.25 v 0.23 l -0.1,0.23 -0.1,0.22 v 0.21 l -0.1,0.2 -0.1,0.2 -0.1,0.18 -0.1,0.17 -0.1,0.17 -0.1,0.15 -0.2,0.14 -0.1,0.14 -0.1,0.12 -0.1,0.11 -0.2,0.11 -0.1,0.09 -0.2,0.08 -0.1,0.07 -0.2,0.06 -0.1,0.05 -0.2,0.04 -0.2,0.03 -0.2,0.02 h -0.1 c -1.7,0 -2.7,-1.25 -2.7,-2.64 0,-1.34 1,-2.64 2.7,-2.64 0.6,0 1.2,0.2 1.7,0.64 0.2,0.11 0.2,0.16 0.3,0.16 0,0 0.1,-0.05 0.1,-0.75 0,-3.69 -1.8,-6.67 -3.4,-8.31 -0.6,-0.55 -0.6,-0.66 -0.6,-0.8 0,-0.36 0.3,-0.55 0.5,-0.55 0.6,0 4.5,3.83 4.5,9.66 z"
             id="path5243" /><path
             style="fill:#000000;stroke-width:0"
             inkscape:connector-curvature="0"
             d="m 1235.2,366.36 h 4.3 c 1,0 1.5,0 1.5,1 0,0.55 -0.5,0.55 -1.4,0.55 h -4.1 l 1,5.69 c 0.3,1.04 0.9,4.58 1.3,5.17 0.4,0.95 1.2,1.7 2.3,1.7 0.2,0 1.5,0 2.4,-0.9 -2.2,-0.19 -2.7,-1.94 -2.7,-2.69 0,-1.14 0.9,-1.74 1.9,-1.74 1.3,0 2.7,1.1 2.7,2.99 0,2.3 -2.3,3.44 -4.3,3.44 -1.7,0 -4.9,-0.89 -6.3,-5.83 -0.3,-1.05 -0.5,-1.55 -1.7,-7.83 h -3.4 c -1,0 -1.5,0 -1.5,-0.94 0,-0.61 0.4,-0.61 1.4,-0.61 h 3.3 l -3.8,-19.67 c -0.9,-4.83 -1.7,-9.37 -4.3,-9.37 -0.2,0 -1.4,0 -2.4,0.9 2.3,0.14 2.7,1.94 2.7,2.69 0,1.14 -0.9,1.75 -1.8,1.75 -1.3,0 -2.7,-1.09 -2.7,-3 0,-2.23 2.2,-3.44 4.2,-3.44 2.7,0 4.7,2.94 5.6,4.85 1.6,3.14 2.8,9.15 2.8,9.51 z"
             id="path5245" /><path
             style="fill:#000000;stroke-width:0"
             inkscape:connector-curvature="0"
             d="m 1263.2,334.49 v 0.02 0.03 0.01 0.02 0.01 l -0.1,0.02 v 0.02 0.01 0.02 0.02 0.03 0.02 0.02 0.03 l -0.1,0.03 v 0.03 0.04 0.03 l -0.1,0.02 v 0.02 0.02 0.02 0.02 l -0.1,0.03 v 0.02 0.02 0.03 0.03 l -0.1,0.02 v 0.03 0.03 0.03 l -0.1,0.03 v 0.03 0.03 l -0.1,0.03 v 0.04 0.03 l -0.1,0.04 v 0.04 0.03 l -0.1,0.04 c -6.2,6.28 -7.8,15.69 -7.8,23.31 0,8.68 1.9,17.35 8,23.57 0.7,0.61 0.7,0.7 0.7,0.86 0,0.34 -0.2,0.48 -0.5,0.48 -0.5,0 -5,-3.37 -7.9,-9.7 -2.6,-5.49 -3.2,-11.02 -3.2,-15.21 0,-3.89 0.6,-9.9 3.3,-15.54 3,-6.13 7.3,-9.36 7.8,-9.36 0.3,0 0.5,0.14 0.5,0.5 z"
             id="path5247" /><path
             style="fill:#000000;stroke-width:0"
             inkscape:connector-curvature="0"
             d="m 1282.6,361.49 0.1,0.13 v 0.15 0.16 l 0.1,0.18 v 0.2 l 0.1,0.2 0.1,0.22 v 0.22 l 0.1,0.24 0.1,0.24 0.1,0.24 0.1,0.25 0.1,0.25 0.1,0.25 0.2,0.25 0.1,0.24 0.1,0.24 0.2,0.24 0.2,0.23 0.1,0.23 0.2,0.21 0.2,0.2 0.2,0.19 0.3,0.18 0.2,0.16 0.2,0.14 0.2,0.07 0.1,0.06 0.1,0.05 0.2,0.05 0.1,0.05 0.1,0.04 0.2,0.03 0.1,0.03 0.2,0.02 0.1,0.02 0.2,0.01 h 0.2 c 0.2,0 1.4,0 2.5,-0.64 -1.4,-0.25 -2.4,-1.5 -2.4,-2.68 0,-0.8 0.5,-1.75 1.9,-1.75 1.1,0 2.6,0.89 2.6,2.89 0,2.59 -2.9,3.28 -4.6,3.28 -2.9,0 -4.6,-2.64 -5.2,-3.78 -1.3,3.28 -4,3.78 -5.4,3.78 -5.2,0 -8,-6.42 -8,-7.67 0,-0.5 0.5,-0.5 0.6,-0.5 0.4,0 0.5,0.1 0.6,0.54 1.7,5.28 5,6.53 6.7,6.53 0.9,0 2.7,-0.43 2.7,-3.32 0,-1.55 -0.9,-4.9 -2.7,-11.86 -0.8,-3.1 -2.5,-5.19 -4.7,-5.19 -0.3,0 -1.5,0 -2.5,0.65 1.2,0.24 2.3,1.29 2.3,2.69 0,1.35 -1.1,1.74 -1.8,1.74 -1.5,0 -2.8,-1.3 -2.8,-2.89 0,-2.29 2.5,-3.29 4.7,-3.29 3.3,0 5.1,3.49 5.2,3.79 0.6,-1.85 2.4,-3.79 5.4,-3.79 5.2,0 8,6.43 8,7.68 0,0.5 -0.4,0.5 -0.6,0.5 -0.4,0 -0.5,-0.21 -0.6,-0.55 -1.7,-5.33 -5.1,-6.53 -6.7,-6.53 -1.9,0 -2.7,1.59 -2.7,3.3 0,1.09 0.3,2.18 0.8,4.37 z"
             id="path5249" /><path
             style="fill:#000000;stroke-width:0"
             inkscape:connector-curvature="0"
             d="m 1303,352.64 h 3.6 c 0.6,0 1.1,0 1.1,0.77 0,0.48 -0.5,0.48 -1.1,0.48 h -3.3 l 1.3,5.16 c 0,0.17 0.1,0.34 0.1,0.49 0,0.64 -0.5,1.12 -1.2,1.12 -0.8,0 -1.4,-0.59 -1.6,-1.5 -0.2,-0.87 0.2,0.8 -1.3,-5.27 h -3.6 c -0.6,0 -1.1,0 -1.1,-0.76 0,-0.49 0.4,-0.49 1.1,-0.49 h 3.2 l -2,-8.21 c -0.2,-0.88 -0.5,-2.13 -0.5,-2.58 0,-2.06 1.7,-3.31 3.7,-3.31 3.9,0 6.1,4.87 6.1,5.32 0,0.46 -0.5,0.46 -0.6,0.46 -0.4,0 -0.4,-0.08 -0.7,-0.66 -1,-2.2 -2.8,-4.16 -4.7,-4.16 -0.7,0 -1.2,0.46 -1.2,1.71 0,0.36 0.1,1.09 0.2,1.43 z"
             id="path5251" /><path
             style="fill:#000000;stroke-width:0"
             inkscape:connector-curvature="0"
             d="m 1325.6,346.75 h 10.6 c 0.5,0 1.3,0 1.3,0.85 0,0.86 -0.8,0.86 -1.3,0.86 h -10.6 v 10.7 c 0,0.45 0,1.28 -0.9,1.28 -0.8,0 -0.8,-0.8 -0.8,-1.28 v -10.7 h -10.7 c -0.5,0 -1.3,0 -1.3,-0.83 0,-0.88 0.8,-0.88 1.3,-0.88 h 10.7 v -10.7 c 0,-0.45 0,-1.28 0.8,-1.28 0.9,0 0.9,0.8 0.9,1.28 z"
             id="path5253" /><path
             style="fill:#000000;stroke-width:0"
             inkscape:connector-curvature="0"
             d="m 1351.7,361.04 v 0.04 0.04 0.04 0.04 0.04 0.04 0.04 0.03 0.03 0.04 0.03 0.03 0.03 0.03 0.02 0.03 0.03 0.02 0.05 0.04 l -0.1,0.04 v 0.03 0.03 0.03 0.02 l -0.1,0.03 v 0.02 0.01 l -0.1,0.02 v 0.01 l -0.1,0.01 v 0.01 0 0.01 h -0.1 v 0 0.01 0 h -0.1 v 0 0 l -0.1,0.01 v 0 0 h -0.1 v 0 h -0.1 v 0 0 h -0.1 v 0 c -2.3,-2.2 -5.4,-2.23 -6.9,-2.23 v -1.25 c 0.9,0 3.2,0 5.1,0.96 v -17.76 c 0,-1.16 0,-1.61 -3.5,-1.61 h -1.3 v -1.25 c 0.6,0.03 4.9,0.14 6.2,0.14 1.1,0 5.5,-0.11 6.2,-0.14 v 1.25 h -1.3 c -3.5,0 -3.5,0.45 -3.5,1.61 z"
             id="path5255" /><path
             style="fill:#000000;stroke-width:0"
             inkscape:connector-curvature="0"
             d="m 1376.9,358.89 v 0.38 0.38 0.39 l -0.1,0.41 v 0.84 l -0.1,0.88 v 0.92 l -0.1,0.95 -0.2,0.98 -0.1,1 -0.2,1.02 -0.3,1.04 -0.2,1.05 -0.3,1.06 -0.4,1.06 -0.4,1.07 -0.2,0.53 -0.2,0.53 -0.3,0.53 -0.2,0.53 c -3,6.13 -7.3,9.36 -7.8,9.36 -0.3,0 -0.5,-0.19 -0.5,-0.48 0,-0.16 0,-0.25 1,-1.16 4.9,-4.92 7.7,-12.84 7.7,-23.27 0,-8.51 -1.8,-17.28 -8,-23.56 -0.7,-0.59 -0.7,-0.7 -0.7,-0.84 0,-0.3 0.2,-0.5 0.5,-0.5 0.5,0 5,3.39 8,9.72 2.5,5.47 3.1,11 3.1,15.18 z"
             id="path5257" /><path
             style="fill:#000000;stroke-width:0"
             inkscape:connector-curvature="0"
             d="m 1396.2,358.89 v 0.38 0.38 0.39 0.41 l -0.1,0.84 v 0.88 l -0.1,0.92 -0.1,0.95 -0.2,0.98 -0.1,1 -0.2,1.02 -0.3,1.04 -0.2,1.05 -0.3,1.06 -0.4,1.06 -0.4,1.07 -0.2,0.53 -0.2,0.53 -0.2,0.53 -0.3,0.53 c -3,6.13 -7.3,9.36 -7.8,9.36 -0.3,0 -0.5,-0.19 -0.5,-0.48 0,-0.16 0,-0.25 1,-1.16 4.9,-4.92 7.7,-12.84 7.7,-23.27 0,-8.51 -1.8,-17.28 -8,-23.56 -0.7,-0.59 -0.7,-0.7 -0.7,-0.84 0,-0.3 0.2,-0.5 0.5,-0.5 0.5,0 5,3.39 8,9.72 2.5,5.47 3.1,11 3.1,15.18 z"
             id="path5259" /></g>      </g>
    </g>
    <text
       id="text5321"
       y="55.71376"
       x="88.19854"
       style="font-style:normal;font-weight:normal;font-size:10.58333302px;line-height:1.25;font-family:sans-serif;letter-spacing:0px;word-spacing:0px;fill:#000000;fill-opacity:1;stroke:none;stroke-width:0.26458332"
       xml:space="preserve"><tspan
         style="stroke-width:0.26458332"
         y="65.07753"
         x="88.19854"
         id="tspan5319"
         sodipodi:role="line" /></text>
    <text
       xml:space="preserve"
       style="font-style:normal;font-weight:normal;font-size:10.58333302px;line-height:1.25;font-family:sans-serif;letter-spacing:0px;word-spacing:0px;fill:#000000;fill-opacity:1;stroke:none;stroke-width:0.26458332"
       x="88.19854"
       y="45.491783"
       id="text5361"><tspan
         sodipodi:role="line"
         id="tspan5359"
         x="88.19854"
         y="54.855553"
         style="stroke-width:0.26458332" /></text>
    <text
       xml:space="preserve"
       style="font-style:normal;font-weight:normal;font-size:10.58333302px;line-height:1.25;font-family:sans-serif;letter-spacing:0px;word-spacing:0px;fill:#000000;fill-opacity:1;stroke:none;stroke-width:0.26458332"
       x="57.385612"
       y="14.770219"
       id="text5387"><tspan
         sodipodi:role="line"
         id="tspan5385"
         x="57.385612"
         y="24.133987"
         style="stroke-width:0.26458332" /></text>
    <g
       id="g6230">
      <text
         xml:space="preserve"
         style="font-style:normal;font-variant:normal;font-weight:normal;font-stretch:normal;font-size:3.52777767px;line-height:1.25;font-family:serif;-inkscape-font-specification:'serif, Normal';font-variant-ligatures:normal;font-variant-caps:normal;font-variant-numeric:normal;font-feature-settings:normal;text-align:start;letter-spacing:0px;word-spacing:0px;writing-mode:lr-tb;text-anchor:start;fill:#000000;fill-opacity:1;stroke:none;stroke-width:0.26458332"
         x="58.846432"
         y="30.644308"
         id="text5144"><tspan
           sodipodi:role="line"
           id="tspan5142"
           x="58.846432"
           y="30.644308"
           style="font-style:normal;font-variant:normal;font-weight:normal;font-stretch:normal;font-size:3.52777767px;font-family:serif;-inkscape-font-specification:'serif, Normal';font-variant-ligatures:normal;font-variant-caps:normal;font-variant-numeric:normal;font-feature-settings:normal;text-align:start;writing-mode:lr-tb;text-anchor:start;stroke-width:0.26458332">2:</tspan></text>
      <text
         xml:space="preserve"
         style="font-style:normal;font-variant:normal;font-weight:normal;font-stretch:normal;font-size:3.17499995px;line-height:1.25;font-family:sans-serif;-inkscape-font-specification:'sans-serif, Normal';font-variant-ligatures:normal;font-variant-caps:normal;font-variant-numeric:normal;font-feature-settings:normal;text-align:start;letter-spacing:0px;word-spacing:0px;writing-mode:lr-tb;text-anchor:start;fill:#000000;fill-opacity:1;stroke:none;stroke-width:0.26458332"
         x="69.136307"
         y="30.65811"
         id="text5325"><tspan
           id="tspan5741"
           sodipodi:role="line"
           x="69.136307"
           y="30.65811"
           style="font-style:normal;font-variant:normal;font-weight:normal;font-stretch:normal;font-size:3.17499995px;font-family:sans-serif;-inkscape-font-specification:'sans-serif, Normal';font-variant-ligatures:normal;font-variant-caps:normal;font-variant-numeric:normal;font-feature-settings:normal;text-align:start;writing-mode:lr-tb;text-anchor:start;stroke-width:0.26458332">기존 입력값-함숫값 점들의 모음                                                              에 대한 Surrogate Model의 </tspan><tspan
           id="tspan5745"
           sodipodi:role="line"
           x="69.136307"
           y="35.008602"
           style="font-style:normal;font-variant:normal;font-weight:normal;font-stretch:normal;font-size:3.17499995px;font-family:sans-serif;-inkscape-font-specification:'sans-serif, Normal';font-variant-ligatures:normal;font-variant-caps:normal;font-variant-numeric:normal;font-feature-settings:normal;text-align:start;writing-mode:lr-tb;text-anchor:start;stroke-width:0.26458332">확률적 추정 결과를 바탕으로, Acquisition Function을 최대화하는 다음 입력값 후보           을 선정한다.</tspan></text>
      <g
         style="stroke-width:0.58757663"
         transform="matrix(1.7019057,0,0,1.7019057,98.427739,-165.39635)"
         id="g5462">
        <g
           style="font-style:normal;font-variant:normal;font-weight:normal;font-stretch:normal;letter-spacing:normal;word-spacing:normal;text-anchor:start;fill:none;fill-opacity:1;fill-rule:evenodd;stroke:#000000;stroke-width:0.58757663;stroke-linecap:butt;stroke-linejoin:miter;stroke-miterlimit:10.43299961;stroke-dasharray:none;stroke-dashoffset:0;stroke-opacity:1"
           id="g5460"
           transform="matrix(0.04922995,0,0,-0.04922995,-8.615241,134.49211)"
           xml:space="preserve"
           stroke-miterlimit="10.433"
           font-style="normal"
           font-variant="normal"
           font-weight="normal"
           font-stretch="normal"
           font-size-adjust="none"
           letter-spacing="normal"
           word-spacing="normal"><path
             style="fill:#000000;stroke-width:0"
             inkscape:connector-curvature="0"
             d="m 1208.5,361.49 v 0.13 0.15 l 0.1,0.16 v 0.18 l 0.1,0.2 v 0.2 l 0.1,0.22 0.1,0.22 0.1,0.24 0.1,0.24 v 0.24 l 0.2,0.25 0.1,0.25 0.1,0.25 0.1,0.25 0.2,0.24 0.1,0.24 0.2,0.24 0.1,0.23 0.2,0.23 0.2,0.21 0.2,0.2 0.2,0.19 0.2,0.18 0.2,0.16 0.3,0.14 0.1,0.07 0.1,0.06 0.2,0.05 0.1,0.05 0.2,0.05 0.1,0.04 0.1,0.03 0.2,0.03 0.1,0.02 0.2,0.02 0.2,0.01 h 0.1 c 0.3,0 1.5,0 2.5,-0.64 -1.4,-0.25 -2.4,-1.5 -2.4,-2.68 0,-0.8 0.6,-1.75 1.9,-1.75 1.1,0 2.7,0.89 2.7,2.89 0,2.59 -2.9,3.28 -4.6,3.28 -2.9,0 -4.7,-2.64 -5.3,-3.78 -1.2,3.28 -3.9,3.78 -5.3,3.78 -5.2,0 -8.1,-6.42 -8.1,-7.67 0,-0.5 0.5,-0.5 0.6,-0.5 0.4,0 0.6,0.1 0.7,0.54 1.7,5.28 5,6.53 6.7,6.53 0.9,0 2.6,-0.43 2.6,-3.32 0,-1.55 -0.8,-4.9 -2.6,-11.86 -0.9,-3.1 -2.6,-5.19 -4.8,-5.19 -0.3,0 -1.4,0 -2.5,0.65 1.3,0.24 2.4,1.29 2.4,2.69 0,1.35 -1.1,1.74 -1.9,1.74 -1.5,0 -2.7,-1.3 -2.7,-2.89 0,-2.29 2.5,-3.29 4.7,-3.29 3.3,0 5,3.49 5.2,3.79 0.6,-1.85 2.4,-3.79 5.4,-3.79 5.1,0 8,6.43 8,7.68 0,0.5 -0.5,0.5 -0.7,0.5 -0.4,0 -0.5,-0.21 -0.6,-0.55 -1.6,-5.33 -5,-6.53 -6.6,-6.53 -2,0 -2.8,1.59 -2.8,3.3 0,1.09 0.3,2.18 0.9,4.37 z"
             id="path5452" /><path
             style="fill:#000000;stroke-width:0"
             inkscape:connector-curvature="0"
             d="m 1228.9,352.64 h 3.5 c 0.7,0 1.1,0 1.1,0.77 0,0.48 -0.4,0.48 -1,0.48 h -3.3 l 1.2,5.16 c 0.1,0.17 0.2,0.34 0.2,0.49 0,0.64 -0.5,1.12 -1.2,1.12 -0.9,0 -1.4,-0.59 -1.7,-1.5 -0.2,-0.87 0.2,0.8 -1.3,-5.27 h -3.5 c -0.7,0 -1.1,0 -1.1,-0.76 0,-0.49 0.4,-0.49 1,-0.49 h 3.3 l -2,-8.21 c -0.3,-0.88 -0.6,-2.13 -0.6,-2.58 0,-2.06 1.8,-3.31 3.7,-3.31 3.9,0 6.1,4.87 6.1,5.32 0,0.46 -0.4,0.46 -0.5,0.46 -0.5,0 -0.5,-0.08 -0.8,-0.66 -0.9,-2.2 -2.7,-4.16 -4.6,-4.16 -0.8,0 -1.3,0.46 -1.3,1.71 0,0.36 0.2,1.09 0.2,1.43 z"
             id="path5454" /><path
             style="fill:#000000;stroke-width:0"
             inkscape:connector-curvature="0"
             d="m 1251.4,346.75 h 10.7 c 0.4,0 1.3,0 1.3,0.85 0,0.86 -0.8,0.86 -1.3,0.86 h -10.7 v 10.7 c 0,0.45 0,1.28 -0.8,1.28 -0.9,0 -0.9,-0.8 -0.9,-1.28 v -10.7 H 1239 c -0.4,0 -1.3,0 -1.3,-0.83 0,-0.88 0.8,-0.88 1.3,-0.88 h 10.7 v -10.7 c 0,-0.45 0,-1.28 0.9,-1.28 0.8,0 0.8,0.8 0.8,1.28 z"
             id="path5456" /><path
             style="fill:#000000;stroke-width:0"
             inkscape:connector-curvature="0"
             d="m 1277.6,361.04 v 0.04 l -0.1,0.04 v 0.04 0.04 0.04 0.04 0.04 0.03 0.03 0.04 0.03 0.03 0.03 0.03 0.02 0.03 0.03 0.02 0.05 0.04 0.04 0.03 l -0.1,0.03 v 0.03 0.02 0.03 l -0.1,0.02 v 0.01 0.02 l -0.1,0.01 v 0.01 0.01 h -0.1 v 0.01 0 0 l -0.1,0.01 v 0 0 h -0.1 v 0 0.01 h -0.1 v 0 0 h -0.1 v 0 h -0.1 v 0 h -0.1 v 0 c -2.2,-2.2 -5.4,-2.23 -6.8,-2.23 v -1.25 c 0.8,0 3.1,0 5,0.96 v -17.76 c 0,-1.16 0,-1.61 -3.5,-1.61 h -1.3 v -1.25 c 0.7,0.03 4.9,0.14 6.2,0.14 1.1,0 5.5,-0.11 6.3,-0.14 v 1.25 h -1.4 c -3.4,0 -3.4,0.45 -3.4,1.61 z"
             id="path5458" /></g>      </g>
      <g
         style="stroke-width:0.73682207"
         id="g5644"
         transform="matrix(1.3571798,0,0,1.3571798,67.753522,-133.21991)">
        <g
           word-spacing="normal"
           letter-spacing="normal"
           font-size-adjust="none"
           font-stretch="normal"
           font-weight="normal"
           font-variant="normal"
           font-style="normal"
           stroke-miterlimit="10.433"
           xml:space="preserve"
           transform="matrix(0.04922995,0,0,-0.04922995,-8.615241,137.69934)"
           id="g5642"
           style="font-style:normal;font-variant:normal;font-weight:normal;font-stretch:normal;letter-spacing:normal;word-spacing:normal;text-anchor:start;fill:none;fill-opacity:1;fill-rule:evenodd;stroke:#000000;stroke-width:0.73682207;stroke-linecap:butt;stroke-linejoin:miter;stroke-miterlimit:10.43299961;stroke-dasharray:none;stroke-dashoffset:0;stroke-opacity:1"><path
             id="path5570"
             d="m 860.93,334.49 v 0.02 l -0.01,0.03 v 0.01 0.02 0.01 l -0.01,0.02 v 0.02 l -0.01,0.01 -0.01,0.02 -0.01,0.02 -0.01,0.03 -0.01,0.02 -0.02,0.02 -0.02,0.03 -0.02,0.03 -0.02,0.03 -0.03,0.04 -0.03,0.03 -0.02,0.02 -0.01,0.02 -0.02,0.02 -0.02,0.02 -0.02,0.02 -0.02,0.03 -0.02,0.02 -0.02,0.02 -0.02,0.03 -0.03,0.03 -0.02,0.02 -0.03,0.03 -0.02,0.03 -0.03,0.03 -0.03,0.03 -0.03,0.03 -0.03,0.03 -0.03,0.03 -0.04,0.04 -0.03,0.03 -0.03,0.04 -0.04,0.04 -0.04,0.03 -0.04,0.04 c -6.22,6.28 -7.81,15.69 -7.81,23.31 0,8.68 1.89,17.35 8.01,23.57 0.65,0.61 0.65,0.7 0.65,0.86 0,0.34 -0.19,0.48 -0.49,0.48 -0.5,0 -4.98,-3.37 -7.92,-9.7 -2.55,-5.49 -3.14,-11.02 -3.14,-15.21 0,-3.89 0.55,-9.9 3.28,-15.54 2.99,-6.13 7.28,-9.36 7.78,-9.36 0.3,0 0.49,0.14 0.49,0.5 z"
             inkscape:connector-curvature="0"
             style="fill:#000000;stroke-width:0" /><path
             id="path5572"
             d="m 880.4,361.49 0.03,0.13 0.03,0.15 0.05,0.16 0.04,0.18 0.05,0.2 0.06,0.2 0.07,0.22 0.07,0.22 0.08,0.24 0.09,0.24 0.1,0.24 0.1,0.25 0.11,0.25 0.12,0.25 0.13,0.25 0.14,0.24 0.14,0.24 0.16,0.24 0.17,0.23 0.17,0.23 0.19,0.21 0.2,0.2 0.21,0.19 0.22,0.18 0.23,0.16 0.25,0.14 0.12,0.07 0.13,0.06 0.14,0.05 0.13,0.05 0.14,0.05 0.14,0.04 0.15,0.03 0.15,0.03 0.15,0.02 0.15,0.02 0.16,0.01 h 0.17 c 0.25,0 1.43,0 2.48,-0.64 -1.39,-0.25 -2.39,-1.5 -2.39,-2.68 0,-0.8 0.55,-1.75 1.89,-1.75 1.09,0 2.69,0.89 2.69,2.89 0,2.59 -2.94,3.28 -4.63,3.28 -2.89,0 -4.64,-2.64 -5.23,-3.78 -1.25,3.28 -3.94,3.78 -5.38,3.78 -5.18,0 -8.03,-6.42 -8.03,-7.67 0,-0.5 0.5,-0.5 0.61,-0.5 0.39,0 0.55,0.1 0.64,0.54 1.69,5.28 4.99,6.53 6.67,6.53 0.96,0 2.69,-0.43 2.69,-3.32 0,-1.55 -0.84,-4.9 -2.69,-11.86 -0.79,-3.1 -2.53,-5.19 -4.73,-5.19 -0.3,0 -1.44,0 -2.48,0.65 1.25,0.24 2.34,1.29 2.34,2.69 0,1.35 -1.09,1.74 -1.84,1.74 -1.5,0 -2.75,-1.3 -2.75,-2.89 0,-2.29 2.5,-3.29 4.68,-3.29 3.3,0 5.08,3.49 5.24,3.79 0.59,-1.85 2.39,-3.79 5.37,-3.79 5.14,0 7.99,6.43 7.99,7.68 0,0.5 -0.46,0.5 -0.61,0.5 -0.44,0 -0.55,-0.21 -0.64,-0.55 -1.64,-5.33 -5.03,-6.53 -6.63,-6.53 -1.95,0 -2.75,1.59 -2.75,3.3 0,1.09 0.3,2.18 0.86,4.37 z"
             inkscape:connector-curvature="0"
             style="fill:#000000;stroke-width:0" /><path
             id="path5574"
             d="m 903.87,361.04 v 0.04 0.04 0.04 0.04 0.04 0.04 0.04 0.03 l -0.01,0.03 v 0.04 0.03 0.03 0.03 l -0.01,0.03 v 0.02 0.03 l -0.01,0.03 v 0.02 l -0.01,0.02 v 0.03 l -0.02,0.04 -0.01,0.04 -0.02,0.03 -0.02,0.03 -0.02,0.03 -0.02,0.02 -0.03,0.03 -0.03,0.02 -0.03,0.01 -0.04,0.02 -0.04,0.01 -0.05,0.01 -0.02,0.01 h -0.02 l -0.03,0.01 h -0.03 -0.02 l -0.03,0.01 h -0.03 -0.03 -0.04 -0.03 l -0.03,0.01 h -0.04 -0.03 -0.04 -0.04 -0.04 -0.04 -0.05 -0.04 -0.05 c -2.23,-2.2 -5.39,-2.23 -6.82,-2.23 v -1.25 c 0.84,0 3.14,0 5.04,0.96 v -17.76 c 0,-1.16 0,-1.61 -3.48,-1.61 h -1.31 v -1.25 c 0.62,0.03 4.9,0.14 6.2,0.14 1.08,0 5.47,-0.11 6.23,-0.14 v 1.25 h -1.33 c -3.48,0 -3.48,0.45 -3.48,1.61 z"
             inkscape:connector-curvature="0"
             style="fill:#000000;stroke-width:0" /><path
             id="path5576"
             d="m 924.75,346.49 v 0.3 l -0.01,0.3 -0.02,0.29 -0.03,0.28 -0.03,0.27 -0.04,0.27 -0.04,0.25 -0.05,0.25 -0.06,0.23 -0.07,0.23 -0.07,0.22 -0.07,0.21 -0.09,0.2 -0.09,0.2 -0.09,0.18 -0.1,0.17 -0.11,0.17 -0.11,0.15 -0.12,0.14 -0.12,0.14 -0.13,0.12 -0.13,0.11 -0.14,0.11 -0.15,0.09 -0.14,0.08 -0.16,0.07 -0.16,0.06 -0.16,0.05 -0.17,0.04 -0.17,0.03 -0.18,0.02 h -0.18 c -1.64,0 -2.64,-1.25 -2.64,-2.64 0,-1.34 1,-2.64 2.64,-2.64 0.6,0 1.25,0.2 1.75,0.64 0.14,0.11 0.21,0.16 0.25,0.16 0.05,0 0.1,-0.05 0.1,-0.75 0,-3.69 -1.74,-6.67 -3.39,-8.31 -0.55,-0.55 -0.55,-0.66 -0.55,-0.8 0,-0.36 0.25,-0.55 0.5,-0.55 0.55,0 4.53,3.83 4.53,9.66 z"
             inkscape:connector-curvature="0"
             style="fill:#000000;stroke-width:0" /><path
             id="path5578"
             d="m 955,366.36 h 4.28 c 1,0 1.5,0 1.5,1 0,0.55 -0.5,0.55 -1.34,0.55 h -4.14 l 1.04,5.69 c 0.21,1.04 0.91,4.58 1.21,5.17 0.45,0.95 1.29,1.7 2.34,1.7 0.19,0 1.49,0 2.44,-0.9 -2.19,-0.19 -2.69,-1.94 -2.69,-2.69 0,-1.14 0.89,-1.74 1.84,-1.74 1.3,0 2.74,1.1 2.74,2.99 0,2.3 -2.3,3.44 -4.33,3.44 -1.7,0 -4.84,-0.89 -6.33,-5.83 -0.29,-1.05 -0.45,-1.55 -1.64,-7.83 h -3.44 c -0.95,0 -1.5,0 -1.5,-0.94 0,-0.61 0.46,-0.61 1.4,-0.61 h 3.29 l -3.75,-19.67 c -0.89,-4.83 -1.73,-9.37 -4.33,-9.37 -0.2,0 -1.43,0 -2.39,0.9 2.3,0.14 2.74,1.94 2.74,2.69 0,1.14 -0.89,1.75 -1.85,1.75 -1.29,0 -2.73,-1.09 -2.73,-3 0,-2.23 2.19,-3.44 4.23,-3.44 2.74,0 4.74,2.94 5.63,4.85 1.59,3.14 2.75,9.15 2.8,9.51 z"
             inkscape:connector-curvature="0"
             style="fill:#000000;stroke-width:0" /><path
             id="path5580"
             d="m 982.96,334.49 v 0.02 0.03 0.01 0.02 l -0.01,0.01 v 0.02 l -0.01,0.02 v 0.01 l -0.01,0.02 -0.01,0.02 -0.02,0.03 -0.01,0.02 -0.02,0.02 -0.01,0.03 -0.03,0.03 -0.02,0.03 -0.03,0.04 -0.03,0.03 -0.01,0.02 -0.02,0.02 -0.01,0.02 -0.02,0.02 -0.02,0.02 -0.02,0.03 -0.02,0.02 -0.03,0.02 -0.02,0.03 -0.02,0.03 -0.03,0.02 -0.02,0.03 -0.03,0.03 -0.03,0.03 -0.02,0.03 -0.03,0.03 -0.04,0.03 -0.03,0.03 -0.03,0.04 -0.03,0.03 -0.04,0.04 -0.04,0.04 -0.03,0.03 -0.04,0.04 c -6.22,6.28 -7.82,15.69 -7.82,23.31 0,8.68 1.9,17.35 8.02,23.57 0.64,0.61 0.64,0.7 0.64,0.86 0,0.34 -0.19,0.48 -0.48,0.48 -0.5,0 -4.99,-3.37 -7.93,-9.7 -2.54,-5.49 -3.14,-11.02 -3.14,-15.21 0,-3.89 0.55,-9.9 3.29,-15.54 2.98,-6.13 7.28,-9.36 7.78,-9.36 0.29,0 0.48,0.14 0.48,0.5 z"
             inkscape:connector-curvature="0"
             style="fill:#000000;stroke-width:0" /><path
             id="path5582"
             d="m 1002.4,361.49 0.1,0.13 v 0.15 0.16 l 0.1,0.18 v 0.2 l 0.1,0.2 0.1,0.22 v 0.22 l 0.1,0.24 0.1,0.24 0.1,0.24 0.1,0.25 0.1,0.25 0.1,0.25 0.2,0.25 0.1,0.24 0.1,0.24 0.2,0.24 0.2,0.23 0.1,0.23 0.2,0.21 0.2,0.2 0.2,0.19 0.3,0.18 0.2,0.16 0.2,0.14 0.2,0.07 0.1,0.06 0.1,0.05 0.2,0.05 0.1,0.05 0.1,0.04 0.2,0.03 0.1,0.03 0.2,0.02 0.1,0.02 0.2,0.01 h 0.2 c 0.2,0 1.4,0 2.5,-0.64 -1.4,-0.25 -2.4,-1.5 -2.4,-2.68 0,-0.8 0.5,-1.75 1.9,-1.75 1.1,0 2.6,0.89 2.6,2.89 0,2.59 -2.9,3.28 -4.6,3.28 -2.9,0 -4.6,-2.64 -5.2,-3.78 -1.3,3.28 -3.95,3.78 -5.39,3.78 -5.19,0 -8.03,-6.42 -8.03,-7.67 0,-0.5 0.5,-0.5 0.61,-0.5 0.39,0 0.54,0.1 0.64,0.54 1.69,5.28 4.98,6.53 6.67,6.53 0.95,0 2.69,-0.43 2.69,-3.32 0,-1.55 -0.85,-4.9 -2.69,-11.86 -0.8,-3.1 -2.53,-5.19 -4.73,-5.19 -0.3,0 -1.44,0 -2.49,0.65 1.25,0.24 2.34,1.29 2.34,2.69 0,1.35 -1.09,1.74 -1.84,1.74 -1.5,0 -2.75,-1.3 -2.75,-2.89 0,-2.29 2.5,-3.29 4.69,-3.29 3.3,0 5.08,3.49 5.23,3.79 0.6,-1.85 2.39,-3.79 5.35,-3.79 5.2,0 8,6.43 8,7.68 0,0.5 -0.4,0.5 -0.6,0.5 -0.4,0 -0.5,-0.21 -0.6,-0.55 -1.7,-5.33 -5.1,-6.53 -6.7,-6.53 -1.9,0 -2.71,1.59 -2.71,3.3 0,1.09 0.31,2.18 0.91,4.37 z"
             inkscape:connector-curvature="0"
             style="fill:#000000;stroke-width:0" /><path
             id="path5584"
             d="m 1025.9,361.04 v 0.04 0.04 0.04 0.04 0.04 0.04 0.04 0.03 0.03 0.04 0.03 0.03 0.03 0.03 0.02 0.03 0.03 0.02 0.05 0.04 l -0.1,0.04 v 0.03 0.03 0.03 0.02 l -0.1,0.03 v 0.02 0.01 l -0.1,0.02 v 0.01 l -0.1,0.01 v 0.01 0 0.01 h -0.1 v 0 0.01 0 h -0.1 v 0 0 l -0.1,0.01 v 0 0 h -0.1 v 0 h -0.1 v 0 0 h -0.1 v 0 c -2.3,-2.2 -5.4,-2.23 -6.9,-2.23 v -1.25 c 0.9,0 3.2,0 5.1,0.96 v -17.76 c 0,-1.16 0,-1.61 -3.5,-1.61 h -1.3 v -1.25 c 0.6,0.03 4.9,0.14 6.2,0.14 1.1,0 5.5,-0.11 6.2,-0.14 v 1.25 h -1.3 c -3.5,0 -3.5,0.45 -3.5,1.61 z"
             inkscape:connector-curvature="0"
             style="fill:#000000;stroke-width:0" /><path
             id="path5586"
             d="m 1051.1,358.89 v 0.38 0.38 0.39 l -0.1,0.41 v 0.84 l -0.1,0.88 v 0.92 l -0.1,0.95 -0.2,0.98 -0.1,1 -0.2,1.02 -0.3,1.04 -0.2,1.05 -0.3,1.06 -0.4,1.06 -0.4,1.07 -0.2,0.53 -0.2,0.53 -0.3,0.53 -0.2,0.53 c -3,6.13 -7.3,9.36 -7.8,9.36 -0.3,0 -0.5,-0.19 -0.5,-0.48 0,-0.16 0,-0.25 1,-1.16 4.8,-4.92 7.7,-12.84 7.7,-23.27 0,-8.51 -1.9,-17.28 -8,-23.56 -0.7,-0.59 -0.7,-0.7 -0.7,-0.84 0,-0.3 0.2,-0.5 0.5,-0.5 0.5,0 5,3.39 7.9,9.72 2.6,5.47 3.2,11 3.2,15.18 z"
             inkscape:connector-curvature="0"
             style="fill:#000000;stroke-width:0" /><path
             id="path5588"
             d="m 1070.4,358.89 v 0.38 0.38 0.39 0.41 l -0.1,0.84 v 0.88 l -0.1,0.92 -0.1,0.95 -0.2,0.98 -0.1,1 -0.2,1.02 -0.3,1.04 -0.2,1.05 -0.3,1.06 -0.4,1.06 -0.4,1.07 -0.2,0.53 -0.2,0.53 -0.2,0.53 -0.3,0.53 c -3,6.13 -7.3,9.36 -7.8,9.36 -0.3,0 -0.5,-0.19 -0.5,-0.48 0,-0.16 0,-0.25 1,-1.16 4.9,-4.92 7.7,-12.84 7.7,-23.27 0,-8.51 -1.8,-17.28 -8,-23.56 -0.7,-0.59 -0.7,-0.7 -0.7,-0.84 0,-0.3 0.2,-0.5 0.5,-0.5 0.5,0 5,3.39 8,9.72 2.5,5.47 3.1,11 3.1,15.18 z"
             inkscape:connector-curvature="0"
             style="fill:#000000;stroke-width:0" /><path
             id="path5590"
             d="m 1085.4,346.49 v 0.3 0.3 0.29 0.28 l -0.1,0.27 v 0.27 l -0.1,0.25 v 0.25 l -0.1,0.23 v 0.23 l -0.1,0.22 -0.1,0.21 -0.1,0.2 v 0.2 l -0.1,0.18 -0.1,0.17 -0.1,0.17 -0.2,0.15 -0.1,0.14 -0.1,0.14 -0.1,0.12 -0.2,0.11 -0.1,0.11 -0.1,0.09 -0.2,0.08 -0.1,0.07 -0.2,0.06 -0.2,0.05 -0.1,0.04 -0.2,0.03 -0.2,0.02 h -0.2 c -1.6,0 -2.6,-1.25 -2.6,-2.64 0,-1.34 1,-2.64 2.6,-2.64 0.6,0 1.3,0.2 1.8,0.64 0.1,0.11 0.2,0.16 0.2,0.16 0.1,0 0.1,-0.05 0.1,-0.75 0,-3.69 -1.7,-6.67 -3.4,-8.31 -0.5,-0.55 -0.5,-0.66 -0.5,-0.8 0,-0.36 0.2,-0.55 0.5,-0.55 0.5,0 4.5,3.83 4.5,9.66 z"
             inkscape:connector-curvature="0"
             style="fill:#000000;stroke-width:0" /><path
             id="path5592"
             d="m 1113.9,334.49 v 0.02 0.03 0.01 0.02 0.01 0.02 0.02 0.01 l -0.1,0.02 v 0.02 0.03 0.02 0.02 0.03 0.03 l -0.1,0.03 v 0.04 0.03 0.02 l -0.1,0.02 v 0.02 0.02 0.02 0.03 l -0.1,0.02 v 0.02 0.03 0.03 l -0.1,0.02 v 0.03 0.03 0.03 l -0.1,0.03 v 0.03 0.03 l -0.1,0.03 v 0.04 0.03 l -0.1,0.04 v 0.04 0.03 l -0.1,0.04 c -6.2,6.28 -7.8,15.69 -7.8,23.31 0,8.68 1.9,17.35 8,23.57 0.7,0.61 0.7,0.7 0.7,0.86 0,0.34 -0.2,0.48 -0.5,0.48 -0.5,0 -5,-3.37 -7.9,-9.7 -2.6,-5.49 -3.2,-11.02 -3.2,-15.21 0,-3.89 0.6,-9.9 3.3,-15.54 3,-6.13 7.3,-9.36 7.8,-9.36 0.3,0 0.5,0.14 0.5,0.5 z"
             inkscape:connector-curvature="0"
             style="fill:#000000;stroke-width:0" /><path
             id="path5594"
             d="m 1133.3,361.49 0.1,0.13 v 0.15 l 0.1,0.16 v 0.18 l 0.1,0.2 v 0.2 l 0.1,0.22 0.1,0.22 v 0.24 l 0.1,0.24 0.1,0.24 0.1,0.25 0.1,0.25 0.1,0.25 0.2,0.25 0.1,0.24 0.2,0.24 0.1,0.24 0.2,0.23 0.2,0.23 0.2,0.21 0.2,0.2 0.2,0.19 0.2,0.18 0.2,0.16 0.3,0.14 0.1,0.07 0.1,0.06 0.1,0.05 0.2,0.05 0.1,0.05 0.2,0.04 0.1,0.03 0.2,0.03 0.1,0.02 0.2,0.02 0.1,0.01 h 0.2 c 0.2,0 1.4,0 2.5,-0.64 -1.4,-0.25 -2.4,-1.5 -2.4,-2.68 0,-0.8 0.5,-1.75 1.9,-1.75 1.1,0 2.7,0.89 2.7,2.89 0,2.59 -3,3.28 -4.7,3.28 -2.9,0 -4.6,-2.64 -5.2,-3.78 -1.3,3.28 -3.9,3.78 -5.4,3.78 -5.2,0 -8,-6.42 -8,-7.67 0,-0.5 0.5,-0.5 0.6,-0.5 0.4,0 0.5,0.1 0.6,0.54 1.7,5.28 5,6.53 6.7,6.53 1,0 2.7,-0.43 2.7,-3.32 0,-1.55 -0.8,-4.9 -2.7,-11.86 -0.8,-3.1 -2.5,-5.19 -4.7,-5.19 -0.3,0 -1.5,0 -2.5,0.65 1.2,0.24 2.3,1.29 2.3,2.69 0,1.35 -1.1,1.74 -1.8,1.74 -1.5,0 -2.8,-1.3 -2.8,-2.89 0,-2.29 2.5,-3.29 4.7,-3.29 3.3,0 5.1,3.49 5.3,3.79 0.6,-1.85 2.4,-3.79 5.3,-3.79 5.2,0 8,6.43 8,7.68 0,0.5 -0.4,0.5 -0.6,0.5 -0.4,0 -0.5,-0.21 -0.6,-0.55 -1.7,-5.33 -5.1,-6.53 -6.6,-6.53 -2,0 -2.8,1.59 -2.8,3.3 0,1.09 0.3,2.18 0.9,4.37 z"
             inkscape:connector-curvature="0"
             style="fill:#000000;stroke-width:0" /><path
             id="path5596"
             d="m 1162.8,345.22 h -1.2 c -0.1,-0.76 -0.5,-2.83 -0.9,-3.17 -0.3,-0.2 -3,-0.2 -3.5,-0.2 h -6.4 c 3.7,3.23 4.9,4.2 7,5.84 2.5,2.06 5,4.22 5,7.53 0,4.22 -3.7,6.8 -8.2,6.8 -4.3,0 -7.3,-3.03 -7.3,-6.23 0,-1.79 1.5,-1.96 1.9,-1.96 0.8,0 1.9,0.6 1.9,1.85 0,0.62 -0.3,1.84 -2.1,1.84 1.1,2.47 3.4,3.23 5.1,3.23 3.5,0 5.3,-2.7 5.3,-5.53 0,-3.03 -2.2,-5.43 -3.3,-6.68 l -8.4,-8.3 c -0.4,-0.31 -0.4,-0.39 -0.4,-1.36 h 14.4 z"
             inkscape:connector-curvature="0"
             style="fill:#000000;stroke-width:0" /><path
             id="path5598"
             d="m 1177.9,346.49 v 0.3 0.3 0.29 0.28 0.27 l -0.1,0.27 v 0.25 l -0.1,0.25 v 0.23 l -0.1,0.23 -0.1,0.22 v 0.21 l -0.1,0.2 -0.1,0.2 -0.1,0.18 -0.1,0.17 -0.1,0.17 -0.1,0.15 -0.2,0.14 -0.1,0.14 -0.1,0.12 -0.1,0.11 -0.2,0.11 -0.1,0.09 -0.2,0.08 -0.1,0.07 -0.2,0.06 -0.1,0.05 -0.2,0.04 -0.2,0.03 -0.2,0.02 h -0.1 c -1.7,0 -2.7,-1.25 -2.7,-2.64 0,-1.34 1,-2.64 2.7,-2.64 0.6,0 1.2,0.2 1.7,0.64 0.2,0.11 0.2,0.16 0.3,0.16 0,0 0.1,-0.05 0.1,-0.75 0,-3.69 -1.8,-6.67 -3.4,-8.31 -0.6,-0.55 -0.6,-0.66 -0.6,-0.8 0,-0.36 0.3,-0.55 0.5,-0.55 0.6,0 4.5,3.83 4.5,9.66 z"
             inkscape:connector-curvature="0"
             style="fill:#000000;stroke-width:0" /><path
             id="path5600"
             d="m 1208.2,366.36 h 4.3 c 1,0 1.5,0 1.5,1 0,0.55 -0.5,0.55 -1.4,0.55 h -4.1 l 1,5.69 c 0.3,1.04 0.9,4.58 1.3,5.17 0.4,0.95 1.2,1.7 2.3,1.7 0.2,0 1.5,0 2.4,-0.9 -2.2,-0.19 -2.7,-1.94 -2.7,-2.69 0,-1.14 0.9,-1.74 1.9,-1.74 1.3,0 2.7,1.1 2.7,2.99 0,2.3 -2.3,3.44 -4.3,3.44 -1.7,0 -4.9,-0.89 -6.3,-5.83 -0.3,-1.05 -0.5,-1.55 -1.7,-7.83 h -3.4 c -1,0 -1.5,0 -1.5,-0.94 0,-0.61 0.4,-0.61 1.4,-0.61 h 3.3 l -3.8,-19.67 c -0.9,-4.83 -1.7,-9.37 -4.3,-9.37 -0.2,0 -1.4,0 -2.4,0.9 2.3,0.14 2.7,1.94 2.7,2.69 0,1.14 -0.9,1.75 -1.8,1.75 -1.3,0 -2.7,-1.09 -2.7,-3 0,-2.23 2.2,-3.44 4.2,-3.44 2.7,0 4.7,2.94 5.6,4.85 1.6,3.14 2.8,9.15 2.8,9.51 z"
             inkscape:connector-curvature="0"
             style="fill:#000000;stroke-width:0" /><path
             id="path5602"
             d="m 1236.2,334.49 v 0.02 0.03 0.01 0.02 0.01 l -0.1,0.02 v 0.02 0.01 0.02 0.02 0.03 0.02 0.02 0.03 l -0.1,0.03 v 0.03 0.04 0.03 l -0.1,0.02 v 0.02 0.02 0.02 0.02 l -0.1,0.03 v 0.02 0.02 0.03 0.03 l -0.1,0.02 v 0.03 0.03 0.03 l -0.1,0.03 v 0.03 0.03 l -0.1,0.03 v 0.04 0.03 l -0.1,0.04 v 0.04 0.03 l -0.1,0.04 c -6.2,6.28 -7.8,15.69 -7.8,23.31 0,8.68 1.9,17.35 8,23.57 0.7,0.61 0.7,0.7 0.7,0.86 0,0.34 -0.2,0.48 -0.5,0.48 -0.5,0 -5,-3.37 -7.9,-9.7 -2.6,-5.49 -3.2,-11.02 -3.2,-15.21 0,-3.89 0.6,-9.9 3.3,-15.54 3,-6.13 7.3,-9.36 7.8,-9.36 0.3,0 0.5,0.14 0.5,0.5 z"
             inkscape:connector-curvature="0"
             style="fill:#000000;stroke-width:0" /><path
             id="path5604"
             d="m 1255.6,361.49 0.1,0.13 v 0.15 0.16 l 0.1,0.18 v 0.2 l 0.1,0.2 0.1,0.22 v 0.22 l 0.1,0.24 0.1,0.24 0.1,0.24 0.1,0.25 0.1,0.25 0.1,0.25 0.2,0.25 0.1,0.24 0.1,0.24 0.2,0.24 0.2,0.23 0.1,0.23 0.2,0.21 0.2,0.2 0.2,0.19 0.3,0.18 0.2,0.16 0.2,0.14 0.2,0.07 0.1,0.06 0.1,0.05 0.2,0.05 0.1,0.05 0.1,0.04 0.2,0.03 0.1,0.03 0.2,0.02 0.1,0.02 0.2,0.01 h 0.2 c 0.2,0 1.4,0 2.5,-0.64 -1.4,-0.25 -2.4,-1.5 -2.4,-2.68 0,-0.8 0.5,-1.75 1.9,-1.75 1.1,0 2.6,0.89 2.6,2.89 0,2.59 -2.9,3.28 -4.6,3.28 -2.9,0 -4.6,-2.64 -5.2,-3.78 -1.3,3.28 -4,3.78 -5.4,3.78 -5.2,0 -8,-6.42 -8,-7.67 0,-0.5 0.5,-0.5 0.6,-0.5 0.4,0 0.5,0.1 0.6,0.54 1.7,5.28 5,6.53 6.7,6.53 0.9,0 2.7,-0.43 2.7,-3.32 0,-1.55 -0.9,-4.9 -2.7,-11.86 -0.8,-3.1 -2.5,-5.19 -4.7,-5.19 -0.3,0 -1.5,0 -2.5,0.65 1.2,0.24 2.3,1.29 2.3,2.69 0,1.35 -1.1,1.74 -1.8,1.74 -1.5,0 -2.8,-1.3 -2.8,-2.89 0,-2.29 2.5,-3.29 4.7,-3.29 3.3,0 5.1,3.49 5.2,3.79 0.6,-1.85 2.4,-3.79 5.4,-3.79 5.2,0 8,6.43 8,7.68 0,0.5 -0.4,0.5 -0.6,0.5 -0.4,0 -0.5,-0.21 -0.6,-0.55 -1.7,-5.33 -5.1,-6.53 -6.7,-6.53 -1.9,0 -2.7,1.59 -2.7,3.3 0,1.09 0.3,2.18 0.8,4.37 z"
             inkscape:connector-curvature="0"
             style="fill:#000000;stroke-width:0" /><path
             id="path5606"
             d="m 1285,345.22 h -1.2 c 0,-0.76 -0.4,-2.83 -0.9,-3.17 -0.2,-0.2 -2.9,-0.2 -3.4,-0.2 h -6.4 c 3.6,3.23 4.9,4.2 7,5.84 2.5,2.06 4.9,4.22 4.9,7.53 0,4.22 -3.7,6.8 -8.1,6.8 -4.3,0 -7.3,-3.03 -7.3,-6.23 0,-1.79 1.5,-1.96 1.9,-1.96 0.8,0 1.8,0.6 1.8,1.85 0,0.62 -0.2,1.84 -2,1.84 1,2.47 3.4,3.23 5.1,3.23 3.4,0 5.3,-2.7 5.3,-5.53 0,-3.03 -2.2,-5.43 -3.3,-6.68 l -8.4,-8.3 c -0.4,-0.31 -0.4,-0.39 -0.4,-1.36 h 14.4 z"
             inkscape:connector-curvature="0"
             style="fill:#000000;stroke-width:0" /><path
             id="path5608"
             d="m 1304.3,358.89 v 0.38 0.38 0.39 l -0.1,0.41 v 0.84 l -0.1,0.88 v 0.92 l -0.1,0.95 -0.2,0.98 -0.1,1 -0.2,1.02 -0.3,1.04 -0.2,1.05 -0.3,1.06 -0.4,1.06 -0.4,1.07 -0.2,0.53 -0.2,0.53 -0.3,0.53 -0.2,0.53 c -3,6.13 -7.3,9.36 -7.8,9.36 -0.3,0 -0.5,-0.19 -0.5,-0.48 0,-0.16 0,-0.25 1,-1.16 4.9,-4.92 7.7,-12.84 7.7,-23.27 0,-8.51 -1.8,-17.28 -8,-23.56 -0.7,-0.59 -0.7,-0.7 -0.7,-0.84 0,-0.3 0.2,-0.5 0.5,-0.5 0.5,0 5,3.39 7.9,9.72 2.6,5.47 3.2,11 3.2,15.18 z"
             inkscape:connector-curvature="0"
             style="fill:#000000;stroke-width:0" /><path
             id="path5610"
             d="m 1323.6,358.89 v 0.38 0.38 0.39 0.41 l -0.1,0.84 v 0.88 l -0.1,0.92 -0.1,0.95 -0.2,0.98 -0.1,1 -0.2,1.02 -0.3,1.04 -0.2,1.05 -0.3,1.06 -0.4,1.06 -0.4,1.07 -0.2,0.53 -0.2,0.53 -0.2,0.53 -0.3,0.53 c -3,6.13 -7.3,9.36 -7.8,9.36 -0.3,0 -0.5,-0.19 -0.5,-0.48 0,-0.16 0,-0.25 1,-1.16 4.9,-4.92 7.7,-12.84 7.7,-23.27 0,-8.51 -1.8,-17.28 -8,-23.56 -0.7,-0.59 -0.7,-0.7 -0.7,-0.84 0,-0.3 0.2,-0.5 0.5,-0.5 0.5,0 5,3.39 8,9.72 2.5,5.47 3.1,11 3.1,15.18 z"
             inkscape:connector-curvature="0"
             style="fill:#000000;stroke-width:0" /><path
             id="path5612"
             d="m 1338.6,346.49 v 0.3 0.3 0.29 0.28 l -0.1,0.27 v 0.27 l -0.1,0.25 v 0.25 l -0.1,0.23 v 0.23 l -0.1,0.22 -0.1,0.21 -0.1,0.2 v 0.2 l -0.1,0.18 -0.1,0.17 -0.1,0.17 -0.2,0.15 -0.1,0.14 -0.1,0.14 -0.1,0.12 -0.2,0.11 -0.1,0.11 -0.1,0.09 -0.2,0.08 -0.1,0.07 -0.2,0.06 -0.2,0.05 -0.1,0.04 -0.2,0.03 -0.2,0.02 h -0.2 c -1.6,0 -2.6,-1.25 -2.6,-2.64 0,-1.34 1,-2.64 2.6,-2.64 0.6,0 1.3,0.2 1.8,0.64 0.1,0.11 0.2,0.16 0.2,0.16 0.1,0 0.1,-0.05 0.1,-0.75 0,-3.69 -1.7,-6.67 -3.4,-8.31 -0.5,-0.55 -0.5,-0.66 -0.5,-0.8 0,-0.36 0.2,-0.55 0.5,-0.55 0.5,0 4.5,3.83 4.5,9.66 z"
             inkscape:connector-curvature="0"
             style="fill:#000000;stroke-width:0" /><path
             id="path5614"
             d="m 1360.2,349.08 -0.1,0.14 v 0.13 0.13 0.13 0.13 l -0.1,0.12 v 0.12 l -0.1,0.12 v 0.12 l -0.1,0.11 v 0.11 l -0.1,0.11 -0.1,0.1 -0.1,0.1 v 0.1 l -0.1,0.09 -0.1,0.09 -0.1,0.08 -0.1,0.08 -0.1,0.08 -0.1,0.07 -0.1,0.06 -0.1,0.06 -0.2,0.05 -0.1,0.05 -0.1,0.04 -0.1,0.04 -0.2,0.03 -0.1,0.02 -0.1,0.02 -0.2,0.01 h -0.1 c -1.4,0 -2.6,-1.2 -2.6,-2.64 0,-1.44 1.2,-2.64 2.6,-2.64 1.5,0 2.7,1.2 2.7,2.64 z"
             inkscape:connector-curvature="0"
             style="fill:#000000;stroke-width:0" /><path
             id="path5616"
             d="m 1373.9,349.08 v 0.14 0.13 0.13 0.13 0.13 l -0.1,0.12 v 0.12 l -0.1,0.12 v 0.12 l -0.1,0.11 v 0.11 l -0.1,0.11 -0.1,0.1 -0.1,0.1 v 0.1 l -0.1,0.09 -0.1,0.09 -0.1,0.08 -0.1,0.08 -0.1,0.08 -0.1,0.07 -0.1,0.06 -0.1,0.06 -0.2,0.05 -0.1,0.05 -0.1,0.04 -0.1,0.04 -0.2,0.03 -0.1,0.02 -0.1,0.02 -0.2,0.01 h -0.1 c -1.4,0 -2.6,-1.2 -2.6,-2.64 0,-1.44 1.2,-2.64 2.6,-2.64 1.5,0 2.6,1.2 2.6,2.64 z"
             inkscape:connector-curvature="0"
             style="fill:#000000;stroke-width:0" /><path
             id="path5618"
             d="m 1387.8,349.08 -0.1,0.14 v 0.13 0.13 0.13 0.13 l -0.1,0.12 v 0.12 l -0.1,0.12 v 0.12 l -0.1,0.11 v 0.11 l -0.1,0.11 -0.1,0.1 -0.1,0.1 v 0.1 l -0.1,0.09 -0.1,0.09 -0.1,0.08 -0.1,0.08 -0.1,0.08 -0.1,0.07 -0.1,0.06 -0.1,0.06 -0.2,0.05 -0.1,0.05 -0.1,0.04 -0.1,0.04 -0.2,0.03 -0.1,0.02 -0.1,0.02 -0.2,0.01 h -0.1 c -1.4,0 -2.6,-1.2 -2.6,-2.64 0,-1.44 1.2,-2.64 2.6,-2.64 1.5,0 2.7,1.2 2.7,2.64 z"
             inkscape:connector-curvature="0"
             style="fill:#000000;stroke-width:0" /><path
             id="path5620"
             d="m 1402.1,346.49 v 0.3 0.3 0.29 l -0.1,0.28 v 0.27 0.27 l -0.1,0.25 v 0.25 l -0.1,0.23 -0.1,0.23 v 0.22 l -0.1,0.21 -0.1,0.2 -0.1,0.2 -0.1,0.18 -0.1,0.17 -0.1,0.17 -0.1,0.15 -0.1,0.14 -0.1,0.14 -0.2,0.12 -0.1,0.11 -0.1,0.11 -0.2,0.09 -0.1,0.08 -0.2,0.07 -0.1,0.06 -0.2,0.05 -0.2,0.04 -0.1,0.03 -0.2,0.02 h -0.2 c -1.6,0 -2.6,-1.25 -2.6,-2.64 0,-1.34 1,-2.64 2.6,-2.64 0.6,0 1.3,0.2 1.8,0.64 0.1,0.11 0.2,0.16 0.2,0.16 0,0 0.1,-0.05 0.1,-0.75 0,-3.69 -1.7,-6.67 -3.4,-8.31 -0.5,-0.55 -0.5,-0.66 -0.5,-0.8 0,-0.36 0.2,-0.55 0.5,-0.55 0.5,0 4.5,3.83 4.5,9.66 z"
             inkscape:connector-curvature="0"
             style="fill:#000000;stroke-width:0" /><path
             id="path5622"
             d="m 1430.5,334.49 v 0.02 0.03 0.01 0.02 0.01 0.02 0.02 0.01 0.02 0.02 0.03 0.02 0.02 l -0.1,0.03 v 0.03 0.03 0.04 l -0.1,0.03 v 0.02 0.02 0.02 0.02 l -0.1,0.02 v 0.03 0.02 0.02 0.03 l -0.1,0.03 v 0.02 0.03 0.03 l -0.1,0.03 v 0.03 0.03 l -0.1,0.03 v 0.03 0.04 l -0.1,0.03 v 0.04 0.04 l -0.1,0.03 v 0.04 c -6.2,6.28 -7.8,15.69 -7.8,23.31 0,8.68 1.9,17.35 8,23.57 0.6,0.61 0.6,0.7 0.6,0.86 0,0.34 -0.1,0.48 -0.4,0.48 -0.5,0 -5,-3.37 -8,-9.7 -2.5,-5.49 -3.1,-11.02 -3.1,-15.21 0,-3.89 0.5,-9.9 3.3,-15.54 3,-6.13 7.3,-9.36 7.8,-9.36 0.3,0 0.4,0.14 0.4,0.5 z"
             inkscape:connector-curvature="0"
             style="fill:#000000;stroke-width:0" /><path
             id="path5624"
             d="m 1450,361.49 v 0.13 l 0.1,0.15 v 0.16 l 0.1,0.18 v 0.2 l 0.1,0.2 v 0.22 l 0.1,0.22 0.1,0.24 0.1,0.24 0.1,0.24 0.1,0.25 0.1,0.25 0.1,0.25 0.1,0.25 0.2,0.24 0.1,0.24 0.2,0.24 0.2,0.23 0.1,0.23 0.2,0.21 0.2,0.2 0.2,0.19 0.2,0.18 0.3,0.16 0.2,0.14 0.1,0.07 0.2,0.06 0.1,0.05 0.1,0.05 0.2,0.05 0.1,0.04 0.2,0.03 0.1,0.03 0.2,0.02 0.1,0.02 0.2,0.01 h 0.1 c 0.3,0 1.5,0 2.5,-0.64 -1.3,-0.25 -2.3,-1.5 -2.3,-2.68 0,-0.8 0.5,-1.75 1.8,-1.75 1.1,0 2.7,0.89 2.7,2.89 0,2.59 -2.9,3.28 -4.6,3.28 -2.9,0 -4.6,-2.64 -5.2,-3.78 -1.3,3.28 -4,3.78 -5.4,3.78 -5.2,0 -8,-6.42 -8,-7.67 0,-0.5 0.5,-0.5 0.6,-0.5 0.4,0 0.5,0.1 0.6,0.54 1.7,5.28 5,6.53 6.7,6.53 0.9,0 2.7,-0.43 2.7,-3.32 0,-1.55 -0.9,-4.9 -2.7,-11.86 -0.8,-3.1 -2.5,-5.19 -4.7,-5.19 -0.4,0 -1.5,0 -2.5,0.65 1.2,0.24 2.3,1.29 2.3,2.69 0,1.35 -1.1,1.74 -1.8,1.74 -1.5,0 -2.8,-1.3 -2.8,-2.89 0,-2.29 2.5,-3.29 4.7,-3.29 3.3,0 5.1,3.49 5.2,3.79 0.6,-1.85 2.4,-3.79 5.4,-3.79 5.1,0 8,6.43 8,7.68 0,0.5 -0.5,0.5 -0.6,0.5 -0.4,0 -0.6,-0.21 -0.7,-0.55 -1.6,-5.33 -5,-6.53 -6.6,-6.53 -1.9,0 -2.7,1.59 -2.7,3.3 0,1.09 0.3,2.18 0.8,4.37 z"
             inkscape:connector-curvature="0"
             style="fill:#000000;stroke-width:0" /><path
             id="path5626"
             d="m 1470.4,352.64 h 3.6 c 0.6,0 1.1,0 1.1,0.77 0,0.48 -0.5,0.48 -1.1,0.48 h -3.3 l 1.3,5.16 c 0,0.17 0.1,0.34 0.1,0.49 0,0.64 -0.5,1.12 -1.2,1.12 -0.8,0 -1.4,-0.59 -1.6,-1.5 -0.2,-0.87 0.2,0.8 -1.3,-5.27 h -3.6 c -0.6,0 -1.1,0 -1.1,-0.76 0,-0.49 0.4,-0.49 1.1,-0.49 h 3.3 l -2.1,-8.21 c -0.2,-0.88 -0.5,-2.13 -0.5,-2.58 0,-2.06 1.7,-3.31 3.7,-3.31 3.9,0 6.1,4.87 6.1,5.32 0,0.46 -0.5,0.46 -0.6,0.46 -0.4,0 -0.4,-0.08 -0.7,-0.66 -1,-2.2 -2.8,-4.16 -4.7,-4.16 -0.7,0 -1.2,0.46 -1.2,1.71 0,0.36 0.1,1.09 0.2,1.43 z"
             inkscape:connector-curvature="0"
             style="fill:#000000;stroke-width:0" /><path
             id="path5628"
             d="m 1489.8,346.49 v 0.3 0.3 0.29 0.28 l -0.1,0.27 v 0.27 0.25 l -0.1,0.25 -0.1,0.23 v 0.23 l -0.1,0.22 -0.1,0.21 v 0.2 l -0.1,0.2 -0.1,0.18 -0.1,0.17 -0.1,0.17 -0.2,0.15 -0.1,0.14 -0.1,0.14 -0.1,0.12 -0.2,0.11 -0.1,0.11 -0.1,0.09 -0.2,0.08 -0.1,0.07 -0.2,0.06 -0.2,0.05 -0.1,0.04 -0.2,0.03 -0.2,0.02 h -0.2 c -1.6,0 -2.6,-1.25 -2.6,-2.64 0,-1.34 1,-2.64 2.6,-2.64 0.6,0 1.3,0.2 1.8,0.64 0.1,0.11 0.2,0.16 0.2,0.16 0.1,0 0.1,-0.05 0.1,-0.75 0,-3.69 -1.7,-6.67 -3.4,-8.31 -0.5,-0.55 -0.5,-0.66 -0.5,-0.8 0,-0.36 0.3,-0.55 0.5,-0.55 0.5,0 4.5,3.83 4.5,9.66 z"
             inkscape:connector-curvature="0"
             style="fill:#000000;stroke-width:0" /><path
             id="path5630"
             d="m 1520.1,366.36 h 4.3 c 1,0 1.5,0 1.5,1 0,0.55 -0.5,0.55 -1.4,0.55 h -4.1 l 1,5.69 c 0.2,1.04 0.9,4.58 1.2,5.17 0.5,0.95 1.3,1.7 2.4,1.7 0.2,0 1.4,0 2.4,-0.9 -2.2,-0.19 -2.7,-1.94 -2.7,-2.69 0,-1.14 0.9,-1.74 1.9,-1.74 1.3,0 2.7,1.1 2.7,2.99 0,2.3 -2.3,3.44 -4.3,3.44 -1.7,0 -4.9,-0.89 -6.4,-5.83 -0.3,-1.05 -0.4,-1.55 -1.6,-7.83 h -3.4 c -1,0 -1.5,0 -1.5,-0.94 0,-0.61 0.4,-0.61 1.3,-0.61 h 3.4 l -3.8,-19.67 c -0.9,-4.83 -1.7,-9.37 -4.3,-9.37 -0.2,0 -1.5,0 -2.4,0.9 2.3,0.14 2.7,1.94 2.7,2.69 0,1.14 -0.9,1.75 -1.8,1.75 -1.3,0 -2.8,-1.09 -2.8,-3 0,-2.23 2.2,-3.44 4.3,-3.44 2.7,0 4.7,2.94 5.6,4.85 1.6,3.14 2.8,9.15 2.8,9.51 z"
             inkscape:connector-curvature="0"
             style="fill:#000000;stroke-width:0" /><path
             id="path5632"
             d="m 1548,334.49 v 0.02 0.03 0.01 0.02 0.01 0.02 0.02 0.01 0.02 0.02 0.03 0.02 0.02 l -0.1,0.03 v 0.03 0.03 0.04 l -0.1,0.03 v 0.02 0.02 0.02 0.02 l -0.1,0.02 v 0.03 0.02 0.02 0.03 l -0.1,0.03 v 0.02 0.03 0.03 l -0.1,0.03 v 0.03 0.03 l -0.1,0.03 v 0.03 0.04 l -0.1,0.03 v 0.04 0.04 l -0.1,0.03 v 0.04 c -6.2,6.28 -7.8,15.69 -7.8,23.31 0,8.68 1.9,17.35 8,23.57 0.6,0.61 0.6,0.7 0.6,0.86 0,0.34 -0.2,0.48 -0.4,0.48 -0.5,0 -5,-3.37 -8,-9.7 -2.5,-5.49 -3.1,-11.02 -3.1,-15.21 0,-3.89 0.5,-9.9 3.3,-15.54 3,-6.13 7.3,-9.36 7.8,-9.36 0.2,0 0.4,0.14 0.4,0.5 z"
             inkscape:connector-curvature="0"
             style="fill:#000000;stroke-width:0" /><path
             id="path5634"
             d="m 1567.5,361.49 v 0.13 l 0.1,0.15 v 0.16 l 0.1,0.18 v 0.2 l 0.1,0.2 v 0.22 l 0.1,0.22 0.1,0.24 0.1,0.24 0.1,0.24 0.1,0.25 0.1,0.25 0.1,0.25 0.1,0.25 0.2,0.24 0.1,0.24 0.2,0.24 0.2,0.23 0.1,0.23 0.2,0.21 0.2,0.2 0.2,0.19 0.2,0.18 0.3,0.16 0.2,0.14 0.1,0.07 0.2,0.06 0.1,0.05 0.1,0.05 0.2,0.05 0.1,0.04 0.2,0.03 0.1,0.03 0.2,0.02 0.1,0.02 0.2,0.01 h 0.1 c 0.3,0 1.5,0 2.5,-0.64 -1.4,-0.25 -2.4,-1.5 -2.4,-2.68 0,-0.8 0.6,-1.75 1.9,-1.75 1.1,0 2.7,0.89 2.7,2.89 0,2.59 -2.9,3.28 -4.6,3.28 -2.9,0 -4.6,-2.64 -5.2,-3.78 -1.3,3.28 -4,3.78 -5.4,3.78 -5.2,0 -8,-6.42 -8,-7.67 0,-0.5 0.5,-0.5 0.6,-0.5 0.4,0 0.5,0.1 0.6,0.54 1.7,5.28 5,6.53 6.7,6.53 0.9,0 2.7,-0.43 2.7,-3.32 0,-1.55 -0.9,-4.9 -2.7,-11.86 -0.8,-3.1 -2.6,-5.19 -4.8,-5.19 -0.2,0 -1.4,0 -2.4,0.65 1.2,0.24 2.3,1.29 2.3,2.69 0,1.35 -1.1,1.74 -1.8,1.74 -1.5,0 -2.8,-1.3 -2.8,-2.89 0,-2.29 2.5,-3.29 4.7,-3.29 3.3,0 5.1,3.49 5.2,3.79 0.6,-1.85 2.4,-3.79 5.4,-3.79 5.2,0 8,6.43 8,7.68 0,0.5 -0.5,0.5 -0.6,0.5 -0.5,0 -0.6,-0.21 -0.7,-0.55 -1.6,-5.33 -5,-6.53 -6.6,-6.53 -1.9,0 -2.7,1.59 -2.7,3.3 0,1.09 0.3,2.18 0.8,4.37 z"
             inkscape:connector-curvature="0"
             style="fill:#000000;stroke-width:0" /><path
             id="path5636"
             d="m 1587.9,352.64 h 3.5 c 0.7,0 1.2,0 1.2,0.77 0,0.48 -0.5,0.48 -1.1,0.48 h -3.3 l 1.3,5.16 c 0,0.17 0.1,0.34 0.1,0.49 0,0.64 -0.5,1.12 -1.2,1.12 -0.9,0 -1.4,-0.59 -1.6,-1.5 -0.3,-0.87 0.2,0.8 -1.4,-5.27 h -3.5 c -0.7,0 -1.1,0 -1.1,-0.76 0,-0.49 0.4,-0.49 1,-0.49 h 3.3 l -2,-8.21 c -0.2,-0.88 -0.5,-2.13 -0.5,-2.58 0,-2.06 1.7,-3.31 3.7,-3.31 3.9,0 6,4.87 6,5.32 0,0.46 -0.4,0.46 -0.5,0.46 -0.4,0 -0.5,-0.08 -0.7,-0.66 -1,-2.2 -2.8,-4.16 -4.7,-4.16 -0.7,0 -1.2,0.46 -1.2,1.71 0,0.36 0.1,1.09 0.2,1.43 z"
             inkscape:connector-curvature="0"
             style="fill:#000000;stroke-width:0" /><path
             id="path5638"
             d="m 1611.5,358.89 v 0.38 0.38 0.39 l -0.1,0.41 v 0.84 l -0.1,0.88 v 0.92 l -0.1,0.95 -0.2,0.98 -0.1,1 -0.2,1.02 -0.3,1.04 -0.2,1.05 -0.3,1.06 -0.4,1.06 -0.4,1.07 -0.2,0.53 -0.2,0.53 -0.3,0.53 -0.2,0.53 c -3,6.13 -7.3,9.36 -7.8,9.36 -0.3,0 -0.5,-0.19 -0.5,-0.48 0,-0.16 0,-0.25 1,-1.16 4.9,-4.92 7.7,-12.84 7.7,-23.27 0,-8.51 -1.8,-17.28 -8,-23.56 -0.7,-0.59 -0.7,-0.7 -0.7,-0.84 0,-0.3 0.2,-0.5 0.5,-0.5 0.5,0 5,3.39 7.9,9.72 2.6,5.47 3.2,11 3.2,15.18 z"
             inkscape:connector-curvature="0"
             style="fill:#000000;stroke-width:0" /><path
             id="path5640"
             d="m 1630.8,358.89 v 0.38 0.38 0.39 0.41 l -0.1,0.84 v 0.88 l -0.1,0.92 -0.1,0.95 -0.2,0.98 -0.1,1 -0.2,1.02 -0.3,1.04 -0.2,1.05 -0.3,1.06 -0.4,1.06 -0.4,1.07 -0.2,0.53 -0.2,0.53 -0.2,0.53 -0.3,0.53 c -3,6.13 -7.3,9.36 -7.8,9.36 -0.3,0 -0.5,-0.19 -0.5,-0.48 0,-0.16 0,-0.25 1,-1.16 4.9,-4.92 7.7,-12.84 7.7,-23.27 0,-8.51 -1.8,-17.28 -8,-23.56 -0.7,-0.59 -0.7,-0.7 -0.7,-0.84 0,-0.3 0.2,-0.5 0.5,-0.5 0.5,0 5,3.39 8,9.72 2.5,5.47 3.1,11 3.1,15.18 z"
             inkscape:connector-curvature="0"
             style="fill:#000000;stroke-width:0" /></g>      </g>
    </g>
    <g
       id="g6506">
      <text
         id="text5148"
         y="40.92791"
         x="58.846432"
         style="font-style:normal;font-variant:normal;font-weight:normal;font-stretch:normal;font-size:3.52777767px;line-height:1.25;font-family:serif;-inkscape-font-specification:'serif, Normal';font-variant-ligatures:normal;font-variant-caps:normal;font-variant-numeric:normal;font-feature-settings:normal;text-align:start;letter-spacing:0px;word-spacing:0px;writing-mode:lr-tb;text-anchor:start;fill:#000000;fill-opacity:1;stroke:none;stroke-width:0.26458332"
         xml:space="preserve"><tspan
           style="font-style:normal;font-variant:normal;font-weight:normal;font-stretch:normal;font-size:3.52777767px;font-family:serif;-inkscape-font-specification:'serif, Normal';font-variant-ligatures:normal;font-variant-caps:normal;font-variant-numeric:normal;font-feature-settings:normal;text-align:start;writing-mode:lr-tb;text-anchor:start;stroke-width:0.26458332"
           y="40.92791"
           x="58.846432"
           id="tspan5146"
           sodipodi:role="line">3:</tspan></text>
      <text
         xml:space="preserve"
         style="font-style:normal;font-variant:normal;font-weight:normal;font-stretch:normal;font-size:3.17499995px;line-height:1.25;font-family:sans-serif;-inkscape-font-specification:'sans-serif, Normal';font-variant-ligatures:normal;font-variant-caps:normal;font-variant-numeric:normal;font-feature-settings:normal;text-align:start;letter-spacing:0px;word-spacing:0px;writing-mode:lr-tb;text-anchor:start;fill:#000000;fill-opacity:1;stroke:none;stroke-width:0.26458332"
         x="69.136307"
         y="40.941711"
         id="text5827"><tspan
           sodipodi:role="line"
           id="tspan5825"
           x="69.136307"
           y="40.941711"
           style="font-style:normal;font-variant:normal;font-weight:normal;font-stretch:normal;font-size:3.17499995px;font-family:sans-serif;-inkscape-font-specification:'sans-serif, Normal';font-variant-ligatures:normal;font-variant-caps:normal;font-variant-numeric:normal;font-feature-settings:normal;text-align:start;writing-mode:lr-tb;text-anchor:start;stroke-width:0.26458332">입력값 후보           에 대한 함숫값               을 계산한다.</tspan></text>
      <g
         style="stroke-width:0.66042155"
         transform="matrix(1.5141845,0,0,1.5141845,0.41912138,-146.94871)"
         id="g5950">
        <g
           style="font-style:normal;font-variant:normal;font-weight:normal;font-stretch:normal;letter-spacing:normal;word-spacing:normal;text-anchor:start;fill:none;fill-opacity:1;fill-rule:evenodd;stroke:#000000;stroke-width:0.66042155;stroke-linecap:butt;stroke-linejoin:miter;stroke-miterlimit:10.43299961;stroke-dasharray:none;stroke-dashoffset:0;stroke-opacity:1"
           id="g5948"
           transform="matrix(0.05533897,0,0,-0.05533897,-9.6843195,142.9111)"
           xml:space="preserve"
           stroke-miterlimit="10.433"
           font-style="normal"
           font-variant="normal"
           font-weight="normal"
           font-stretch="normal"
           font-size-adjust="none"
           letter-spacing="normal"
           word-spacing="normal"><path
             style="fill:#000000;stroke-width:0"
             inkscape:connector-curvature="0"
             d="m 1208.5,361.49 v 0.13 0.15 l 0.1,0.16 v 0.18 l 0.1,0.2 v 0.2 l 0.1,0.22 0.1,0.22 0.1,0.24 0.1,0.24 v 0.24 l 0.2,0.25 0.1,0.25 0.1,0.25 0.1,0.25 0.2,0.24 0.1,0.24 0.2,0.24 0.1,0.23 0.2,0.23 0.2,0.21 0.2,0.2 0.2,0.19 0.2,0.18 0.2,0.16 0.3,0.14 0.1,0.07 0.1,0.06 0.2,0.05 0.1,0.05 0.2,0.05 0.1,0.04 0.1,0.03 0.2,0.03 0.1,0.02 0.2,0.02 0.2,0.01 h 0.1 c 0.3,0 1.5,0 2.5,-0.64 -1.4,-0.25 -2.4,-1.5 -2.4,-2.68 0,-0.8 0.6,-1.75 1.9,-1.75 1.1,0 2.7,0.89 2.7,2.89 0,2.59 -2.9,3.28 -4.6,3.28 -2.9,0 -4.7,-2.64 -5.3,-3.78 -1.2,3.28 -3.9,3.78 -5.3,3.78 -5.2,0 -8.1,-6.42 -8.1,-7.67 0,-0.5 0.5,-0.5 0.6,-0.5 0.4,0 0.6,0.1 0.7,0.54 1.7,5.28 5,6.53 6.7,6.53 0.9,0 2.6,-0.43 2.6,-3.32 0,-1.55 -0.8,-4.9 -2.6,-11.86 -0.9,-3.1 -2.6,-5.19 -4.8,-5.19 -0.3,0 -1.4,0 -2.5,0.65 1.3,0.24 2.4,1.29 2.4,2.69 0,1.35 -1.1,1.74 -1.9,1.74 -1.5,0 -2.7,-1.3 -2.7,-2.89 0,-2.29 2.5,-3.29 4.7,-3.29 3.3,0 5,3.49 5.2,3.79 0.6,-1.85 2.4,-3.79 5.4,-3.79 5.1,0 8,6.43 8,7.68 0,0.5 -0.5,0.5 -0.7,0.5 -0.4,0 -0.5,-0.21 -0.6,-0.55 -1.6,-5.33 -5,-6.53 -6.6,-6.53 -2,0 -2.8,1.59 -2.8,3.3 0,1.09 0.3,2.18 0.9,4.37 z"
             id="path5940" /><path
             style="fill:#000000;stroke-width:0"
             inkscape:connector-curvature="0"
             d="m 1228.9,352.64 h 3.5 c 0.7,0 1.1,0 1.1,0.77 0,0.48 -0.4,0.48 -1,0.48 h -3.3 l 1.2,5.16 c 0.1,0.17 0.2,0.34 0.2,0.49 0,0.64 -0.5,1.12 -1.2,1.12 -0.9,0 -1.4,-0.59 -1.7,-1.5 -0.2,-0.87 0.2,0.8 -1.3,-5.27 h -3.5 c -0.7,0 -1.1,0 -1.1,-0.76 0,-0.49 0.4,-0.49 1,-0.49 h 3.3 l -2,-8.21 c -0.3,-0.88 -0.6,-2.13 -0.6,-2.58 0,-2.06 1.8,-3.31 3.7,-3.31 3.9,0 6.1,4.87 6.1,5.32 0,0.46 -0.4,0.46 -0.5,0.46 -0.5,0 -0.5,-0.08 -0.8,-0.66 -0.9,-2.2 -2.7,-4.16 -4.6,-4.16 -0.8,0 -1.3,0.46 -1.3,1.71 0,0.36 0.2,1.09 0.2,1.43 z"
             id="path5942" /><path
             style="fill:#000000;stroke-width:0"
             inkscape:connector-curvature="0"
             d="m 1251.4,346.75 h 10.7 c 0.4,0 1.3,0 1.3,0.85 0,0.86 -0.8,0.86 -1.3,0.86 h -10.7 v 10.7 c 0,0.45 0,1.28 -0.8,1.28 -0.9,0 -0.9,-0.8 -0.9,-1.28 v -10.7 H 1239 c -0.4,0 -1.3,0 -1.3,-0.83 0,-0.88 0.8,-0.88 1.3,-0.88 h 10.7 v -10.7 c 0,-0.45 0,-1.28 0.9,-1.28 0.8,0 0.8,0.8 0.8,1.28 z"
             id="path5944" /><path
             style="fill:#000000;stroke-width:0"
             inkscape:connector-curvature="0"
             d="m 1277.6,361.04 v 0.04 l -0.1,0.04 v 0.04 0.04 0.04 0.04 0.04 0.03 0.03 0.04 0.03 0.03 0.03 0.03 0.02 0.03 0.03 0.02 0.05 0.04 0.04 0.03 l -0.1,0.03 v 0.03 0.02 0.03 l -0.1,0.02 v 0.01 0.02 l -0.1,0.01 v 0.01 0.01 h -0.1 v 0.01 0 0 l -0.1,0.01 v 0 0 h -0.1 v 0 0.01 h -0.1 v 0 0 h -0.1 v 0 h -0.1 v 0 h -0.1 v 0 c -2.2,-2.2 -5.4,-2.23 -6.8,-2.23 v -1.25 c 0.8,0 3.1,0 5,0.96 v -17.76 c 0,-1.16 0,-1.61 -3.5,-1.61 h -1.3 v -1.25 c 0.7,0.03 4.9,0.14 6.2,0.14 1.1,0 5.5,-0.11 6.3,-0.14 v 1.25 h -1.4 c -3.4,0 -3.4,0.45 -3.4,1.61 z"
             id="path5946" /></g>      </g>
      <g
         style="stroke-width:0.82825547"
         transform="matrix(1.207357,0,0,1.207357,49.538042,-108.59826)"
         id="g6141">
        <g
           style="font-style:normal;font-variant:normal;font-weight:normal;font-stretch:normal;letter-spacing:normal;word-spacing:normal;text-anchor:start;fill:none;fill-opacity:1;fill-rule:evenodd;stroke:#000000;stroke-width:0.82825547;stroke-linecap:butt;stroke-linejoin:miter;stroke-miterlimit:10.43299961;stroke-dasharray:none;stroke-dashoffset:0;stroke-opacity:1"
           id="g6139"
           transform="matrix(0.05533897,0,0,-0.05533897,-9.6843195,142.9111)"
           xml:space="preserve"
           stroke-miterlimit="10.433"
           font-style="normal"
           font-variant="normal"
           font-weight="normal"
           font-stretch="normal"
           font-size-adjust="none"
           letter-spacing="normal"
           word-spacing="normal"><path
             style="fill:#000000;stroke-width:0"
             inkscape:connector-curvature="0"
             d="m 1175.9,366.36 h 4.3 c 1,0 1.5,0 1.5,1 0,0.55 -0.5,0.55 -1.3,0.55 h -4.2 l 1.1,5.69 c 0.2,1.04 0.9,4.58 1.2,5.17 0.4,0.95 1.3,1.7 2.3,1.7 0.2,0 1.5,0 2.4,-0.9 -2.1,-0.19 -2.6,-1.94 -2.6,-2.69 0,-1.14 0.8,-1.74 1.8,-1.74 1.3,0 2.7,1.1 2.7,2.99 0,2.3 -2.3,3.44 -4.3,3.44 -1.7,0 -4.8,-0.89 -6.3,-5.83 -0.3,-1.05 -0.5,-1.55 -1.7,-7.83 h -3.4 c -1,0 -1.5,0 -1.5,-0.94 0,-0.61 0.5,-0.61 1.4,-0.61 h 3.3 l -3.8,-19.67 c -0.9,-4.83 -1.7,-9.37 -4.3,-9.37 -0.2,0 -1.4,0 -2.4,0.9 2.3,0.14 2.8,1.94 2.8,2.69 0,1.14 -0.9,1.75 -1.9,1.75 -1.3,0 -2.7,-1.09 -2.7,-3 0,-2.23 2.2,-3.44 4.2,-3.44 2.7,0 4.7,2.94 5.6,4.85 1.6,3.14 2.8,9.15 2.8,9.51 z"
             id="path6125" /><path
             style="fill:#000000;stroke-width:0"
             inkscape:connector-curvature="0"
             d="m 1203.9,334.49 v 0.02 0.03 0.01 0.02 0.01 0.02 0.02 0.01 l -0.1,0.02 v 0.02 0.03 0.02 0.02 0.03 0.03 l -0.1,0.03 v 0.04 0.03 0.02 l -0.1,0.02 v 0.02 0.02 0.02 0.03 l -0.1,0.02 v 0.02 0.03 0.03 0.02 l -0.1,0.03 v 0.03 0.03 l -0.1,0.03 v 0.03 0.03 0.03 l -0.1,0.04 v 0.03 0.04 l -0.1,0.04 v 0.03 l -0.1,0.04 c -6.2,6.28 -7.8,15.69 -7.8,23.31 0,8.68 1.9,17.35 8,23.57 0.7,0.61 0.7,0.7 0.7,0.86 0,0.34 -0.2,0.48 -0.5,0.48 -0.5,0 -5,-3.37 -7.9,-9.7 -2.6,-5.49 -3.2,-11.02 -3.2,-15.21 0,-3.89 0.6,-9.9 3.3,-15.54 3,-6.13 7.3,-9.36 7.8,-9.36 0.3,0 0.5,0.14 0.5,0.5 z"
             id="path6127" /><path
             style="fill:#000000;stroke-width:0"
             inkscape:connector-curvature="0"
             d="m 1223.4,361.49 v 0.13 0.15 l 0.1,0.16 v 0.18 l 0.1,0.2 v 0.2 l 0.1,0.22 0.1,0.22 v 0.24 l 0.1,0.24 0.1,0.24 0.1,0.25 0.1,0.25 0.2,0.25 0.1,0.25 0.1,0.24 0.2,0.24 0.1,0.24 0.2,0.23 0.2,0.23 0.2,0.21 0.2,0.2 0.2,0.19 0.2,0.18 0.2,0.16 0.3,0.14 0.1,0.07 0.1,0.06 0.1,0.05 0.2,0.05 0.1,0.05 0.2,0.04 0.1,0.03 0.2,0.03 0.1,0.02 0.2,0.02 0.1,0.01 h 0.2 c 0.2,0 1.4,0 2.5,-0.64 -1.4,-0.25 -2.4,-1.5 -2.4,-2.68 0,-0.8 0.5,-1.75 1.9,-1.75 1.1,0 2.7,0.89 2.7,2.89 0,2.59 -3,3.28 -4.7,3.28 -2.9,0 -4.6,-2.64 -5.2,-3.78 -1.2,3.28 -3.9,3.78 -5.4,3.78 -5.2,0 -8,-6.42 -8,-7.67 0,-0.5 0.5,-0.5 0.6,-0.5 0.4,0 0.6,0.1 0.6,0.54 1.7,5.28 5,6.53 6.7,6.53 1,0 2.7,-0.43 2.7,-3.32 0,-1.55 -0.8,-4.9 -2.7,-11.86 -0.8,-3.1 -2.5,-5.19 -4.7,-5.19 -0.3,0 -1.5,0 -2.5,0.65 1.3,0.24 2.4,1.29 2.4,2.69 0,1.35 -1.1,1.74 -1.9,1.74 -1.5,0 -2.7,-1.3 -2.7,-2.89 0,-2.29 2.5,-3.29 4.6,-3.29 3.3,0 5.1,3.49 5.3,3.79 0.6,-1.85 2.4,-3.79 5.3,-3.79 5.2,0 8,6.43 8,7.68 0,0.5 -0.4,0.5 -0.6,0.5 -0.4,0 -0.5,-0.21 -0.6,-0.55 -1.7,-5.33 -5,-6.53 -6.6,-6.53 -2,0 -2.8,1.59 -2.8,3.3 0,1.09 0.3,2.18 0.9,4.37 z"
             id="path6129" /><path
             style="fill:#000000;stroke-width:0"
             inkscape:connector-curvature="0"
             d="m 1243.7,352.64 h 3.6 c 0.6,0 1.1,0 1.1,0.77 0,0.48 -0.5,0.48 -1,0.48 h -3.3 l 1.2,5.16 c 0.1,0.17 0.1,0.34 0.1,0.49 0,0.64 -0.4,1.12 -1.2,1.12 -0.8,0 -1.3,-0.59 -1.6,-1.5 -0.2,-0.87 0.2,0.8 -1.3,-5.27 h -3.6 c -0.6,0 -1.1,0 -1.1,-0.76 0,-0.49 0.4,-0.49 1.1,-0.49 h 3.3 l -2.1,-8.21 c -0.2,-0.88 -0.5,-2.13 -0.5,-2.58 0,-2.06 1.7,-3.31 3.7,-3.31 3.9,0 6.1,4.87 6.1,5.32 0,0.46 -0.5,0.46 -0.6,0.46 -0.4,0 -0.4,-0.08 -0.7,-0.66 -1,-2.2 -2.8,-4.16 -4.7,-4.16 -0.7,0 -1.2,0.46 -1.2,1.71 0,0.36 0.2,1.09 0.2,1.43 z"
             id="path6131" /><path
             style="fill:#000000;stroke-width:0"
             inkscape:connector-curvature="0"
             d="m 1266.3,346.75 h 10.7 c 0.4,0 1.2,0 1.2,0.85 0,0.86 -0.8,0.86 -1.2,0.86 h -10.7 v 10.7 c 0,0.45 0,1.28 -0.8,1.28 -0.9,0 -0.9,-0.8 -0.9,-1.28 v -10.7 h -10.7 c -0.5,0 -1.3,0 -1.3,-0.83 0,-0.88 0.8,-0.88 1.3,-0.88 h 10.7 v -10.7 c 0,-0.45 0,-1.28 0.8,-1.28 0.9,0 0.9,0.8 0.9,1.28 z"
             id="path6133" /><path
             style="fill:#000000;stroke-width:0"
             inkscape:connector-curvature="0"
             d="m 1292.4,361.04 v 0.04 0.04 0.04 0.04 0.04 0.04 0.04 0.03 0.03 0.04 0.03 0.03 0.03 0.03 0.02 0.03 0.03 0.02 0.05 0.04 0.04 l -0.1,0.03 v 0.03 0.03 0.02 l -0.1,0.03 v 0.02 0.01 l -0.1,0.02 v 0.01 0.01 l -0.1,0.01 v 0 0.01 0 h -0.1 v 0.01 0 h -0.1 v 0 0 l -0.1,0.01 v 0 0 h -0.1 v 0 0 h -0.1 v 0 h -0.1 v 0 c -2.2,-2.2 -5.4,-2.23 -6.8,-2.23 v -1.25 c 0.8,0 3.1,0 5,0.96 v -17.76 c 0,-1.16 0,-1.61 -3.5,-1.61 h -1.3 v -1.25 c 0.6,0.03 4.9,0.14 6.2,0.14 1.1,0 5.5,-0.11 6.2,-0.14 v 1.25 h -1.3 c -3.5,0 -3.5,0.45 -3.5,1.61 z"
             id="path6135" /><path
             style="fill:#000000;stroke-width:0"
             inkscape:connector-curvature="0"
             d="m 1317.6,358.89 v 0.38 0.38 0.39 0.41 l -0.1,0.84 v 0.88 l -0.1,0.92 -0.1,0.95 -0.2,0.98 -0.1,1 -0.2,1.02 -0.3,1.04 -0.2,1.05 -0.3,1.06 -0.4,1.06 -0.4,1.07 -0.2,0.53 -0.2,0.53 -0.2,0.53 -0.3,0.53 c -3,6.13 -7.3,9.36 -7.8,9.36 -0.3,0 -0.5,-0.19 -0.5,-0.48 0,-0.16 0,-0.25 1,-1.16 4.9,-4.92 7.7,-12.84 7.7,-23.27 0,-8.51 -1.8,-17.28 -8,-23.56 -0.7,-0.59 -0.7,-0.7 -0.7,-0.84 0,-0.3 0.2,-0.5 0.5,-0.5 0.5,0 5,3.39 8,9.72 2.5,5.47 3.1,11 3.1,15.18 z"
             id="path6137" /></g>      </g>
      <text
         id="text6156"
         y="39.275394"
         x="120.33295"
         style="font-style:normal;font-weight:normal;font-size:10.58333302px;line-height:1.25;font-family:sans-serif;letter-spacing:0px;word-spacing:0px;fill:#000000;fill-opacity:1;stroke:none;stroke-width:0.26458332"
         xml:space="preserve"><tspan
           style="stroke-width:0.26458332"
           y="39.275394"
           x="120.33295"
           id="tspan6154"
           sodipodi:role="line">  </tspan></text>
    </g>
  </g>
</svg>
