<?xml version="1.0" encoding="utf-8" standalone="no"?>
<!DOCTYPE svg PUBLIC "-//W3C//DTD SVG 1.1//EN"
  "http://www.w3.org/Graphics/SVG/1.1/DTD/svg11.dtd">
<!-- Created with matplotlib (http://matplotlib.org/) -->
<svg height="432pt" version="1.1" viewBox="0 0 720 432" width="720pt" xmlns="http://www.w3.org/2000/svg" xmlns:xlink="http://www.w3.org/1999/xlink">
 <defs>
  <style type="text/css">
*{stroke-linecap:butt;stroke-linejoin:round;}
  </style>
 </defs>
 <g id="figure_1">
  <g id="patch_1">
   <path d="M 0 432 
L 720 432 
L 720 0 
L 0 0 
z
" style="fill:#ffffff;"/>
  </g>
  <g id="axes_1">
   <g id="patch_2">
    <path d="M 90 378 
L 648 378 
L 648 51.84 
L 90 51.84 
z
" style="fill:#ffffff;"/>
   </g>
   <g id="PathCollection_1">
    <defs>
     <path d="M 0 5 
C 1.326016 5 2.597899 4.473168 3.535534 3.535534 
C 4.473168 2.597899 5 1.326016 5 0 
C 5 -1.326016 4.473168 -2.597899 3.535534 -3.535534 
C 2.597899 -4.473168 1.326016 -5 0 -5 
C -1.326016 -5 -2.597899 -4.473168 -3.535534 -3.535534 
C -4.473168 -2.597899 -5 -1.326016 -5 0 
C -5 1.326016 -4.473168 2.597899 -3.535534 3.535534 
C -2.597899 4.473168 -1.326016 5 0 5 
z
" id="m822ef4d8f9" style="stroke:#000000;stroke-opacity:0.5;"/>
    </defs>
    <g clip-path="url(#p5c986174ca)">
     <use style="fill:#808000;fill-opacity:0.5;stroke:#000000;stroke-opacity:0.5;" x="207.433313" xlink:href="#m822ef4d8f9" y="191.471291"/>
     <use style="fill:#808000;fill-opacity:0.5;stroke:#000000;stroke-opacity:0.5;" x="309.20442" xlink:href="#m822ef4d8f9" y="282.375013"/>
     <use style="fill:#808000;fill-opacity:0.5;stroke:#000000;stroke-opacity:0.5;" x="410.975526" xlink:href="#m822ef4d8f9" y="239.041662"/>
     <use style="fill:#808000;fill-opacity:0.5;stroke:#000000;stroke-opacity:0.5;" x="461.861079" xlink:href="#m822ef4d8f9" y="333.98982"/>
    </g>
   </g>
   <g id="PathCollection_2">
    <defs>
     <path d="M -0 7.071068 
L 7.071068 0 
L 0 -7.071068 
L -7.071068 -0 
z
" id="m07d5395e9b" style="stroke:#000000;stroke-opacity:0.5;"/>
    </defs>
    <g clip-path="url(#p5c986174ca)">
     <use style="fill:#808000;fill-opacity:0.5;stroke:#000000;stroke-opacity:0.5;" x="114.76673" xlink:href="#m07d5395e9b" y="71.456176"/>
     <use style="fill:#808000;fill-opacity:0.5;stroke:#000000;stroke-opacity:0.5;" x="216.537837" xlink:href="#m07d5395e9b" y="301.269374"/>
     <use style="fill:#808000;fill-opacity:0.5;stroke:#000000;stroke-opacity:0.5;" x="318.308943" xlink:href="#m07d5395e9b" y="293.790246"/>
     <use style="fill:#808000;fill-opacity:0.5;stroke:#000000;stroke-opacity:0.5;" x="369.194496" xlink:href="#m07d5395e9b" y="301.949294"/>
    </g>
   </g>
   <g id="PathCollection_3">
    <defs>
     <path d="M -1.666667 5 
L 1.666667 5 
L 1.666667 1.666667 
L 5 1.666667 
L 5 -1.666667 
L 1.666667 -1.666667 
L 1.666667 -5 
L -1.666667 -5 
L -1.666667 -1.666667 
L -5 -1.666667 
L -5 1.666667 
L -1.666667 1.666667 
z
" id="m3d99ec1282" style="stroke:#000000;stroke-opacity:0.5;"/>
    </defs>
    <g clip-path="url(#p5c986174ca)">
     <use style="fill:#808000;fill-opacity:0.5;stroke:#000000;stroke-opacity:0.5;" x="318.729318" xlink:href="#m3d99ec1282" y="285.371893"/>
     <use style="fill:#808000;fill-opacity:0.5;stroke:#000000;stroke-opacity:0.5;" x="420.500424" xlink:href="#m3d99ec1282" y="298.373306"/>
     <use style="fill:#808000;fill-opacity:0.5;stroke:#000000;stroke-opacity:0.5;" x="522.271531" xlink:href="#m3d99ec1282" y="313.865242"/>
     <use style="fill:#808000;fill-opacity:0.5;stroke:#000000;stroke-opacity:0.5;" x="573.157084" xlink:href="#m3d99ec1282" y="309.095245"/>
    </g>
   </g>
   <g id="PathCollection_4">
    <defs>
     <path d="M -5 5 
L 5 5 
L 5 -5 
L -5 -5 
z
" id="md5b3a84266" style="stroke:#000000;stroke-opacity:0.5;"/>
    </defs>
    <g clip-path="url(#p5c986174ca)">
     <use style="fill:#808000;fill-opacity:0.5;stroke:#000000;stroke-opacity:0.5;" x="178.216493" xlink:href="#md5b3a84266" y="211.145307"/>
     <use style="fill:#808000;fill-opacity:0.5;stroke:#000000;stroke-opacity:0.5;" x="279.987599" xlink:href="#md5b3a84266" y="235.108732"/>
     <use style="fill:#808000;fill-opacity:0.5;stroke:#000000;stroke-opacity:0.5;" x="381.758706" xlink:href="#md5b3a84266" y="299.843552"/>
     <use style="fill:#808000;fill-opacity:0.5;stroke:#000000;stroke-opacity:0.5;" x="432.644259" xlink:href="#md5b3a84266" y="298.416434"/>
    </g>
   </g>
   <g id="matplotlib.axis_1">
    <g id="xtick_1">
     <g id="line2d_1">
      <defs>
       <path d="M 0 0 
L 0 3.5 
" id="m1bb0e4614a" style="stroke:#000000;stroke-width:0.8;"/>
      </defs>
      <g>
       <use style="stroke:#000000;stroke-width:0.8;" x="140.885553" xlink:href="#m1bb0e4614a" y="378"/>
      </g>
     </g>
     <g id="text_1">
      <!-- $\mathdefault{10^{2}}$ -->
      <defs>
       <path d="M 12.203125 55.40625 
L 12.203125 61.59375 
Q 16.296875 63.40625 19.9375 66.046875 
Q 23.59375 68.703125 26.703125 72.203125 
L 35.703125 72.203125 
L 35.703125 -3.59375 
L 27.09375 -3.59375 
L 27.09375 62.796875 
L 27 62.796875 
Q 23.59375 60.09375 20.140625 58.140625 
Q 16.703125 56.203125 13.203125 54.90625 
Q 12.203125 54.5 12.203125 55.40625 
z
" id="NanumBarunGothic-31"/>
       <path d="M 29.203125 73.5 
Q 41.09375 73.5 47.4375 63.59375 
Q 53.796875 53.703125 53.796875 33.59375 
Q 53.796875 13.59375 47.390625 4.390625 
Q 41 -4.796875 29.203125 -4.796875 
Q 23.296875 -4.796875 18.6875 -2.546875 
Q 14.09375 -0.296875 10.9375 4.390625 
Q 7.796875 9.09375 6.1875 16.34375 
Q 4.59375 23.59375 4.59375 33.59375 
Q 4.59375 53.703125 10.9375 63.59375 
Q 17.296875 73.5 29.203125 73.5 
z
M 29.203125 66.5 
Q 13.296875 66.5 13.296875 33.40625 
Q 13.296875 16.90625 17.25 9.5 
Q 21.203125 2.09375 29.203125 2.09375 
Q 37.09375 2.09375 41.09375 9.5 
Q 45.09375 16.90625 45.09375 33.40625 
Q 45.09375 66.5 29.203125 66.5 
z
" id="NanumBarunGothic-30"/>
       <path d="M 9.09375 57.703125 
Q 8 56.59375 8 58.09375 
L 8 65.59375 
Q 12.203125 68.90625 17.203125 71.203125 
Q 22.203125 73.5 28.90625 73.5 
Q 39.796875 73.5 45.4375 68.546875 
Q 51.09375 63.59375 51.09375 53.40625 
Q 51.09375 50 50 46.890625 
Q 48.90625 43.796875 46.953125 40.640625 
Q 45 37.5 42.25 34.09375 
Q 39.5 30.703125 36.203125 26.703125 
L 15.796875 3.5 
L 15.796875 3.40625 
L 52.203125 3.40625 
L 52.203125 -3.59375 
L 5.5 -3.59375 
L 5.5 3.90625 
L 28.796875 30.09375 
Q 32.703125 35.09375 35.296875 38.4375 
Q 37.90625 41.796875 39.453125 44.34375 
Q 41 46.90625 41.640625 49 
Q 42.296875 51.09375 42.296875 53.59375 
Q 42.296875 59.703125 39.140625 63.09375 
Q 36 66.5 29.09375 66.5 
Q 24.296875 66.5 19.296875 64.25 
Q 14.296875 62 9.09375 57.703125 
z
" id="NanumBarunGothic-32"/>
      </defs>
      <g transform="translate(132.835553 392.770312)scale(0.1 -0.1)">
       <use transform="translate(0 0.85)" xlink:href="#NanumBarunGothic-31"/>
       <use transform="translate(58.299988 0.85)" xlink:href="#NanumBarunGothic-30"/>
       <use transform="translate(117.492476 36.55)scale(0.7)" xlink:href="#NanumBarunGothic-32"/>
      </g>
     </g>
    </g>
    <g id="xtick_2">
     <g id="line2d_2">
      <g>
       <use style="stroke:#000000;stroke-width:0.8;" x="309.923702" xlink:href="#m1bb0e4614a" y="378"/>
      </g>
     </g>
     <g id="text_2">
      <!-- $\mathdefault{10^{3}}$ -->
      <defs>
       <path d="M 28.703125 -4.5 
Q 22 -4.40625 15.84375 -2.40625 
Q 9.703125 -0.40625 5.90625 3.203125 
L 5.90625 10.40625 
Q 5.90625 11.09375 6.25 11.25 
Q 6.59375 11.40625 7.09375 10.90625 
Q 12.5 6.40625 17.75 4.453125 
Q 23 2.5 28.90625 2.5 
Q 32.203125 2.5 35 3.546875 
Q 37.796875 4.59375 39.890625 6.546875 
Q 42 8.5 43.203125 11.09375 
Q 44.40625 13.703125 44.40625 16.90625 
Q 44.40625 32.40625 25.796875 32.40625 
L 23.09375 32.40625 
L 23.09375 39.5 
L 24.296875 39.5 
Q 27.90625 39.59375 31.203125 40.25 
Q 34.5 40.90625 37 42.453125 
Q 39.5 44 41 46.703125 
Q 42.5 49.40625 42.5 53.703125 
Q 42.5 60.40625 38.546875 63.5 
Q 34.59375 66.59375 28.59375 66.59375 
Q 23.796875 66.59375 18.6875 64.6875 
Q 13.59375 62.796875 9.203125 58.90625 
Q 8.796875 58.59375 8.4375 58.6875 
Q 8.09375 58.796875 8.09375 59.40625 
L 8.09375 66.796875 
Q 9.59375 68.09375 11.6875 69.296875 
Q 13.796875 70.5 16.390625 71.453125 
Q 19 72.40625 22.046875 73 
Q 25.09375 73.59375 28.40625 73.59375 
Q 33.40625 73.59375 37.65625 72.390625 
Q 41.90625 71.203125 44.953125 68.75 
Q 48 66.296875 49.703125 62.640625 
Q 51.40625 59 51.40625 54.203125 
Q 51.40625 50.703125 50.40625 47.75 
Q 49.40625 44.796875 47.59375 42.4375 
Q 45.796875 40.09375 43.296875 38.5 
Q 40.796875 36.90625 37.796875 36.296875 
L 37.796875 36.09375 
Q 45 34.5 49.09375 30.046875 
Q 53.203125 25.59375 53.203125 17.203125 
Q 53.203125 13 51.640625 9.046875 
Q 50.09375 5.09375 47 2.09375 
Q 43.90625 -0.90625 39.34375 -2.703125 
Q 34.796875 -4.5 28.703125 -4.5 
z
" id="NanumBarunGothic-33"/>
      </defs>
      <g transform="translate(301.873702 392.770312)scale(0.1 -0.1)">
       <use transform="translate(0 0.784375)" xlink:href="#NanumBarunGothic-31"/>
       <use transform="translate(58.299988 0.784375)" xlink:href="#NanumBarunGothic-30"/>
       <use transform="translate(117.492476 36.484375)scale(0.7)" xlink:href="#NanumBarunGothic-33"/>
      </g>
     </g>
    </g>
    <g id="xtick_3">
     <g id="line2d_3">
      <g>
       <use style="stroke:#000000;stroke-width:0.8;" x="478.961851" xlink:href="#m1bb0e4614a" y="378"/>
      </g>
     </g>
     <g id="text_3">
      <!-- $\mathdefault{10^{4}}$ -->
      <defs>
       <path d="M 2.09375 13.703125 
L 2.09375 22.203125 
L 35.296875 72.203125 
L 45.59375 72.203125 
L 45.59375 20.703125 
L 56.90625 20.703125 
L 56.90625 13.703125 
L 45.59375 13.703125 
L 45.59375 -3.59375 
L 37.09375 -3.59375 
L 37.09375 13.703125 
z
M 34.703125 59.296875 
L 9.296875 20.59375 
L 9.296875 20.5 
L 37.5 20.5 
L 37.5 59.09375 
L 37.59375 64.703125 
z
" id="NanumBarunGothic-34"/>
      </defs>
      <g transform="translate(470.911851 392.770312)scale(0.1 -0.1)">
       <use transform="translate(0 0.757812)" xlink:href="#NanumBarunGothic-31"/>
       <use transform="translate(58.299988 0.757812)" xlink:href="#NanumBarunGothic-30"/>
       <use transform="translate(117.492476 36.457812)scale(0.7)" xlink:href="#NanumBarunGothic-34"/>
      </g>
     </g>
    </g>
    <g id="xtick_4">
     <g id="line2d_4">
      <g>
       <use style="stroke:#000000;stroke-width:0.8;" x="648" xlink:href="#m1bb0e4614a" y="378"/>
      </g>
     </g>
     <g id="text_4">
      <!-- $\mathdefault{10^{5}}$ -->
      <defs>
       <path d="M 6.796875 8.703125 
Q 11.59375 5.5 16.59375 3.953125 
Q 21.59375 2.40625 27.296875 2.40625 
Q 31.203125 2.5 34.5 3.84375 
Q 37.796875 5.203125 40.1875 7.5 
Q 42.59375 9.796875 43.9375 12.9375 
Q 45.296875 16.09375 45.296875 19.90625 
Q 45.296875 24.296875 43.640625 27.34375 
Q 42 30.40625 39.046875 32.296875 
Q 36.09375 34.203125 32.140625 35.046875 
Q 28.203125 35.90625 23.59375 35.90625 
Q 20.09375 35.90625 16.09375 35.40625 
Q 12.09375 34.90625 8.5 34.09375 
L 10.59375 71.796875 
L 49.796875 71.796875 
L 49.796875 64.90625 
L 17.796875 64.90625 
L 16.296875 41.703125 
L 16.5 41.703125 
Q 19.40625 42 22 42.203125 
Q 24.59375 42.40625 27.203125 42.40625 
Q 33.09375 42.40625 38 40.953125 
Q 42.90625 39.5 46.453125 36.75 
Q 50 34 51.953125 29.953125 
Q 53.90625 25.90625 53.90625 20.796875 
Q 53.90625 15.5 52.046875 10.84375 
Q 50.203125 6.203125 46.703125 2.796875 
Q 43.203125 -0.59375 38.203125 -2.546875 
Q 33.203125 -4.5 27 -4.5 
Q 20.296875 -4.40625 15.09375 -3.046875 
Q 9.90625 -1.703125 5.703125 1.296875 
L 5.703125 8.203125 
Q 5.703125 8.796875 6.046875 8.9375 
Q 6.40625 9.09375 6.796875 8.703125 
z
" id="NanumBarunGothic-35"/>
      </defs>
      <g transform="translate(639.95 392.770312)scale(0.1 -0.1)">
       <use transform="translate(0 0.042188)" xlink:href="#NanumBarunGothic-31"/>
       <use transform="translate(58.299988 0.042188)" xlink:href="#NanumBarunGothic-30"/>
       <use transform="translate(117.492476 35.742188)scale(0.7)" xlink:href="#NanumBarunGothic-35"/>
      </g>
     </g>
    </g>
    <g id="xtick_5">
     <g id="line2d_5">
      <defs>
       <path d="M 0 0 
L 0 2 
" id="m7af5e227d6" style="stroke:#000000;stroke-width:0.6;"/>
      </defs>
      <g>
       <use style="stroke:#000000;stroke-width:0.6;" x="90" xlink:href="#m7af5e227d6" y="378"/>
      </g>
     </g>
    </g>
    <g id="xtick_6">
     <g id="line2d_6">
      <g>
       <use style="stroke:#000000;stroke-width:0.6;" x="103.384651" xlink:href="#m7af5e227d6" y="378"/>
      </g>
     </g>
    </g>
    <g id="xtick_7">
     <g id="line2d_7">
      <g>
       <use style="stroke:#000000;stroke-width:0.6;" x="114.701213" xlink:href="#m7af5e227d6" y="378"/>
      </g>
     </g>
    </g>
    <g id="xtick_8">
     <g id="line2d_8">
      <g>
       <use style="stroke:#000000;stroke-width:0.6;" x="124.504064" xlink:href="#m7af5e227d6" y="378"/>
      </g>
     </g>
    </g>
    <g id="xtick_9">
     <g id="line2d_9">
      <g>
       <use style="stroke:#000000;stroke-width:0.6;" x="133.150792" xlink:href="#m7af5e227d6" y="378"/>
      </g>
     </g>
    </g>
    <g id="xtick_10">
     <g id="line2d_10">
      <g>
       <use style="stroke:#000000;stroke-width:0.6;" x="191.771106" xlink:href="#m7af5e227d6" y="378"/>
      </g>
     </g>
    </g>
    <g id="xtick_11">
     <g id="line2d_11">
      <g>
       <use style="stroke:#000000;stroke-width:0.6;" x="221.537247" xlink:href="#m7af5e227d6" y="378"/>
      </g>
     </g>
    </g>
    <g id="xtick_12">
     <g id="line2d_12">
      <g>
       <use style="stroke:#000000;stroke-width:0.6;" x="242.65666" xlink:href="#m7af5e227d6" y="378"/>
      </g>
     </g>
    </g>
    <g id="xtick_13">
     <g id="line2d_13">
      <g>
       <use style="stroke:#000000;stroke-width:0.6;" x="259.038149" xlink:href="#m7af5e227d6" y="378"/>
      </g>
     </g>
    </g>
    <g id="xtick_14">
     <g id="line2d_14">
      <g>
       <use style="stroke:#000000;stroke-width:0.6;" x="272.4228" xlink:href="#m7af5e227d6" y="378"/>
      </g>
     </g>
    </g>
    <g id="xtick_15">
     <g id="line2d_15">
      <g>
       <use style="stroke:#000000;stroke-width:0.6;" x="283.739362" xlink:href="#m7af5e227d6" y="378"/>
      </g>
     </g>
    </g>
    <g id="xtick_16">
     <g id="line2d_16">
      <g>
       <use style="stroke:#000000;stroke-width:0.6;" x="293.542213" xlink:href="#m7af5e227d6" y="378"/>
      </g>
     </g>
    </g>
    <g id="xtick_17">
     <g id="line2d_17">
      <g>
       <use style="stroke:#000000;stroke-width:0.6;" x="302.188941" xlink:href="#m7af5e227d6" y="378"/>
      </g>
     </g>
    </g>
    <g id="xtick_18">
     <g id="line2d_18">
      <g>
       <use style="stroke:#000000;stroke-width:0.6;" x="360.809255" xlink:href="#m7af5e227d6" y="378"/>
      </g>
     </g>
    </g>
    <g id="xtick_19">
     <g id="line2d_19">
      <g>
       <use style="stroke:#000000;stroke-width:0.6;" x="390.575396" xlink:href="#m7af5e227d6" y="378"/>
      </g>
     </g>
    </g>
    <g id="xtick_20">
     <g id="line2d_20">
      <g>
       <use style="stroke:#000000;stroke-width:0.6;" x="411.694809" xlink:href="#m7af5e227d6" y="378"/>
      </g>
     </g>
    </g>
    <g id="xtick_21">
     <g id="line2d_21">
      <g>
       <use style="stroke:#000000;stroke-width:0.6;" x="428.076298" xlink:href="#m7af5e227d6" y="378"/>
      </g>
     </g>
    </g>
    <g id="xtick_22">
     <g id="line2d_22">
      <g>
       <use style="stroke:#000000;stroke-width:0.6;" x="441.460949" xlink:href="#m7af5e227d6" y="378"/>
      </g>
     </g>
    </g>
    <g id="xtick_23">
     <g id="line2d_23">
      <g>
       <use style="stroke:#000000;stroke-width:0.6;" x="452.77751" xlink:href="#m7af5e227d6" y="378"/>
      </g>
     </g>
    </g>
    <g id="xtick_24">
     <g id="line2d_24">
      <g>
       <use style="stroke:#000000;stroke-width:0.6;" x="462.580362" xlink:href="#m7af5e227d6" y="378"/>
      </g>
     </g>
    </g>
    <g id="xtick_25">
     <g id="line2d_25">
      <g>
       <use style="stroke:#000000;stroke-width:0.6;" x="471.22709" xlink:href="#m7af5e227d6" y="378"/>
      </g>
     </g>
    </g>
    <g id="xtick_26">
     <g id="line2d_26">
      <g>
       <use style="stroke:#000000;stroke-width:0.6;" x="529.847404" xlink:href="#m7af5e227d6" y="378"/>
      </g>
     </g>
    </g>
    <g id="xtick_27">
     <g id="line2d_27">
      <g>
       <use style="stroke:#000000;stroke-width:0.6;" x="559.613545" xlink:href="#m7af5e227d6" y="378"/>
      </g>
     </g>
    </g>
    <g id="xtick_28">
     <g id="line2d_28">
      <g>
       <use style="stroke:#000000;stroke-width:0.6;" x="580.732958" xlink:href="#m7af5e227d6" y="378"/>
      </g>
     </g>
    </g>
    <g id="xtick_29">
     <g id="line2d_29">
      <g>
       <use style="stroke:#000000;stroke-width:0.6;" x="597.114447" xlink:href="#m7af5e227d6" y="378"/>
      </g>
     </g>
    </g>
    <g id="xtick_30">
     <g id="line2d_30">
      <g>
       <use style="stroke:#000000;stroke-width:0.6;" x="610.499098" xlink:href="#m7af5e227d6" y="378"/>
      </g>
     </g>
    </g>
    <g id="xtick_31">
     <g id="line2d_31">
      <g>
       <use style="stroke:#000000;stroke-width:0.6;" x="621.815659" xlink:href="#m7af5e227d6" y="378"/>
      </g>
     </g>
    </g>
    <g id="xtick_32">
     <g id="line2d_32">
      <g>
       <use style="stroke:#000000;stroke-width:0.6;" x="631.618511" xlink:href="#m7af5e227d6" y="378"/>
      </g>
     </g>
    </g>
    <g id="xtick_33">
     <g id="line2d_33">
      <g>
       <use style="stroke:#000000;stroke-width:0.6;" x="640.265238" xlink:href="#m7af5e227d6" y="378"/>
      </g>
     </g>
    </g>
    <g id="text_5">
     <!-- target dataset size(# images) -->
     <defs>
      <path d="M 33.5 4.703125 
Q 34.59375 5.5 34.59375 4.09375 
L 34.59375 -2 
Q 32.59375 -3.5 29.75 -4.09375 
Q 26.90625 -4.703125 24.203125 -4.703125 
Q 16.5 -4.796875 13.140625 -1.640625 
Q 9.796875 1.5 9.796875 9.09375 
L 9.796875 44.5 
L 0.296875 44.5 
L 0.296875 51 
L 9.796875 51 
L 9.796875 64.5 
L 18.40625 64.5 
L 18.40625 51 
L 32.59375 51 
L 32.59375 44.5 
L 18.40625 44.5 
L 18.40625 10.40625 
Q 18.40625 8.203125 18.59375 6.703125 
Q 18.796875 5.203125 19.5 4.296875 
Q 20.203125 3.40625 21.59375 3 
Q 23 2.59375 25.296875 2.59375 
Q 26.703125 2.59375 29.09375 3.09375 
Q 31.5 3.59375 33.5 4.703125 
z
" id="NanumBarunGothic-74"/>
      <path d="M 39.09375 18.59375 
L 39.09375 25.796875 
L 24.59375 24 
Q 19 23.203125 15.5 20.25 
Q 12 17.296875 12 11.703125 
Q 12 7.203125 15.046875 4.796875 
Q 18.09375 2.40625 22.90625 2.40625 
Q 26.09375 2.40625 29.046875 3.796875 
Q 32 5.203125 34.25 7.453125 
Q 36.5 9.703125 37.796875 12.59375 
Q 39.09375 15.5 39.09375 18.59375 
z
M 9.59375 39.296875 
Q 9.09375 38.796875 8.6875 38.9375 
Q 8.296875 39.09375 8.296875 39.90625 
L 8.296875 47.203125 
Q 12.5 50 17.703125 51.59375 
Q 22.90625 53.203125 28.40625 53.203125 
Q 38.203125 53.203125 42.75 48.703125 
Q 47.296875 44.203125 47.296875 33.90625 
L 47.296875 -3.59375 
L 39 -3.59375 
L 38.59375 4.296875 
L 38.5 4.296875 
Q 37.203125 2.09375 35.25 0.390625 
Q 33.296875 -1.296875 30.9375 -2.4375 
Q 28.59375 -3.59375 26.046875 -4.1875 
Q 23.5 -4.796875 21 -4.796875 
Q 17 -4.90625 13.640625 -3.90625 
Q 10.296875 -2.90625 7.890625 -0.90625 
Q 5.5 1.09375 4.203125 4.09375 
Q 2.90625 7.09375 2.90625 11 
Q 2.90625 18.59375 7.59375 23.640625 
Q 12.296875 28.703125 21.59375 30.09375 
L 38.796875 32.59375 
L 38.796875 33.5 
Q 38.796875 37.09375 38.09375 39.5 
Q 37.40625 41.90625 36 43.25 
Q 34.59375 44.59375 32.4375 45.140625 
Q 30.296875 45.703125 27.40625 45.703125 
Q 22.59375 45.703125 18.34375 44.09375 
Q 14.09375 42.5 9.59375 39.296875 
z
" id="NanumBarunGothic-61"/>
      <path d="M 36.5 43.09375 
Q 35.09375 43.90625 33.59375 44.25 
Q 32.09375 44.59375 30.09375 44.59375 
Q 27.5 44.59375 24.953125 43.34375 
Q 22.40625 42.09375 20.453125 39.796875 
Q 18.5 37.5 17.296875 34.296875 
Q 16.09375 31.09375 16.09375 27.203125 
L 16.09375 -3.59375 
L 7.5 -3.59375 
L 7.5 51 
L 16.203125 51 
L 16.59375 43.09375 
Q 18.703125 47.5 22.703125 49.890625 
Q 26.703125 52.296875 31 52.296875 
Q 33.09375 52.296875 34.640625 52.046875 
Q 36.203125 51.796875 37.703125 51 
L 37.703125 43.59375 
Q 37.703125 42.203125 36.5 43.09375 
z
" id="NanumBarunGothic-72"/>
      <path d="M 42.59375 21.203125 
L 42.59375 28 
Q 42.59375 31.703125 41.296875 34.84375 
Q 40 38 37.84375 40.296875 
Q 35.703125 42.59375 32.75 43.890625 
Q 29.796875 45.203125 26.5 45.203125 
Q 19.296875 45.203125 15.34375 39.703125 
Q 11.40625 34.203125 11.40625 23.59375 
Q 11.40625 14.296875 15.5 9.1875 
Q 19.59375 4.09375 26.40625 4.09375 
Q 34.09375 4.09375 38.34375 8.84375 
Q 42.59375 13.59375 42.59375 21.203125 
z
M 24.09375 -21.296875 
Q 34.203125 -21.296875 38.390625 -16.046875 
Q 42.59375 -10.796875 42.59375 0.296875 
L 42.59375 5.796875 
Q 39.5 1 35.296875 -0.84375 
Q 31.09375 -2.703125 25.40625 -2.703125 
Q 19.703125 -2.703125 15.34375 -0.796875 
Q 11 1.09375 8.140625 4.546875 
Q 5.296875 8 3.84375 12.796875 
Q 2.40625 17.59375 2.40625 23.5 
Q 2.40625 37.203125 8.34375 44.75 
Q 14.296875 52.296875 25.5 52.296875 
Q 31.203125 52.296875 35.5 50.046875 
Q 39.796875 47.796875 42.09375 43.59375 
L 42.203125 43.59375 
L 42.5 51 
L 51.09375 51 
L 51.09375 1.40625 
Q 51.09375 -6.296875 49.59375 -11.9375 
Q 48.09375 -17.59375 44.84375 -21.296875 
Q 41.59375 -25 36.5 -26.75 
Q 31.40625 -28.5 24.203125 -28.5 
Q 18.90625 -28.5 14.90625 -27.5 
Q 10.90625 -26.5 6.90625 -24.5 
L 6.90625 -16.90625 
Q 6.90625 -15.59375 8 -16.40625 
Q 12.5 -19 16.34375 -20.140625 
Q 20.203125 -21.296875 24.09375 -21.296875 
z
" id="NanumBarunGothic-67"/>
      <path d="M 13 29 
L 43.90625 29 
L 43.90625 29.40625 
Q 43.90625 37.5 40.046875 41.640625 
Q 36.203125 45.796875 29.59375 45.796875 
Q 26.5 45.796875 23.75 44.640625 
Q 21 43.5 18.796875 41.390625 
Q 16.59375 39.296875 15.09375 36.25 
Q 13.59375 33.203125 13 29.5 
z
M 29.796875 52.296875 
Q 40.796875 52.296875 46.890625 45.6875 
Q 53 39.09375 53 26.59375 
L 53 22.5 
L 12.90625 22.5 
L 12.90625 21.59375 
Q 13.09375 12 18.09375 7.09375 
Q 23.09375 2.203125 31.5 2.203125 
Q 35.90625 2.203125 40.25 3.5 
Q 44.59375 4.796875 49.203125 8 
Q 50.296875 8.90625 50.296875 7.59375 
L 50.296875 0.703125 
Q 46.09375 -2.5 41.1875 -3.640625 
Q 36.296875 -4.796875 30.296875 -4.796875 
Q 24.40625 -4.796875 19.5 -2.890625 
Q 14.59375 -1 11.09375 2.59375 
Q 7.59375 6.203125 5.640625 11.453125 
Q 3.703125 16.703125 3.703125 23.5 
Q 3.703125 30 5.59375 35.296875 
Q 7.5 40.59375 10.953125 44.390625 
Q 14.40625 48.203125 19.203125 50.25 
Q 24 52.296875 29.796875 52.296875 
z
" id="NanumBarunGothic-65"/>
      <path id="NanumBarunGothic-20"/>
      <path d="M 42.59375 20.203125 
L 42.59375 28.796875 
Q 42.59375 32.09375 41.5 35.046875 
Q 40.40625 38 38.40625 40.25 
Q 36.40625 42.5 33.65625 43.84375 
Q 30.90625 45.203125 27.59375 45.203125 
Q 20.203125 45.203125 16 39.390625 
Q 11.796875 33.59375 11.796875 22.59375 
Q 11.796875 13 15.890625 7.640625 
Q 20 2.296875 26.59375 2.296875 
Q 30.40625 2.296875 33.34375 3.6875 
Q 36.296875 5.09375 38.34375 7.5 
Q 40.40625 9.90625 41.5 13.15625 
Q 42.59375 16.40625 42.59375 20.203125 
z
M 42.09375 3.09375 
L 42 3.09375 
Q 39.09375 -1.40625 35 -2.953125 
Q 30.90625 -4.5 25.59375 -4.5 
Q 19.703125 -4.5 15.390625 -2.5 
Q 11.09375 -0.5 8.34375 3.09375 
Q 5.59375 6.703125 4.25 11.640625 
Q 2.90625 16.59375 2.90625 22.5 
Q 2.90625 28.5 4.296875 33.953125 
Q 5.703125 39.40625 8.640625 43.453125 
Q 11.59375 47.5 16.046875 49.890625 
Q 20.5 52.296875 26.59375 52.296875 
Q 31.90625 52.296875 35.90625 50.1875 
Q 39.90625 48.09375 42.703125 44.59375 
L 42.796875 44.59375 
L 42.796875 77.703125 
L 51.40625 77.703125 
L 51.40625 -3.59375 
L 42.40625 -3.59375 
z
" id="NanumBarunGothic-64"/>
      <path d="M 5 8 
Q 10.09375 5.09375 14.6875 3.546875 
Q 19.296875 2 23.09375 2 
Q 28.796875 2 31.796875 4.296875 
Q 34.796875 6.59375 34.796875 11.09375 
Q 34.796875 13.703125 32.640625 15.640625 
Q 30.5 17.59375 26.40625 19.296875 
L 20.296875 21.90625 
Q 12.90625 25.09375 9.25 28.796875 
Q 5.59375 32.5 5.59375 38.203125 
Q 5.59375 44.5 10.546875 48.390625 
Q 15.5 52.296875 24.59375 52.296875 
Q 29.09375 52.296875 33.25 51.140625 
Q 37.40625 50 41.59375 47.40625 
L 41.59375 40.09375 
Q 41.59375 38.703125 40.703125 39.59375 
Q 36.59375 42.703125 32.6875 44.203125 
Q 28.796875 45.703125 24.203125 45.703125 
Q 19.796875 45.703125 17.25 44.09375 
Q 14.703125 42.5 14.703125 38.796875 
Q 14.703125 34.90625 17 33 
Q 19.296875 31.09375 22.40625 29.90625 
L 29 27 
Q 32.203125 25.59375 34.953125 24.1875 
Q 37.703125 22.796875 39.703125 21 
Q 41.703125 19.203125 42.84375 16.84375 
Q 44 14.5 44 11.203125 
Q 44 7.40625 42.453125 4.40625 
Q 40.90625 1.40625 38.15625 -0.6875 
Q 35.40625 -2.796875 31.59375 -3.890625 
Q 27.796875 -5 23.296875 -5 
Q 18.203125 -5 13.296875 -3.75 
Q 8.40625 -2.5 4 0.40625 
L 4 7.296875 
Q 4 8.59375 5 8 
z
" id="NanumBarunGothic-73"/>
      <path d="M 16.5 51 
L 16.5 -3.59375 
L 7.796875 -3.59375 
L 7.796875 51 
z
M 6 68.40625 
Q 6 71.09375 7.75 72.890625 
Q 9.5 74.703125 12.203125 74.703125 
Q 14.796875 74.703125 16.59375 72.890625 
Q 18.40625 71.09375 18.40625 68.40625 
Q 18.40625 65.796875 16.59375 64.046875 
Q 14.796875 62.296875 12.203125 62.296875 
Q 9.5 62.296875 7.75 64.046875 
Q 6 65.796875 6 68.40625 
z
" id="NanumBarunGothic-69"/>
      <path d="M 44.40625 3.40625 
L 44.40625 -3.59375 
L 3 -3.59375 
L 3 3 
L 34.40625 44.09375 
L 4.296875 44.09375 
L 4.296875 51 
L 43.90625 51 
L 43.90625 44.90625 
L 12.40625 3.40625 
z
" id="NanumBarunGothic-7a"/>
      <path d="M 15.203125 31.703125 
Q 15.203125 38.09375 16.703125 44.546875 
Q 18.203125 51 20.84375 57.046875 
Q 23.5 63.09375 27.09375 68.546875 
Q 30.703125 74 34.90625 78.40625 
L 41.5 78.40625 
Q 33 66.59375 28.75 54.75 
Q 24.5 42.90625 24.5 31.703125 
Q 24.5 20.5 28.75 8.640625 
Q 33 -3.203125 41.5 -15 
L 34.90625 -15 
Q 30.703125 -10.59375 27.09375 -5.140625 
Q 23.5 0.296875 20.84375 6.34375 
Q 18.203125 12.40625 16.703125 18.84375 
Q 15.203125 25.296875 15.203125 31.703125 
z
" id="NanumBarunGothic-28"/>
      <path d="M 20 71.203125 
L 27.796875 71.203125 
L 25.40625 54.203125 
L 36.90625 54.203125 
L 39.296875 71.203125 
L 47.09375 71.203125 
L 44.703125 54.203125 
L 56.09375 54.203125 
L 55.09375 47.796875 
L 43.796875 47.796875 
L 40.90625 26.796875 
L 52.09375 26.796875 
L 51.296875 20.40625 
L 40 20.40625 
L 36.703125 -3 
L 28.90625 -3 
L 32.203125 20.40625 
L 20.703125 20.40625 
L 17.40625 -3 
L 9.59375 -3 
L 12.90625 20.40625 
L 2.296875 20.40625 
L 3.09375 26.796875 
L 13.796875 26.796875 
L 16.703125 47.796875 
L 6.09375 47.796875 
L 7.09375 54.203125 
L 17.59375 54.203125 
z
M 24.203125 48.203125 
L 21.09375 26.40625 
L 33.40625 26.40625 
L 36.5 48.203125 
z
" id="NanumBarunGothic-23"/>
      <path d="M 48.09375 40 
L 48.203125 40 
Q 51.296875 46.09375 55.890625 49.140625 
Q 60.5 52.203125 65.90625 52.203125 
Q 70.796875 52.203125 74.09375 50.640625 
Q 77.40625 49.09375 79.453125 46.09375 
Q 81.5 43.09375 82.34375 38.6875 
Q 83.203125 34.296875 83.203125 28.59375 
L 83.203125 -3.59375 
L 74.703125 -3.59375 
L 74.703125 28.90625 
Q 74.703125 37.296875 72.546875 41.390625 
Q 70.40625 45.5 64.703125 45.5 
Q 61.796875 45.5 59.09375 44.046875 
Q 56.40625 42.59375 54.296875 40.046875 
Q 52.203125 37.5 50.890625 34.046875 
Q 49.59375 30.59375 49.59375 26.5 
L 49.5 -3.59375 
L 41.203125 -3.59375 
L 41.203125 28.90625 
Q 41.203125 37.296875 39 41.390625 
Q 36.796875 45.5 31.09375 45.5 
Q 28.203125 45.5 25.453125 44.046875 
Q 22.703125 42.59375 20.546875 40.046875 
Q 18.40625 37.5 17.09375 34.046875 
Q 15.796875 30.59375 15.796875 26.5 
L 15.796875 -3.59375 
L 7.5 -3.59375 
L 7.5 51 
L 15.90625 51 
L 16.203125 42.796875 
L 16.296875 42.796875 
Q 17.5 45 19.25 46.75 
Q 21 48.5 23.09375 49.703125 
Q 25.203125 50.90625 27.546875 51.546875 
Q 29.90625 52.203125 32.296875 52.203125 
Q 39.203125 52.203125 42.796875 49.203125 
Q 46.40625 46.203125 48.09375 40 
z
" id="NanumBarunGothic-6d"/>
      <path d="M 30.296875 31.703125 
Q 30.296875 25.296875 28.796875 18.84375 
Q 27.296875 12.40625 24.640625 6.34375 
Q 22 0.296875 18.390625 -5.140625 
Q 14.796875 -10.59375 10.59375 -15 
L 4 -15 
Q 12.5 -3.203125 16.75 8.640625 
Q 21 20.5 21 31.703125 
Q 21 42.90625 16.75 54.75 
Q 12.5 66.59375 4 78.40625 
L 10.59375 78.40625 
Q 14.796875 74 18.390625 68.546875 
Q 22 63.09375 24.640625 57.046875 
Q 27.296875 51 28.796875 44.546875 
Q 30.296875 38.09375 30.296875 31.703125 
z
" id="NanumBarunGothic-29"/>
     </defs>
     <g transform="translate(301.617969 407.420313)scale(0.1 -0.1)">
      <use xlink:href="#NanumBarunGothic-74"/>
      <use x="35.699997" xlink:href="#NanumBarunGothic-61"/>
      <use x="91.699982" xlink:href="#NanumBarunGothic-72"/>
      <use x="129.999969" xlink:href="#NanumBarunGothic-67"/>
      <use x="188.799957" xlink:href="#NanumBarunGothic-65"/>
      <use x="244.699951" xlink:href="#NanumBarunGothic-74"/>
      <use x="280.399948" xlink:href="#NanumBarunGothic-20"/>
      <use x="302.799942" xlink:href="#NanumBarunGothic-64"/>
      <use x="361.59993" xlink:href="#NanumBarunGothic-61"/>
      <use x="417.599915" xlink:href="#NanumBarunGothic-74"/>
      <use x="453.299911" xlink:href="#NanumBarunGothic-61"/>
      <use x="509.299896" xlink:href="#NanumBarunGothic-73"/>
      <use x="556.799881" xlink:href="#NanumBarunGothic-65"/>
      <use x="612.699875" xlink:href="#NanumBarunGothic-74"/>
      <use x="648.399872" xlink:href="#NanumBarunGothic-20"/>
      <use x="670.799866" xlink:href="#NanumBarunGothic-73"/>
      <use x="718.29985" xlink:href="#NanumBarunGothic-69"/>
      <use x="742.699844" xlink:href="#NanumBarunGothic-7a"/>
      <use x="789.999832" xlink:href="#NanumBarunGothic-65"/>
      <use x="845.899826" xlink:href="#NanumBarunGothic-28"/>
      <use x="890.499817" xlink:href="#NanumBarunGothic-23"/>
      <use x="948.799805" xlink:href="#NanumBarunGothic-20"/>
      <use x="971.199799" xlink:href="#NanumBarunGothic-69"/>
      <use x="995.599792" xlink:href="#NanumBarunGothic-6d"/>
      <use x="1084.799774" xlink:href="#NanumBarunGothic-61"/>
      <use x="1140.799759" xlink:href="#NanumBarunGothic-67"/>
      <use x="1199.599747" xlink:href="#NanumBarunGothic-65"/>
      <use x="1255.499741" xlink:href="#NanumBarunGothic-73"/>
      <use x="1302.999725" xlink:href="#NanumBarunGothic-29"/>
     </g>
    </g>
   </g>
   <g id="matplotlib.axis_2">
    <g id="ytick_1">
     <g id="line2d_34">
      <defs>
       <path d="M 0 0 
L -3.5 0 
" id="m451b6639f6" style="stroke:#000000;stroke-width:0.8;"/>
      </defs>
      <g>
       <use style="stroke:#000000;stroke-width:0.8;" x="90" xlink:href="#m451b6639f6" y="348.183903"/>
      </g>
     </g>
     <g id="text_6">
      <!-- −0.02 -->
      <defs>
       <path id="NanumBarunGothic-2212"/>
       <path d="M 13 8.296875 
Q 16 8.296875 17.890625 6.390625 
Q 19.796875 4.5 19.796875 1.59375 
Q 19.796875 -1.296875 17.890625 -3.1875 
Q 16 -5.09375 13 -5.09375 
Q 10 -5.09375 8.09375 -3.1875 
Q 6.203125 -1.296875 6.203125 1.59375 
Q 6.203125 4.5 8.09375 6.390625 
Q 10 8.296875 13 8.296875 
z
" id="NanumBarunGothic-2e"/>
      </defs>
      <g transform="translate(60.3 352.06906)scale(0.1 -0.1)">
       <use xlink:href="#NanumBarunGothic-2212"/>
       <use x="22.399994" xlink:href="#NanumBarunGothic-30"/>
       <use x="80.699982" xlink:href="#NanumBarunGothic-2e"/>
       <use x="110.399979" xlink:href="#NanumBarunGothic-30"/>
       <use x="168.699966" xlink:href="#NanumBarunGothic-32"/>
      </g>
     </g>
    </g>
    <g id="ytick_2">
     <g id="line2d_35">
      <g>
       <use style="stroke:#000000;stroke-width:0.8;" x="90" xlink:href="#m451b6639f6" y="310.108343"/>
      </g>
     </g>
     <g id="text_7">
      <!-- 0.00 -->
      <g transform="translate(62.540625 313.993499)scale(0.1 -0.1)">
       <use xlink:href="#NanumBarunGothic-30"/>
       <use x="58.299988" xlink:href="#NanumBarunGothic-2e"/>
       <use x="87.999985" xlink:href="#NanumBarunGothic-30"/>
       <use x="146.299973" xlink:href="#NanumBarunGothic-30"/>
      </g>
     </g>
    </g>
    <g id="ytick_3">
     <g id="line2d_36">
      <g>
       <use style="stroke:#000000;stroke-width:0.8;" x="90" xlink:href="#m451b6639f6" y="272.032782"/>
      </g>
     </g>
     <g id="text_8">
      <!-- 0.02 -->
      <g transform="translate(62.540625 275.917939)scale(0.1 -0.1)">
       <use xlink:href="#NanumBarunGothic-30"/>
       <use x="58.299988" xlink:href="#NanumBarunGothic-2e"/>
       <use x="87.999985" xlink:href="#NanumBarunGothic-30"/>
       <use x="146.299973" xlink:href="#NanumBarunGothic-32"/>
      </g>
     </g>
    </g>
    <g id="ytick_4">
     <g id="line2d_37">
      <g>
       <use style="stroke:#000000;stroke-width:0.8;" x="90" xlink:href="#m451b6639f6" y="233.957222"/>
      </g>
     </g>
     <g id="text_9">
      <!-- 0.04 -->
      <g transform="translate(62.540625 237.842378)scale(0.1 -0.1)">
       <use xlink:href="#NanumBarunGothic-30"/>
       <use x="58.299988" xlink:href="#NanumBarunGothic-2e"/>
       <use x="87.999985" xlink:href="#NanumBarunGothic-30"/>
       <use x="146.299973" xlink:href="#NanumBarunGothic-34"/>
      </g>
     </g>
    </g>
    <g id="ytick_5">
     <g id="line2d_38">
      <g>
       <use style="stroke:#000000;stroke-width:0.8;" x="90" xlink:href="#m451b6639f6" y="195.881661"/>
      </g>
     </g>
     <g id="text_10">
      <!-- 0.06 -->
      <defs>
       <path d="M 49.796875 62.90625 
Q 47 64.59375 43.703125 65.59375 
Q 40.40625 66.59375 36.59375 66.59375 
Q 31.296875 66.59375 27.09375 64.046875 
Q 22.90625 61.5 19.953125 57.140625 
Q 17 52.796875 15.34375 47.09375 
Q 13.703125 41.40625 13.5 35 
L 13.703125 35 
Q 14.703125 37.203125 16.390625 39.25 
Q 18.09375 41.296875 20.4375 42.84375 
Q 22.796875 44.40625 25.640625 45.296875 
Q 28.5 46.203125 31.796875 46.203125 
Q 37.203125 46.203125 41.34375 44.34375 
Q 45.5 42.5 48.34375 39.203125 
Q 51.203125 35.90625 52.703125 31.40625 
Q 54.203125 26.90625 54.203125 21.59375 
Q 54.203125 15.703125 52.453125 10.890625 
Q 50.703125 6.09375 47.453125 2.6875 
Q 44.203125 -0.703125 39.75 -2.546875 
Q 35.296875 -4.40625 29.90625 -4.40625 
Q 22.203125 -4.40625 17.390625 -1.15625 
Q 12.59375 2.09375 9.890625 7.1875 
Q 7.203125 12.296875 6.25 18.546875 
Q 5.296875 24.796875 5.296875 30.90625 
Q 5.296875 38.59375 7.046875 46.25 
Q 8.796875 53.90625 12.546875 59.953125 
Q 16.296875 66 22.1875 69.796875 
Q 28.09375 73.59375 36.40625 73.59375 
Q 40.59375 73.59375 44.09375 72.84375 
Q 47.59375 72.09375 50.703125 70.703125 
L 50.703125 63.296875 
Q 50.703125 62.203125 49.796875 62.90625 
z
M 14.296875 20.796875 
Q 14.296875 17.09375 15.34375 13.796875 
Q 16.40625 10.5 18.453125 8 
Q 20.5 5.5 23.390625 4 
Q 26.296875 2.5 29.90625 2.5 
Q 33.90625 2.5 36.84375 4.140625 
Q 39.796875 5.796875 41.6875 8.390625 
Q 43.59375 11 44.5 14.34375 
Q 45.40625 17.703125 45.40625 21.09375 
Q 45.40625 24.796875 44.5 28.09375 
Q 43.59375 31.40625 41.796875 33.84375 
Q 40 36.296875 37.203125 37.75 
Q 34.40625 39.203125 30.59375 39.203125 
Q 26.59375 39.203125 23.640625 37.75 
Q 20.703125 36.296875 18.703125 33.75 
Q 16.703125 31.203125 15.640625 27.84375 
Q 14.59375 24.5 14.296875 20.796875 
z
" id="NanumBarunGothic-36"/>
      </defs>
      <g transform="translate(62.540625 199.766818)scale(0.1 -0.1)">
       <use xlink:href="#NanumBarunGothic-30"/>
       <use x="58.299988" xlink:href="#NanumBarunGothic-2e"/>
       <use x="87.999985" xlink:href="#NanumBarunGothic-30"/>
       <use x="146.299973" xlink:href="#NanumBarunGothic-36"/>
      </g>
     </g>
    </g>
    <g id="ytick_6">
     <g id="line2d_39">
      <g>
       <use style="stroke:#000000;stroke-width:0.8;" x="90" xlink:href="#m451b6639f6" y="157.806101"/>
      </g>
     </g>
     <g id="text_11">
      <!-- 0.08 -->
      <defs>
       <path d="M 29.09375 2.5 
Q 32.5 2.5 35.546875 3.546875 
Q 38.59375 4.59375 40.890625 6.5 
Q 43.203125 8.40625 44.5 11.15625 
Q 45.796875 13.90625 45.796875 17.40625 
Q 45.796875 20.796875 44.5 23.640625 
Q 43.203125 26.5 40.890625 28.59375 
Q 38.59375 30.703125 35.546875 31.84375 
Q 32.5 33 29.09375 33 
Q 25.59375 33 22.59375 31.84375 
Q 19.59375 30.703125 17.296875 28.59375 
Q 15 26.5 13.703125 23.640625 
Q 12.40625 20.796875 12.40625 17.40625 
Q 12.40625 13.90625 13.703125 11.15625 
Q 15 8.40625 17.296875 6.5 
Q 19.59375 4.59375 22.59375 3.546875 
Q 25.59375 2.5 29.09375 2.5 
z
M 29.09375 40.203125 
Q 31.90625 40.203125 34.59375 41.09375 
Q 37.296875 42 39.390625 43.703125 
Q 41.5 45.40625 42.796875 47.90625 
Q 44.09375 50.40625 44.09375 53.59375 
Q 44.09375 56.703125 42.890625 59.203125 
Q 41.703125 61.703125 39.640625 63.5 
Q 37.59375 65.296875 34.890625 66.25 
Q 32.203125 67.203125 29.09375 67.203125 
Q 26 67.203125 23.296875 66.25 
Q 20.59375 65.296875 18.546875 63.5 
Q 16.5 61.703125 15.296875 59.203125 
Q 14.09375 56.703125 14.09375 53.59375 
Q 14.09375 50.40625 15.390625 47.90625 
Q 16.703125 45.40625 18.796875 43.703125 
Q 20.90625 42 23.59375 41.09375 
Q 26.296875 40.203125 29.09375 40.203125 
z
M 29.09375 -4.5 
Q 22.703125 -4.5 17.953125 -2.953125 
Q 13.203125 -1.40625 10.046875 1.34375 
Q 6.90625 4.09375 5.296875 7.890625 
Q 3.703125 11.703125 3.703125 16.09375 
Q 3.703125 23.40625 7.453125 28.796875 
Q 11.203125 34.203125 19.296875 36.296875 
L 19.296875 36.5 
Q 13 38.5 9.203125 42.84375 
Q 5.40625 47.203125 5.40625 53.5 
Q 5.40625 57.59375 6.84375 61.25 
Q 8.296875 64.90625 11.25 67.59375 
Q 14.203125 70.296875 18.640625 71.890625 
Q 23.09375 73.5 29.09375 73.5 
Q 35.09375 73.5 39.546875 71.890625 
Q 44 70.296875 46.953125 67.59375 
Q 49.90625 64.90625 51.34375 61.25 
Q 52.796875 57.59375 52.796875 53.5 
Q 52.796875 47.203125 49 42.84375 
Q 45.203125 38.5 38.90625 36.5 
L 38.90625 36.296875 
Q 47 34.203125 50.75 28.796875 
Q 54.5 23.40625 54.5 16.09375 
Q 54.5 11.703125 52.890625 7.890625 
Q 51.296875 4.09375 48.140625 1.34375 
Q 45 -1.40625 40.25 -2.953125 
Q 35.5 -4.5 29.09375 -4.5 
z
" id="NanumBarunGothic-38"/>
      </defs>
      <g transform="translate(62.540625 161.691257)scale(0.1 -0.1)">
       <use xlink:href="#NanumBarunGothic-30"/>
       <use x="58.299988" xlink:href="#NanumBarunGothic-2e"/>
       <use x="87.999985" xlink:href="#NanumBarunGothic-30"/>
       <use x="146.299973" xlink:href="#NanumBarunGothic-38"/>
      </g>
     </g>
    </g>
    <g id="ytick_7">
     <g id="line2d_40">
      <g>
       <use style="stroke:#000000;stroke-width:0.8;" x="90" xlink:href="#m451b6639f6" y="119.73054"/>
      </g>
     </g>
     <g id="text_12">
      <!-- 0.10 -->
      <g transform="translate(62.540625 123.615697)scale(0.1 -0.1)">
       <use xlink:href="#NanumBarunGothic-30"/>
       <use x="58.299988" xlink:href="#NanumBarunGothic-2e"/>
       <use x="87.999985" xlink:href="#NanumBarunGothic-31"/>
       <use x="146.299973" xlink:href="#NanumBarunGothic-30"/>
      </g>
     </g>
    </g>
    <g id="ytick_8">
     <g id="line2d_41">
      <g>
       <use style="stroke:#000000;stroke-width:0.8;" x="90" xlink:href="#m451b6639f6" y="81.65498"/>
      </g>
     </g>
     <g id="text_13">
      <!-- 0.12 -->
      <g transform="translate(62.540625 85.540136)scale(0.1 -0.1)">
       <use xlink:href="#NanumBarunGothic-30"/>
       <use x="58.299988" xlink:href="#NanumBarunGothic-2e"/>
       <use x="87.999985" xlink:href="#NanumBarunGothic-31"/>
       <use x="146.299973" xlink:href="#NanumBarunGothic-32"/>
      </g>
     </g>
    </g>
    <g id="text_14">
     <!-- accuracy gain -->
     <defs>
      <path d="M 46.5 7.59375 
Q 47.59375 8.703125 47.59375 7.203125 
L 47.59375 0.5 
Q 44.40625 -2.5 40.25 -3.75 
Q 36.09375 -5 31.59375 -5 
Q 25.296875 -5 20.1875 -3.203125 
Q 15.09375 -1.40625 11.390625 2.09375 
Q 7.703125 5.59375 5.703125 10.890625 
Q 3.703125 16.203125 3.703125 23.296875 
Q 3.703125 29.90625 5.59375 35.25 
Q 7.5 40.59375 11.09375 44.390625 
Q 14.703125 48.203125 19.84375 50.25 
Q 25 52.296875 31.40625 52.296875 
Q 35.796875 52.296875 39.890625 51.09375 
Q 44 49.90625 47.203125 47.296875 
L 47.203125 40.40625 
Q 47.203125 38.703125 46.09375 40 
Q 42.90625 42.90625 39.296875 44 
Q 35.703125 45.09375 31.59375 45.09375 
Q 26.90625 45.09375 23.40625 43.34375 
Q 19.90625 41.59375 17.59375 38.640625 
Q 15.296875 35.703125 14.09375 31.75 
Q 12.90625 27.796875 12.90625 23.40625 
Q 12.90625 18.703125 14.09375 14.796875 
Q 15.296875 10.90625 17.6875 8.046875 
Q 20.09375 5.203125 23.75 3.640625 
Q 27.40625 2.09375 32.296875 2.09375 
Q 36.5 2.09375 39.890625 3.390625 
Q 43.296875 4.703125 46.5 7.59375 
z
" id="NanumBarunGothic-63"/>
      <path d="M 6.5 18.703125 
L 6.5 51 
L 15.09375 51 
L 15.09375 18.5 
Q 15.09375 10.203125 17.796875 6.09375 
Q 20.5 2 27 2 
Q 30.296875 2 33.25 3.34375 
Q 36.203125 4.703125 38.453125 7.09375 
Q 40.703125 9.5 42.046875 12.890625 
Q 43.40625 16.296875 43.40625 20.40625 
L 43.40625 51 
L 51.90625 51 
L 51.90625 -3.59375 
L 43.296875 -3.59375 
L 42.90625 4.296875 
L 42.796875 4.296875 
Q 40.203125 -0.09375 35.640625 -2.4375 
Q 31.09375 -4.796875 26 -4.796875 
Q 20.796875 -4.796875 17.09375 -3.1875 
Q 13.40625 -1.59375 11.046875 1.453125 
Q 8.703125 4.5 7.59375 8.84375 
Q 6.5 13.203125 6.5 18.703125 
z
" id="NanumBarunGothic-75"/>
      <path d="M 3.09375 -27.796875 
L 3.09375 -21.796875 
Q 3.09375 -21 4.09375 -21.09375 
Q 5.203125 -21.40625 6.25 -21.5 
Q 7.296875 -21.59375 8.296875 -21.59375 
Q 11.59375 -21.59375 14.546875 -19.796875 
Q 17.5 -18 19.203125 -13.296875 
L 23 -3.90625 
L 23 -3.5 
L 0.703125 51 
L 10.296875 51 
L 26 9.296875 
L 27.296875 4.90625 
L 28.5 9.296875 
L 42.703125 51 
L 51.703125 51 
L 28.703125 -10 
Q 27.09375 -14.09375 25.34375 -17.5 
Q 23.59375 -20.90625 21.25 -23.34375 
Q 18.90625 -25.796875 15.90625 -27.140625 
Q 12.90625 -28.5 8.796875 -28.5 
Q 5.09375 -28.5 3.09375 -27.796875 
z
" id="NanumBarunGothic-79"/>
      <path d="M 52.796875 28.703125 
L 52.796875 -3.59375 
L 44.203125 -3.59375 
L 44.203125 28.90625 
Q 44.203125 37.296875 41.796875 41.390625 
Q 39.40625 45.5 32.90625 45.5 
Q 29.703125 45.5 26.640625 44.046875 
Q 23.59375 42.59375 21.25 40.046875 
Q 18.90625 37.5 17.453125 34.046875 
Q 16 30.59375 16 26.5 
L 16 -3.59375 
L 7.5 -3.59375 
L 7.5 51 
L 16.09375 51 
L 16.5 43.09375 
L 16.59375 43.09375 
Q 17.796875 45.203125 19.75 46.890625 
Q 21.703125 48.59375 24 49.796875 
Q 26.296875 51 28.84375 51.640625 
Q 31.40625 52.296875 33.90625 52.296875 
Q 44.296875 52.296875 48.546875 46.25 
Q 52.796875 40.203125 52.796875 28.703125 
z
" id="NanumBarunGothic-6e"/>
     </defs>
     <g transform="translate(53.45 246.435625)rotate(-90)scale(0.1 -0.1)">
      <use xlink:href="#NanumBarunGothic-61"/>
      <use x="55.999985" xlink:href="#NanumBarunGothic-63"/>
      <use x="104.999969" xlink:href="#NanumBarunGothic-63"/>
      <use x="153.999954" xlink:href="#NanumBarunGothic-75"/>
      <use x="213.199951" xlink:href="#NanumBarunGothic-72"/>
      <use x="251.499939" xlink:href="#NanumBarunGothic-61"/>
      <use x="307.499924" xlink:href="#NanumBarunGothic-63"/>
      <use x="356.499908" xlink:href="#NanumBarunGothic-79"/>
      <use x="409.499893" xlink:href="#NanumBarunGothic-20"/>
      <use x="431.899887" xlink:href="#NanumBarunGothic-67"/>
      <use x="490.699875" xlink:href="#NanumBarunGothic-61"/>
      <use x="546.69986" xlink:href="#NanumBarunGothic-69"/>
      <use x="571.099854" xlink:href="#NanumBarunGothic-6e"/>
     </g>
    </g>
   </g>
   <g id="line2d_42"/>
   <g id="line2d_43"/>
   <g id="line2d_44"/>
   <g id="line2d_45"/>
   <g id="line2d_46">
    <path clip-path="url(#p5c986174ca)" d="M 90 310.108343 
L 648 310.108343 
" style="fill:none;stroke:#0000ff;stroke-dasharray:5.55,2.4;stroke-dashoffset:0;stroke-width:1.5;"/>
   </g>
   <g id="patch_3">
    <path d="M 90 378 
L 90 51.84 
" style="fill:none;stroke:#000000;stroke-linecap:square;stroke-linejoin:miter;stroke-width:0.8;"/>
   </g>
   <g id="patch_4">
    <path d="M 648 378 
L 648 51.84 
" style="fill:none;stroke:#000000;stroke-linecap:square;stroke-linejoin:miter;stroke-width:0.8;"/>
   </g>
   <g id="patch_5">
    <path d="M 90 378 
L 648 378 
" style="fill:none;stroke:#000000;stroke-linecap:square;stroke-linejoin:miter;stroke-width:0.8;"/>
   </g>
   <g id="patch_6">
    <path d="M 90 51.84 
L 648 51.84 
" style="fill:none;stroke:#000000;stroke-linecap:square;stroke-linejoin:miter;stroke-width:0.8;"/>
   </g>
   <g id="legend_1">
    <g id="patch_7">
     <path d="M 509.564062 137.819687 
L 641 137.819687 
Q 643 137.819687 643 135.819687 
L 643 58.84 
Q 643 56.84 641 56.84 
L 509.564062 56.84 
Q 507.564062 56.84 507.564062 58.84 
L 507.564062 135.819687 
Q 507.564062 137.819687 509.564062 137.819687 
z
" style="fill:#ffffff;opacity:0.8;stroke:#cccccc;stroke-linejoin:miter;"/>
    </g>
    <g id="text_15">
     <!-- target dataset -->
     <g transform="translate(542.860937 68.610312)scale(0.1 -0.1)">
      <use xlink:href="#NanumBarunGothic-74"/>
      <use x="35.699997" xlink:href="#NanumBarunGothic-61"/>
      <use x="91.699982" xlink:href="#NanumBarunGothic-72"/>
      <use x="129.999969" xlink:href="#NanumBarunGothic-67"/>
      <use x="188.799957" xlink:href="#NanumBarunGothic-65"/>
      <use x="244.699951" xlink:href="#NanumBarunGothic-74"/>
      <use x="280.399948" xlink:href="#NanumBarunGothic-20"/>
      <use x="302.799942" xlink:href="#NanumBarunGothic-64"/>
      <use x="361.59993" xlink:href="#NanumBarunGothic-61"/>
      <use x="417.599915" xlink:href="#NanumBarunGothic-74"/>
      <use x="453.299911" xlink:href="#NanumBarunGothic-61"/>
      <use x="509.299896" xlink:href="#NanumBarunGothic-73"/>
      <use x="556.799881" xlink:href="#NanumBarunGothic-65"/>
      <use x="612.699875" xlink:href="#NanumBarunGothic-74"/>
     </g>
    </g>
    <g id="line2d_47"/>
    <g id="line2d_48">
     <defs>
      <path d="M 0 3 
C 0.795609 3 1.55874 2.683901 2.12132 2.12132 
C 2.683901 1.55874 3 0.795609 3 0 
C 3 -0.795609 2.683901 -1.55874 2.12132 -2.12132 
C 1.55874 -2.683901 0.795609 -3 0 -3 
C -0.795609 -3 -1.55874 -2.683901 -2.12132 -2.12132 
C -2.683901 -1.55874 -3 -0.795609 -3 0 
C -3 0.795609 -2.683901 1.55874 -2.12132 2.12132 
C -1.55874 2.683901 -0.795609 3 0 3 
z
" id="mc49dba0065" style="stroke:#808000;"/>
     </defs>
     <g>
      <use style="fill:#808000;stroke:#808000;" x="521.564062" xlink:href="#mc49dba0065" y="80.730625"/>
     </g>
    </g>
    <g id="text_16">
     <!-- electornic component -->
     <defs>
      <path d="M 16.09375 77.703125 
L 16.09375 -3.59375 
L 7.5 -3.59375 
L 7.5 77.703125 
z
" id="NanumBarunGothic-6c"/>
      <path d="M 28.796875 -4.5 
Q 22.203125 -4.5 17.453125 -2.25 
Q 12.703125 0 9.546875 3.890625 
Q 6.40625 7.796875 4.90625 12.9375 
Q 3.40625 18.09375 3.40625 23.90625 
Q 3.40625 30 5 35.25 
Q 6.59375 40.5 9.796875 44.25 
Q 13 48 17.75 50.140625 
Q 22.5 52.296875 28.796875 52.296875 
Q 35.09375 52.296875 39.84375 50.140625 
Q 44.59375 48 47.796875 44.25 
Q 51 40.5 52.59375 35.25 
Q 54.203125 30 54.203125 23.90625 
Q 54.203125 18.09375 52.703125 12.9375 
Q 51.203125 7.796875 48.046875 3.890625 
Q 44.90625 0 40.15625 -2.25 
Q 35.40625 -4.5 28.796875 -4.5 
z
M 28.796875 2.40625 
Q 36.796875 2.40625 40.9375 7.796875 
Q 45.09375 13.203125 45.09375 23.90625 
Q 45.09375 34.90625 40.9375 40.203125 
Q 36.796875 45.5 28.796875 45.5 
Q 20.796875 45.5 16.640625 40.203125 
Q 12.5 34.90625 12.5 23.90625 
Q 12.5 13.203125 16.640625 7.796875 
Q 20.796875 2.40625 28.796875 2.40625 
z
" id="NanumBarunGothic-6f"/>
      <path d="M 16.09375 51 
L 16.40625 43.40625 
Q 19.59375 47.59375 23.59375 49.9375 
Q 27.59375 52.296875 33.203125 52.296875 
Q 44.703125 52.296875 50.453125 45.140625 
Q 56.203125 38 56.203125 25.203125 
Q 56.203125 18.703125 54.75 13.25 
Q 53.296875 7.796875 50.296875 3.84375 
Q 47.296875 -0.09375 42.75 -2.296875 
Q 38.203125 -4.5 32 -4.5 
Q 26.59375 -4.5 22.796875 -2.59375 
Q 19 -0.703125 16.296875 2.703125 
L 16.09375 2.703125 
L 16.09375 -28.09375 
L 7.5 -28.09375 
L 7.5 51 
z
M 15.90625 26 
L 15.90625 17.90625 
Q 15.90625 14.59375 17.046875 11.84375 
Q 18.203125 9.09375 20.25 7.046875 
Q 22.296875 5 25.09375 3.84375 
Q 27.90625 2.703125 31.203125 2.703125 
Q 38.703125 2.703125 42.953125 8.5 
Q 47.203125 14.296875 47.203125 25.203125 
Q 47.203125 34.796875 43.09375 40.1875 
Q 39 45.59375 32.203125 45.59375 
Q 28.40625 45.59375 25.34375 43.9375 
Q 22.296875 42.296875 20.1875 39.546875 
Q 18.09375 36.796875 17 33.25 
Q 15.90625 29.703125 15.90625 26 
z
" id="NanumBarunGothic-70"/>
     </defs>
     <g transform="translate(539.564062 84.230625)scale(0.1 -0.1)">
      <use xlink:href="#NanumBarunGothic-65"/>
      <use x="55.899994" xlink:href="#NanumBarunGothic-6c"/>
      <use x="80.299988" xlink:href="#NanumBarunGothic-65"/>
      <use x="136.199982" xlink:href="#NanumBarunGothic-63"/>
      <use x="185.199966" xlink:href="#NanumBarunGothic-74"/>
      <use x="220.899963" xlink:href="#NanumBarunGothic-6f"/>
      <use x="278.59996" xlink:href="#NanumBarunGothic-72"/>
      <use x="316.899948" xlink:href="#NanumBarunGothic-6e"/>
      <use x="376.099945" xlink:href="#NanumBarunGothic-69"/>
      <use x="400.499939" xlink:href="#NanumBarunGothic-63"/>
      <use x="449.499924" xlink:href="#NanumBarunGothic-20"/>
      <use x="471.899918" xlink:href="#NanumBarunGothic-63"/>
      <use x="520.899902" xlink:href="#NanumBarunGothic-6f"/>
      <use x="578.599899" xlink:href="#NanumBarunGothic-6d"/>
      <use x="667.799881" xlink:href="#NanumBarunGothic-70"/>
      <use x="726.599869" xlink:href="#NanumBarunGothic-6f"/>
      <use x="784.299866" xlink:href="#NanumBarunGothic-6e"/>
      <use x="843.499863" xlink:href="#NanumBarunGothic-65"/>
      <use x="899.399857" xlink:href="#NanumBarunGothic-6e"/>
      <use x="958.599854" xlink:href="#NanumBarunGothic-74"/>
     </g>
    </g>
    <g id="line2d_49"/>
    <g id="line2d_50">
     <defs>
      <path d="M -0 4.242641 
L 4.242641 0 
L 0 -4.242641 
L -4.242641 -0 
z
" id="m879ad67897" style="stroke:#808000;stroke-linejoin:miter;"/>
     </defs>
     <g>
      <use style="fill:#808000;stroke:#808000;stroke-linejoin:miter;" x="521.564062" xlink:href="#m879ad67897" y="96.310312"/>
     </g>
    </g>
    <g id="text_17">
     <!-- bottle -->
     <defs>
      <path d="M 16.296875 26.59375 
L 16.296875 18.90625 
Q 16.296875 15.203125 17.4375 12.203125 
Q 18.59375 9.203125 20.59375 7.046875 
Q 22.59375 4.90625 25.390625 3.75 
Q 28.203125 2.59375 31.40625 2.59375 
Q 38.796875 2.59375 42.796875 8.390625 
Q 46.796875 14.203125 46.796875 25.09375 
Q 46.796875 34.703125 42.9375 40.09375 
Q 39.09375 45.5 32.5 45.5 
Q 29.09375 45.5 26.140625 43.953125 
Q 23.203125 42.40625 21 39.796875 
Q 18.796875 37.203125 17.546875 33.75 
Q 16.296875 30.296875 16.296875 26.59375 
z
M 33.296875 52.296875 
Q 39.09375 52.296875 43.34375 50.296875 
Q 47.59375 48.296875 50.296875 44.6875 
Q 53 41.09375 54.296875 36.09375 
Q 55.59375 31.09375 55.59375 25.203125 
Q 55.59375 18.796875 54.1875 13.34375 
Q 52.796875 7.90625 49.890625 3.953125 
Q 47 0 42.546875 -2.25 
Q 38.09375 -4.5 32 -4.5 
Q 26.703125 -4.5 23.09375 -2.453125 
Q 19.5 -0.40625 16.90625 3.09375 
L 16.796875 3.09375 
L 16.5 -3.59375 
L 7.5 -3.59375 
L 7.5 77.703125 
L 16.09375 77.703125 
L 16.09375 42.703125 
L 16.296875 42.703125 
Q 18.90625 47.203125 23.25 49.75 
Q 27.59375 52.296875 33.296875 52.296875 
z
" id="NanumBarunGothic-62"/>
     </defs>
     <g transform="translate(539.564062 99.810312)scale(0.1 -0.1)">
      <use xlink:href="#NanumBarunGothic-62"/>
      <use x="58.799988" xlink:href="#NanumBarunGothic-6f"/>
      <use x="116.499985" xlink:href="#NanumBarunGothic-74"/>
      <use x="152.199982" xlink:href="#NanumBarunGothic-74"/>
      <use x="187.899979" xlink:href="#NanumBarunGothic-6c"/>
      <use x="212.299973" xlink:href="#NanumBarunGothic-65"/>
     </g>
    </g>
    <g id="line2d_51"/>
    <g id="line2d_52">
     <defs>
      <path d="M -1 3 
L 1 3 
L 1 1 
L 3 1 
L 3 -1 
L 1 -1 
L 1 -3 
L -1 -3 
L -1 -1 
L -3 -1 
L -3 1 
L -1 1 
z
" id="m1b96b826b8" style="stroke:#808000;stroke-linejoin:miter;"/>
     </defs>
     <g>
      <use style="fill:#808000;stroke:#808000;stroke-linejoin:miter;" x="521.564062" xlink:href="#m1b96b826b8" y="111.89"/>
     </g>
    </g>
    <g id="text_18">
     <!-- film -->
     <defs>
      <path d="M 34 71 
Q 32.796875 71.40625 31.59375 71.59375 
Q 30.40625 71.796875 29 71.796875 
Q 24.296875 71.796875 21.9375 69.34375 
Q 19.59375 66.90625 19.59375 60.203125 
L 19.59375 51 
L 32.703125 51 
L 32.703125 44.5 
L 19.59375 44.5 
L 19.59375 -3.59375 
L 11.09375 -3.59375 
L 11.09375 44.5 
L 1.5 44.5 
L 1.5 51 
L 11.09375 51 
L 11.09375 61.5 
Q 11.09375 66.09375 12.34375 69.390625 
Q 13.59375 72.703125 15.890625 74.796875 
Q 18.203125 76.90625 21.34375 77.90625 
Q 24.5 78.90625 28.40625 78.90625 
Q 30.5 78.90625 32.046875 78.59375 
Q 33.59375 78.296875 35 77.5 
L 35 71.703125 
Q 35 70.59375 34 71 
z
" id="NanumBarunGothic-66"/>
     </defs>
     <g transform="translate(539.564062 115.39)scale(0.1 -0.1)">
      <use xlink:href="#NanumBarunGothic-66"/>
      <use x="33.999985" xlink:href="#NanumBarunGothic-69"/>
      <use x="58.399979" xlink:href="#NanumBarunGothic-6c"/>
      <use x="82.799973" xlink:href="#NanumBarunGothic-6d"/>
     </g>
    </g>
    <g id="line2d_53"/>
    <g id="line2d_54">
     <defs>
      <path d="M -3 3 
L 3 3 
L 3 -3 
L -3 -3 
z
" id="m563baf187c" style="stroke:#808000;stroke-linejoin:miter;"/>
     </defs>
     <g>
      <use style="fill:#808000;stroke:#808000;stroke-linejoin:miter;" x="521.564062" xlink:href="#m563baf187c" y="127.469687"/>
     </g>
    </g>
    <g id="text_19">
     <!-- display -->
     <g transform="translate(539.564062 130.969687)scale(0.1 -0.1)">
      <use xlink:href="#NanumBarunGothic-64"/>
      <use x="58.799988" xlink:href="#NanumBarunGothic-69"/>
      <use x="83.199982" xlink:href="#NanumBarunGothic-73"/>
      <use x="130.699966" xlink:href="#NanumBarunGothic-70"/>
      <use x="189.499954" xlink:href="#NanumBarunGothic-6c"/>
      <use x="213.899948" xlink:href="#NanumBarunGothic-61"/>
      <use x="269.899933" xlink:href="#NanumBarunGothic-79"/>
     </g>
    </g>
   </g>
  </g>
 </g>
 <defs>
  <clipPath id="p5c986174ca">
   <rect height="326.16" width="558" x="90" y="51.84"/>
  </clipPath>
 </defs>
</svg>
